  0
SECTION
  2
HEADER
  9
$ANGBASE
  50
0.0
  9
$ANGDIR
  70
1
  9
$MEASUREMENT
  70
1
  0
ENDSEC
  0
SECTION
  2
TABLES
  0
TABLE
  2
LTYPE
  70
4
  0
LTYPE
  5
40F
  2
CONTINUOUS
  70
0
  3
Solid line
  72
65
  73
0
  40
0.0
  0
LTYPE
  5
410
  2
DASHDOT
 70
0
  3
Dash Dot ____ _ ____ _
 72
65
 73
4
 40
2.0
 49
1.25
 49
-0.25
 49
0.25
 49
-0.25
  0
LTYPE
  5
411
  2
DASHED
 70
0
  3
Dashed __ __ __ __ __
 72
65
 73
2
 40
0.75
 49
0.5
 49
-0.25
  0
LTYPE
  5
43B
  2
DOTTED
 70
0
  3
Dotted .  .  .  .
 72
65
 73
2
 40
0.2
 49
0.0
 49
-0.2
  0
ENDTAB
  0
TABLE
  2
STYLE
  70
4
  0
STYLE
  2
KICAD
  70
0
  40
0
  41
1
  42
1
  50
0
  71
0
  3
isocp.shx
  0
STYLE
  2
KICADB
  70
0
  40
0
  41
1
  42
1
  50
0
  71
0
  3
isocp.shx
  0
STYLE
  2
KICADI
  70
0
  40
0
  41
1
  42
1
  50
15
  71
0
  3
isocp.shx
  0
STYLE
  2
KICADBI
  70
0
  40
0
  41
1
  42
1
  50
15
  71
0
  3
isocp.shx
  0
ENDTAB
  0
TABLE
  2
LAYER
  70
1
  0
LAYER
  2
BLACK
  70
0
  62
7
  6
CONTINUOUS
  0
ENDTAB
  0
ENDSEC
  0
SECTION
  2
ENTITIES
0
LINE
8
BLACK
6
CONTINUOUS
10
14.6895
20
-11.0176
11
14.6901
21
-11.0178
0
LINE
8
BLACK
6
CONTINUOUS
10
14.6901
20
-11.0178
11
14.6907
21
-11.0176
0
LINE
8
BLACK
6
CONTINUOUS
10
14.6907
20
-11.0176
11
14.8023
21
-11.0241
0
LINE
8
BLACK
6
CONTINUOUS
10
14.8023
20
-11.0241
11
14.8029
21
-11.0244
0
LINE
8
BLACK
6
CONTINUOUS
10
14.8029
20
-11.0244
11
14.8035
21
-11.0242
0
LINE
8
BLACK
6
CONTINUOUS
10
14.8035
20
-11.0242
11
14.8996
21
-11.0353
0
LINE
8
BLACK
6
CONTINUOUS
10
14.8996
20
-11.0353
11
18.7834
21
-11.0353
0
LINE
8
BLACK
6
CONTINUOUS
10
18.7834
20
-11.0353
11
18.7834
21
-11.0353
0
LINE
8
BLACK
6
CONTINUOUS
10
18.7834
20
-11.0353
11
18.7834
21
-11.0353
0
LINE
8
BLACK
6
CONTINUOUS
10
18.7834
20
-11.0353
11
150.158
21
-11.12
0
LINE
8
BLACK
6
CONTINUOUS
10
150.158
20
-11.12
11
150.159
21
-11.1201
0
LINE
8
BLACK
6
CONTINUOUS
10
150.159
20
-11.1201
11
150.159
21
-11.12
0
LINE
8
BLACK
6
CONTINUOUS
10
150.159
20
-11.12
11
150.397
21
-11.1264
0
LINE
8
BLACK
6
CONTINUOUS
10
150.397
20
-11.1264
11
150.397
21
-11.1267
0
LINE
8
BLACK
6
CONTINUOUS
10
150.397
20
-11.1267
11
150.398
21
-11.1265
0
LINE
8
BLACK
6
CONTINUOUS
10
150.398
20
-11.1265
11
150.619
21
-11.1452
0
LINE
8
BLACK
6
CONTINUOUS
10
150.619
20
-11.1452
11
150.619
21
-11.1455
0
LINE
8
BLACK
6
CONTINUOUS
10
150.619
20
-11.1455
11
150.62
21
-11.1453
0
LINE
8
BLACK
6
CONTINUOUS
10
150.62
20
-11.1453
11
150.824
21
-11.1754
0
LINE
8
BLACK
6
CONTINUOUS
10
150.824
20
-11.1754
11
150.825
21
-11.1758
0
LINE
8
BLACK
6
CONTINUOUS
10
150.825
20
-11.1758
11
150.826
21
-11.1757
0
LINE
8
BLACK
6
CONTINUOUS
10
150.826
20
-11.1757
11
151.014
21
-11.2164
0
LINE
8
BLACK
6
CONTINUOUS
10
151.014
20
-11.2164
11
151.015
21
-11.2169
0
LINE
8
BLACK
6
CONTINUOUS
10
151.015
20
-11.2169
11
151.016
21
-11.2168
0
LINE
8
BLACK
6
CONTINUOUS
10
151.016
20
-11.2168
11
151.189
21
-11.2674
0
LINE
8
BLACK
6
CONTINUOUS
10
151.189
20
-11.2674
11
151.19
21
-11.2679
0
LINE
8
BLACK
6
CONTINUOUS
10
151.19
20
-11.2679
11
151.19
21
-11.2679
0
LINE
8
BLACK
6
CONTINUOUS
10
151.19
20
-11.2679
11
151.349
21
-11.3275
0
LINE
8
BLACK
6
CONTINUOUS
10
151.349
20
-11.3275
11
151.35
21
-11.328
0
LINE
8
BLACK
6
CONTINUOUS
10
151.35
20
-11.328
11
151.35
21
-11.3281
0
LINE
8
BLACK
6
CONTINUOUS
10
151.35
20
-11.3281
11
151.495
21
-11.3958
0
LINE
8
BLACK
6
CONTINUOUS
10
151.495
20
-11.3958
11
151.496
21
-11.3965
0
LINE
8
BLACK
6
CONTINUOUS
10
151.496
20
-11.3965
11
151.497
21
-11.3966
0
LINE
8
BLACK
6
CONTINUOUS
10
151.497
20
-11.3966
11
151.628
21
-11.4717
0
LINE
8
BLACK
6
CONTINUOUS
10
151.628
20
-11.4717
11
151.628
21
-11.4725
0
LINE
8
BLACK
6
CONTINUOUS
10
151.628
20
-11.4725
11
151.629
21
-11.4727
0
LINE
8
BLACK
6
CONTINUOUS
10
151.629
20
-11.4727
11
151.748
21
-11.5543
0
LINE
8
BLACK
6
CONTINUOUS
10
151.748
20
-11.5543
11
151.748
21
-11.5551
0
LINE
8
BLACK
6
CONTINUOUS
10
151.748
20
-11.5551
11
151.749
21
-11.5554
0
LINE
8
BLACK
6
CONTINUOUS
10
151.749
20
-11.5554
11
151.856
21
-11.6428
0
LINE
8
BLACK
6
CONTINUOUS
10
151.856
20
-11.6428
11
151.856
21
-11.6436
0
LINE
8
BLACK
6
CONTINUOUS
10
151.856
20
-11.6436
11
151.857
21
-11.6439
0
LINE
8
BLACK
6
CONTINUOUS
10
151.857
20
-11.6439
11
151.952
21
-11.7362
0
LINE
8
BLACK
6
CONTINUOUS
10
151.952
20
-11.7362
11
151.952
21
-11.737
0
LINE
8
BLACK
6
CONTINUOUS
10
151.952
20
-11.737
11
151.953
21
-11.7374
0
LINE
8
BLACK
6
CONTINUOUS
10
151.953
20
-11.7374
11
152.037
21
-11.8338
0
LINE
8
BLACK
6
CONTINUOUS
10
152.037
20
-11.8338
11
152.037
21
-11.8346
0
LINE
8
BLACK
6
CONTINUOUS
10
152.037
20
-11.8346
11
152.038
21
-11.8351
0
LINE
8
BLACK
6
CONTINUOUS
10
152.038
20
-11.8351
11
152.112
21
-11.9348
0
LINE
8
BLACK
6
CONTINUOUS
10
152.112
20
-11.9348
11
152.112
21
-11.9356
0
LINE
8
BLACK
6
CONTINUOUS
10
152.112
20
-11.9356
11
152.113
21
-11.9361
0
LINE
8
BLACK
6
CONTINUOUS
10
152.113
20
-11.9361
11
152.177
21
-12.0382
0
LINE
8
BLACK
6
CONTINUOUS
10
152.177
20
-12.0382
11
152.177
21
-12.0389
0
LINE
8
BLACK
6
CONTINUOUS
10
152.177
20
-12.0389
11
152.178
21
-12.0395
0
LINE
8
BLACK
6
CONTINUOUS
10
152.178
20
-12.0395
11
152.233
21
-12.1432
0
LINE
8
BLACK
6
CONTINUOUS
10
152.233
20
-12.1432
11
152.233
21
-12.1439
0
LINE
8
BLACK
6
CONTINUOUS
10
152.233
20
-12.1439
11
152.234
21
-12.1445
0
LINE
8
BLACK
6
CONTINUOUS
10
152.234
20
-12.1445
11
152.281
21
-12.249
0
LINE
8
BLACK
6
CONTINUOUS
10
152.281
20
-12.249
11
152.281
21
-12.2497
0
LINE
8
BLACK
6
CONTINUOUS
10
152.281
20
-12.2497
11
152.281
21
-12.2502
0
LINE
8
BLACK
6
CONTINUOUS
10
152.281
20
-12.2502
11
152.321
21
-12.3548
0
LINE
8
BLACK
6
CONTINUOUS
10
152.321
20
-12.3548
11
152.321
21
-12.3554
0
LINE
8
BLACK
6
CONTINUOUS
10
152.321
20
-12.3554
11
152.321
21
-12.3559
0
LINE
8
BLACK
6
CONTINUOUS
10
152.321
20
-12.3559
11
152.353
21
-12.4597
0
LINE
8
BLACK
6
CONTINUOUS
10
152.353
20
-12.4597
11
152.353
21
-12.4603
0
LINE
8
BLACK
6
CONTINUOUS
10
152.353
20
-12.4603
11
152.354
21
-12.4608
0
LINE
8
BLACK
6
CONTINUOUS
10
152.354
20
-12.4608
11
152.379
21
-12.5629
0
LINE
8
BLACK
6
CONTINUOUS
10
152.379
20
-12.5629
11
152.379
21
-12.5634
0
LINE
8
BLACK
6
CONTINUOUS
10
152.379
20
-12.5634
11
152.38
21
-12.5639
0
LINE
8
BLACK
6
CONTINUOUS
10
152.38
20
-12.5639
11
152.399
21
-12.6635
0
LINE
8
BLACK
6
CONTINUOUS
10
152.399
20
-12.6635
11
152.399
21
-12.6642
0
LINE
8
BLACK
6
CONTINUOUS
10
152.399
20
-12.6642
11
152.4
21
-12.6649
0
LINE
8
BLACK
6
CONTINUOUS
10
152.4
20
-12.6649
11
152.425
21
-12.8536
0
LINE
8
BLACK
6
CONTINUOUS
10
152.425
20
-12.8536
11
152.424
21
-12.8544
0
LINE
8
BLACK
6
CONTINUOUS
10
152.424
20
-12.8544
11
152.425
21
-12.8552
0
LINE
8
BLACK
6
CONTINUOUS
10
152.425
20
-12.8552
11
152.434
21
-13.0242
0
LINE
8
BLACK
6
CONTINUOUS
10
152.434
20
-13.0242
11
152.433
21
-13.0249
0
LINE
8
BLACK
6
CONTINUOUS
10
152.433
20
-13.0249
11
152.434
21
-13.0256
0
LINE
8
BLACK
6
CONTINUOUS
10
152.434
20
-13.0256
11
152.432
21
-13.1684
0
LINE
8
BLACK
6
CONTINUOUS
10
152.432
20
-13.1684
11
152.432
21
-13.169
0
LINE
8
BLACK
6
CONTINUOUS
10
152.432
20
-13.169
11
152.432
21
-13.1696
0
LINE
8
BLACK
6
CONTINUOUS
10
152.432
20
-13.1696
11
152.425
21
-13.2797
0
LINE
8
BLACK
6
CONTINUOUS
10
152.425
20
-13.2797
11
152.424
21
-13.2803
0
LINE
8
BLACK
6
CONTINUOUS
10
152.424
20
-13.2803
11
152.425
21
-13.2809
0
LINE
8
BLACK
6
CONTINUOUS
10
152.425
20
-13.2809
11
152.413
21
-13.3756
0
LINE
8
BLACK
6
CONTINUOUS
10
152.413
20
-13.3756
11
152.413
21
-145.646
0
LINE
8
BLACK
6
CONTINUOUS
10
152.413
20
-145.646
11
152.413
21
-145.646
0
LINE
8
BLACK
6
CONTINUOUS
10
152.413
20
-145.646
11
152.413
21
-145.647
0
LINE
8
BLACK
6
CONTINUOUS
10
152.413
20
-145.647
11
152.406
21
-145.872
0
LINE
8
BLACK
6
CONTINUOUS
10
152.406
20
-145.872
11
152.406
21
-145.872
0
LINE
8
BLACK
6
CONTINUOUS
10
152.406
20
-145.872
11
152.406
21
-145.873
0
LINE
8
BLACK
6
CONTINUOUS
10
152.406
20
-145.873
11
152.387
21
-146.082
0
LINE
8
BLACK
6
CONTINUOUS
10
152.387
20
-146.082
11
152.387
21
-146.083
0
LINE
8
BLACK
6
CONTINUOUS
10
152.387
20
-146.083
11
152.387
21
-146.084
0
LINE
8
BLACK
6
CONTINUOUS
10
152.387
20
-146.084
11
152.357
21
-146.279
0
LINE
8
BLACK
6
CONTINUOUS
10
152.357
20
-146.279
11
152.356
21
-146.279
0
LINE
8
BLACK
6
CONTINUOUS
10
152.356
20
-146.279
11
152.356
21
-146.28
0
LINE
8
BLACK
6
CONTINUOUS
10
152.356
20
-146.28
11
152.315
21
-146.461
0
LINE
8
BLACK
6
CONTINUOUS
10
152.315
20
-146.461
11
152.315
21
-146.461
0
LINE
8
BLACK
6
CONTINUOUS
10
152.315
20
-146.461
11
152.315
21
-146.462
0
LINE
8
BLACK
6
CONTINUOUS
10
152.315
20
-146.462
11
152.263
21
-146.629
0
LINE
8
BLACK
6
CONTINUOUS
10
152.263
20
-146.629
11
152.263
21
-146.63
0
LINE
8
BLACK
6
CONTINUOUS
10
152.263
20
-146.63
11
152.263
21
-146.63
0
LINE
8
BLACK
6
CONTINUOUS
10
152.263
20
-146.63
11
152.203
21
-146.784
0
LINE
8
BLACK
6
CONTINUOUS
10
152.203
20
-146.784
11
152.202
21
-146.785
0
LINE
8
BLACK
6
CONTINUOUS
10
152.202
20
-146.785
11
152.202
21
-146.786
0
LINE
8
BLACK
6
CONTINUOUS
10
152.202
20
-146.786
11
152.133
21
-146.927
0
LINE
8
BLACK
6
CONTINUOUS
10
152.133
20
-146.927
11
152.133
21
-146.927
0
LINE
8
BLACK
6
CONTINUOUS
10
152.133
20
-146.927
11
152.133
21
-146.928
0
LINE
8
BLACK
6
CONTINUOUS
10
152.133
20
-146.928
11
152.057
21
-147.057
0
LINE
8
BLACK
6
CONTINUOUS
10
152.057
20
-147.057
11
152.056
21
-147.058
0
LINE
8
BLACK
6
CONTINUOUS
10
152.056
20
-147.058
11
152.056
21
-147.059
0
LINE
8
BLACK
6
CONTINUOUS
10
152.056
20
-147.059
11
151.973
21
-147.176
0
LINE
8
BLACK
6
CONTINUOUS
10
151.973
20
-147.176
11
151.972
21
-147.176
0
LINE
8
BLACK
6
CONTINUOUS
10
151.972
20
-147.176
11
151.972
21
-147.177
0
LINE
8
BLACK
6
CONTINUOUS
10
151.972
20
-147.177
11
151.883
21
-147.284
0
LINE
8
BLACK
6
CONTINUOUS
10
151.883
20
-147.284
11
151.883
21
-147.284
0
LINE
8
BLACK
6
CONTINUOUS
10
151.883
20
-147.284
11
151.882
21
-147.285
0
LINE
8
BLACK
6
CONTINUOUS
10
151.882
20
-147.285
11
151.789
21
-147.381
0
LINE
8
BLACK
6
CONTINUOUS
10
151.789
20
-147.381
11
151.788
21
-147.381
0
LINE
8
BLACK
6
CONTINUOUS
10
151.788
20
-147.381
11
151.788
21
-147.382
0
LINE
8
BLACK
6
CONTINUOUS
10
151.788
20
-147.382
11
151.69
21
-147.468
0
LINE
8
BLACK
6
CONTINUOUS
10
151.69
20
-147.468
11
151.689
21
-147.468
0
LINE
8
BLACK
6
CONTINUOUS
10
151.689
20
-147.468
11
151.689
21
-147.469
0
LINE
8
BLACK
6
CONTINUOUS
10
151.689
20
-147.469
11
151.588
21
-147.545
0
LINE
8
BLACK
6
CONTINUOUS
10
151.588
20
-147.545
11
151.587
21
-147.546
0
LINE
8
BLACK
6
CONTINUOUS
10
151.587
20
-147.546
11
151.587
21
-147.546
0
LINE
8
BLACK
6
CONTINUOUS
10
151.587
20
-147.546
11
151.484
21
-147.614
0
LINE
8
BLACK
6
CONTINUOUS
10
151.484
20
-147.614
11
151.483
21
-147.614
0
LINE
8
BLACK
6
CONTINUOUS
10
151.483
20
-147.614
11
151.482
21
-147.615
0
LINE
8
BLACK
6
CONTINUOUS
10
151.482
20
-147.615
11
151.377
21
-147.674
0
LINE
8
BLACK
6
CONTINUOUS
10
151.377
20
-147.674
11
151.377
21
-147.674
0
LINE
8
BLACK
6
CONTINUOUS
10
151.377
20
-147.674
11
151.376
21
-147.675
0
LINE
8
BLACK
6
CONTINUOUS
10
151.376
20
-147.675
11
151.27
21
-147.726
0
LINE
8
BLACK
6
CONTINUOUS
10
151.27
20
-147.726
11
151.27
21
-147.726
0
LINE
8
BLACK
6
CONTINUOUS
10
151.27
20
-147.726
11
151.269
21
-147.727
0
LINE
8
BLACK
6
CONTINUOUS
10
151.269
20
-147.727
11
151.164
21
-147.771
0
LINE
8
BLACK
6
CONTINUOUS
10
151.164
20
-147.771
11
151.163
21
-147.771
0
LINE
8
BLACK
6
CONTINUOUS
10
151.163
20
-147.771
11
151.163
21
-147.771
0
LINE
8
BLACK
6
CONTINUOUS
10
151.163
20
-147.771
11
151.058
21
-147.809
0
LINE
8
BLACK
6
CONTINUOUS
10
151.058
20
-147.809
11
151.057
21
-147.809
0
LINE
8
BLACK
6
CONTINUOUS
10
151.057
20
-147.809
11
151.057
21
-147.809
0
LINE
8
BLACK
6
CONTINUOUS
10
151.057
20
-147.809
11
150.953
21
-147.84
0
LINE
8
BLACK
6
CONTINUOUS
10
150.953
20
-147.84
11
150.953
21
-147.84
0
LINE
8
BLACK
6
CONTINUOUS
10
150.953
20
-147.84
11
150.952
21
-147.841
0
LINE
8
BLACK
6
CONTINUOUS
10
150.952
20
-147.841
11
150.851
21
-147.866
0
LINE
8
BLACK
6
CONTINUOUS
10
150.851
20
-147.866
11
150.851
21
-147.866
0
LINE
8
BLACK
6
CONTINUOUS
10
150.851
20
-147.866
11
150.85
21
-147.867
0
LINE
8
BLACK
6
CONTINUOUS
10
150.85
20
-147.867
11
150.659
21
-147.903
0
LINE
8
BLACK
6
CONTINUOUS
10
150.659
20
-147.903
11
150.658
21
-147.903
0
LINE
8
BLACK
6
CONTINUOUS
10
150.658
20
-147.903
11
150.658
21
-147.903
0
LINE
8
BLACK
6
CONTINUOUS
10
150.658
20
-147.903
11
150.487
21
-147.924
0
LINE
8
BLACK
6
CONTINUOUS
10
150.487
20
-147.924
11
150.486
21
-147.923
0
LINE
8
BLACK
6
CONTINUOUS
10
150.486
20
-147.923
11
150.485
21
-147.924
0
LINE
8
BLACK
6
CONTINUOUS
10
150.485
20
-147.924
11
150.341
21
-147.932
0
LINE
8
BLACK
6
CONTINUOUS
10
150.341
20
-147.932
11
150.34
21
-147.932
0
LINE
8
BLACK
6
CONTINUOUS
10
150.34
20
-147.932
11
150.34
21
-147.932
0
LINE
8
BLACK
6
CONTINUOUS
10
150.34
20
-147.932
11
150.228
21
-147.933
0
LINE
8
BLACK
6
CONTINUOUS
10
150.228
20
-147.933
11
150.228
21
-147.932
0
LINE
8
BLACK
6
CONTINUOUS
10
150.228
20
-147.932
11
150.227
21
-147.933
0
LINE
8
BLACK
6
CONTINUOUS
10
150.227
20
-147.933
11
150.13
21
-147.928
0
LINE
8
BLACK
6
CONTINUOUS
10
150.13
20
-147.928
11
135.197
21
-147.908
0
LINE
8
BLACK
6
CONTINUOUS
10
135.197
20
-147.908
11
135.196
21
-147.908
0
LINE
8
BLACK
6
CONTINUOUS
10
135.196
20
-147.908
11
135.196
21
-147.908
0
LINE
8
BLACK
6
CONTINUOUS
10
135.196
20
-147.908
11
134.524
21
-147.874
0
LINE
8
BLACK
6
CONTINUOUS
10
134.524
20
-147.874
11
134.523
21
-147.874
0
LINE
8
BLACK
6
CONTINUOUS
10
134.523
20
-147.874
11
134.522
21
-147.874
0
LINE
8
BLACK
6
CONTINUOUS
10
134.522
20
-147.874
11
133.789
21
-147.775
0
LINE
8
BLACK
6
CONTINUOUS
10
133.789
20
-147.775
11
133.788
21
-147.774
0
LINE
8
BLACK
6
CONTINUOUS
10
133.788
20
-147.774
11
133.788
21
-147.774
0
LINE
8
BLACK
6
CONTINUOUS
10
133.788
20
-147.774
11
132.995
21
-147.613
0
LINE
8
BLACK
6
CONTINUOUS
10
132.995
20
-147.613
11
132.995
21
-147.613
0
LINE
8
BLACK
6
CONTINUOUS
10
132.995
20
-147.613
11
132.994
21
-147.613
0
LINE
8
BLACK
6
CONTINUOUS
10
132.994
20
-147.613
11
132.143
21
-147.393
0
LINE
8
BLACK
6
CONTINUOUS
10
132.143
20
-147.393
11
132.143
21
-147.393
0
LINE
8
BLACK
6
CONTINUOUS
10
132.143
20
-147.393
11
132.143
21
-147.393
0
LINE
8
BLACK
6
CONTINUOUS
10
132.143
20
-147.393
11
131.236
21
-147.118
0
LINE
8
BLACK
6
CONTINUOUS
10
131.236
20
-147.118
11
131.236
21
-147.118
0
LINE
8
BLACK
6
CONTINUOUS
10
131.236
20
-147.118
11
131.235
21
-147.118
0
LINE
8
BLACK
6
CONTINUOUS
10
131.235
20
-147.118
11
130.274
21
-146.791
0
LINE
8
BLACK
6
CONTINUOUS
10
130.274
20
-146.791
11
130.273
21
-146.791
0
LINE
8
BLACK
6
CONTINUOUS
10
130.273
20
-146.791
11
130.273
21
-146.791
0
LINE
8
BLACK
6
CONTINUOUS
10
130.273
20
-146.791
11
128.193
21
-145.996
0
LINE
8
BLACK
6
CONTINUOUS
10
128.193
20
-145.996
11
128.193
21
-145.995
0
LINE
8
BLACK
6
CONTINUOUS
10
128.193
20
-145.995
11
128.192
21
-145.995
0
LINE
8
BLACK
6
CONTINUOUS
10
128.192
20
-145.995
11
125.914
21
-145.034
0
LINE
8
BLACK
6
CONTINUOUS
10
125.914
20
-145.034
11
125.914
21
-145.034
0
LINE
8
BLACK
6
CONTINUOUS
10
125.914
20
-145.034
11
125.913
21
-145.034
0
LINE
8
BLACK
6
CONTINUOUS
10
125.913
20
-145.034
11
123.45
21
-143.935
0
LINE
8
BLACK
6
CONTINUOUS
10
123.45
20
-143.935
11
123.449
21
-143.935
0
LINE
8
BLACK
6
CONTINUOUS
10
123.449
20
-143.935
11
123.449
21
-143.935
0
LINE
8
BLACK
6
CONTINUOUS
10
123.449
20
-143.935
11
118.019
21
-141.43
0
LINE
8
BLACK
6
CONTINUOUS
10
118.019
20
-141.43
11
115.318
21
-140.197
0
LINE
8
BLACK
6
CONTINUOUS
10
115.318
20
-140.197
11
112.906
21
-139.133
0
LINE
8
BLACK
6
CONTINUOUS
10
112.906
20
-139.133
11
110.717
21
-138.206
0
LINE
8
BLACK
6
CONTINUOUS
10
110.717
20
-138.206
11
108.684
21
-137.385
0
LINE
8
BLACK
6
CONTINUOUS
10
108.684
20
-137.385
11
106.739
21
-136.641
0
LINE
8
BLACK
6
CONTINUOUS
10
106.739
20
-136.641
11
104.816
21
-135.942
0
LINE
8
BLACK
6
CONTINUOUS
10
104.816
20
-135.942
11
102.846
21
-135.256
0
LINE
8
BLACK
6
CONTINUOUS
10
102.846
20
-135.256
11
100.764
21
-134.554
0
LINE
8
BLACK
6
CONTINUOUS
10
100.764
20
-134.554
11
100.23
21
-134.381
0
LINE
8
BLACK
6
CONTINUOUS
10
100.23
20
-134.381
11
99.7099
21
-134.219
0
LINE
8
BLACK
6
CONTINUOUS
10
99.7099
20
-134.219
11
98.7096
21
-133.93
0
LINE
8
BLACK
6
CONTINUOUS
10
98.7096
20
-133.93
11
97.7652
21
-133.684
0
LINE
8
BLACK
6
CONTINUOUS
10
97.7652
20
-133.684
11
96.8785
21
-133.477
0
LINE
8
BLACK
6
CONTINUOUS
10
96.8785
20
-133.477
11
96.0514
21
-133.307
0
LINE
8
BLACK
6
CONTINUOUS
10
96.0514
20
-133.307
11
95.286
21
-133.17
0
LINE
8
BLACK
6
CONTINUOUS
10
95.286
20
-133.17
11
94.5841
21
-133.061
0
LINE
8
BLACK
6
CONTINUOUS
10
94.5841
20
-133.061
11
93.9479
21
-132.979
0
LINE
8
BLACK
6
CONTINUOUS
10
93.9479
20
-132.979
11
93.3792
21
-132.92
0
LINE
8
BLACK
6
CONTINUOUS
10
93.3792
20
-132.92
11
92.88
21
-132.879
0
LINE
8
BLACK
6
CONTINUOUS
10
92.88
20
-132.879
11
92.4523
21
-132.854
0
LINE
8
BLACK
6
CONTINUOUS
10
92.4523
20
-132.854
11
92.098
21
-132.842
0
LINE
8
BLACK
6
CONTINUOUS
10
92.098
20
-132.842
11
91.6174
21
-132.839
0
LINE
8
BLACK
6
CONTINUOUS
10
91.6174
20
-132.839
11
91.4539
21
-132.844
0
LINE
8
BLACK
6
CONTINUOUS
10
91.4539
20
-132.844
11
91.4535
21
-132.844
0
LINE
8
BLACK
6
CONTINUOUS
10
91.4535
20
-132.844
11
91.4532
21
-132.844
0
LINE
8
BLACK
6
CONTINUOUS
10
91.4532
20
-132.844
11
14.8984
21
-132.844
0
LINE
8
BLACK
6
CONTINUOUS
10
14.8984
20
-132.844
11
14.8981
21
-132.844
0
LINE
8
BLACK
6
CONTINUOUS
10
14.8981
20
-132.844
11
14.8978
21
-132.844
0
LINE
8
BLACK
6
CONTINUOUS
10
14.8978
20
-132.844
11
14.667
21
-132.838
0
LINE
8
BLACK
6
CONTINUOUS
10
14.667
20
-132.838
11
14.6664
21
-132.838
0
LINE
8
BLACK
6
CONTINUOUS
10
14.6664
20
-132.838
11
14.6657
21
-132.838
0
LINE
8
BLACK
6
CONTINUOUS
10
14.6657
20
-132.838
11
14.4509
21
-132.819
0
LINE
8
BLACK
6
CONTINUOUS
10
14.4509
20
-132.819
11
14.4503
21
-132.819
0
LINE
8
BLACK
6
CONTINUOUS
10
14.4503
20
-132.819
11
14.4496
21
-132.819
0
LINE
8
BLACK
6
CONTINUOUS
10
14.4496
20
-132.819
11
14.2503
21
-132.788
0
LINE
8
BLACK
6
CONTINUOUS
10
14.2503
20
-132.788
11
14.2496
21
-132.788
0
LINE
8
BLACK
6
CONTINUOUS
10
14.2496
20
-132.788
11
14.2489
21
-132.788
0
LINE
8
BLACK
6
CONTINUOUS
10
14.2489
20
-132.788
11
14.0644
21
-132.747
0
LINE
8
BLACK
6
CONTINUOUS
10
14.0644
20
-132.747
11
14.0638
21
-132.746
0
LINE
8
BLACK
6
CONTINUOUS
10
14.0638
20
-132.746
11
14.063
21
-132.746
0
LINE
8
BLACK
6
CONTINUOUS
10
14.063
20
-132.746
11
13.8929
21
-132.695
0
LINE
8
BLACK
6
CONTINUOUS
10
13.8929
20
-132.695
11
13.8922
21
-132.694
0
LINE
8
BLACK
6
CONTINUOUS
10
13.8922
20
-132.694
11
13.8914
21
-132.695
0
LINE
8
BLACK
6
CONTINUOUS
10
13.8914
20
-132.695
11
13.735
21
-132.634
0
LINE
8
BLACK
6
CONTINUOUS
10
13.735
20
-132.634
11
13.7344
21
-132.634
0
LINE
8
BLACK
6
CONTINUOUS
10
13.7344
20
-132.634
11
13.7335
21
-132.633
0
LINE
8
BLACK
6
CONTINUOUS
10
13.7335
20
-132.633
11
13.5904
21
-132.565
0
LINE
8
BLACK
6
CONTINUOUS
10
13.5904
20
-132.565
11
13.5898
21
-132.564
0
LINE
8
BLACK
6
CONTINUOUS
10
13.5898
20
-132.564
11
13.5889
21
-132.564
0
LINE
8
BLACK
6
CONTINUOUS
10
13.5889
20
-132.564
11
13.4584
21
-132.488
0
LINE
8
BLACK
6
CONTINUOUS
10
13.4584
20
-132.488
11
13.4578
21
-132.487
0
LINE
8
BLACK
6
CONTINUOUS
10
13.4578
20
-132.487
11
13.4569
21
-132.487
0
LINE
8
BLACK
6
CONTINUOUS
10
13.4569
20
-132.487
11
13.3384
21
-132.404
0
LINE
8
BLACK
6
CONTINUOUS
10
13.3384
20
-132.404
11
13.338
21
-132.403
0
LINE
8
BLACK
6
CONTINUOUS
10
13.338
20
-132.403
11
13.3371
21
-132.403
0
LINE
8
BLACK
6
CONTINUOUS
10
13.3371
20
-132.403
11
13.2301
21
-132.315
0
LINE
8
BLACK
6
CONTINUOUS
10
13.2301
20
-132.315
11
13.2297
21
-132.314
0
LINE
8
BLACK
6
CONTINUOUS
10
13.2297
20
-132.314
11
13.2288
21
-132.313
0
LINE
8
BLACK
6
CONTINUOUS
10
13.2288
20
-132.313
11
13.1327
21
-132.22
0
LINE
8
BLACK
6
CONTINUOUS
10
13.1327
20
-132.22
11
13.1324
21
-132.219
0
LINE
8
BLACK
6
CONTINUOUS
10
13.1324
20
-132.219
11
13.1316
21
-132.219
0
LINE
8
BLACK
6
CONTINUOUS
10
13.1316
20
-132.219
11
13.0458
21
-132.121
0
LINE
8
BLACK
6
CONTINUOUS
10
13.0458
20
-132.121
11
13.0455
21
-132.12
0
LINE
8
BLACK
6
CONTINUOUS
10
13.0455
20
-132.12
11
13.0448
21
-132.12
0
LINE
8
BLACK
6
CONTINUOUS
10
13.0448
20
-132.12
11
12.9688
21
-132.019
0
LINE
8
BLACK
6
CONTINUOUS
10
12.9688
20
-132.019
11
12.9686
21
-132.018
0
LINE
8
BLACK
6
CONTINUOUS
10
12.9686
20
-132.018
11
12.9679
21
-132.018
0
LINE
8
BLACK
6
CONTINUOUS
10
12.9679
20
-132.018
11
12.9011
21
-131.914
0
LINE
8
BLACK
6
CONTINUOUS
10
12.9011
20
-131.914
11
12.9009
21
-131.913
0
LINE
8
BLACK
6
CONTINUOUS
10
12.9009
20
-131.913
11
12.9003
21
-131.913
0
LINE
8
BLACK
6
CONTINUOUS
10
12.9003
20
-131.913
11
12.8421
21
-131.808
0
LINE
8
BLACK
6
CONTINUOUS
10
12.8421
20
-131.808
11
12.842
21
-131.807
0
LINE
8
BLACK
6
CONTINUOUS
10
12.842
20
-131.807
11
12.8415
21
-131.807
0
LINE
8
BLACK
6
CONTINUOUS
10
12.8415
20
-131.807
11
12.7913
21
-131.701
0
LINE
8
BLACK
6
CONTINUOUS
10
12.7913
20
-131.701
11
12.7913
21
-131.7
0
LINE
8
BLACK
6
CONTINUOUS
10
12.7913
20
-131.7
11
12.7908
21
-131.699
0
LINE
8
BLACK
6
CONTINUOUS
10
12.7908
20
-131.699
11
12.7481
21
-131.593
0
LINE
8
BLACK
6
CONTINUOUS
10
12.7481
20
-131.593
11
12.7481
21
-131.593
0
LINE
8
BLACK
6
CONTINUOUS
10
12.7481
20
-131.593
11
12.7477
21
-131.592
0
LINE
8
BLACK
6
CONTINUOUS
10
12.7477
20
-131.592
11
12.7119
21
-131.487
0
LINE
8
BLACK
6
CONTINUOUS
10
12.7119
20
-131.487
11
12.7119
21
-131.487
0
LINE
8
BLACK
6
CONTINUOUS
10
12.7119
20
-131.487
11
12.7116
21
-131.486
0
LINE
8
BLACK
6
CONTINUOUS
10
12.7116
20
-131.486
11
12.6821
21
-131.383
0
LINE
8
BLACK
6
CONTINUOUS
10
12.6821
20
-131.383
11
12.6821
21
-131.382
0
LINE
8
BLACK
6
CONTINUOUS
10
12.6821
20
-131.382
11
12.6818
21
-131.382
0
LINE
8
BLACK
6
CONTINUOUS
10
12.6818
20
-131.382
11
12.6581
21
-131.281
0
LINE
8
BLACK
6
CONTINUOUS
10
12.6581
20
-131.281
11
12.6582
21
-131.28
0
LINE
8
BLACK
6
CONTINUOUS
10
12.6582
20
-131.28
11
12.6578
21
-131.279
0
LINE
8
BLACK
6
CONTINUOUS
10
12.6578
20
-131.279
11
12.6253
21
-131.088
0
LINE
8
BLACK
6
CONTINUOUS
10
12.6253
20
-131.088
11
12.6255
21
-131.087
0
LINE
8
BLACK
6
CONTINUOUS
10
12.6255
20
-131.087
11
12.6251
21
-131.087
0
LINE
8
BLACK
6
CONTINUOUS
10
12.6251
20
-131.087
11
12.6088
21
-130.915
0
LINE
8
BLACK
6
CONTINUOUS
10
12.6088
20
-130.915
11
12.609
21
-130.915
0
LINE
8
BLACK
6
CONTINUOUS
10
12.609
20
-130.915
11
12.6087
21
-130.914
0
LINE
8
BLACK
6
CONTINUOUS
10
12.6087
20
-130.914
11
12.604
21
-130.769
0
LINE
8
BLACK
6
CONTINUOUS
10
12.604
20
-130.769
11
12.6042
21
-130.769
0
LINE
8
BLACK
6
CONTINUOUS
10
12.6042
20
-130.769
11
12.604
21
-130.768
0
LINE
8
BLACK
6
CONTINUOUS
10
12.604
20
-130.768
11
12.6063
21
-130.656
0
LINE
8
BLACK
6
CONTINUOUS
10
12.6063
20
-130.656
11
12.6065
21
-130.656
0
LINE
8
BLACK
6
CONTINUOUS
10
12.6065
20
-130.656
11
12.6063
21
-130.655
0
LINE
8
BLACK
6
CONTINUOUS
10
12.6063
20
-130.655
11
12.6136
21
-130.559
0
LINE
8
BLACK
6
CONTINUOUS
10
12.6136
20
-130.559
11
12.6136
21
-13.3202
0
LINE
8
BLACK
6
CONTINUOUS
10
12.6136
20
-13.3202
11
12.6137
21
-13.3199
0
LINE
8
BLACK
6
CONTINUOUS
10
12.6137
20
-13.3199
11
12.6136
21
-13.3196
0
LINE
8
BLACK
6
CONTINUOUS
10
12.6136
20
-13.3196
11
12.6201
21
-13.0804
0
LINE
8
BLACK
6
CONTINUOUS
10
12.6201
20
-13.0804
11
12.6203
21
-13.0798
0
LINE
8
BLACK
6
CONTINUOUS
10
12.6203
20
-13.0798
11
12.6201
21
-13.0792
0
LINE
8
BLACK
6
CONTINUOUS
10
12.6201
20
-13.0792
11
12.6391
21
-12.857
0
LINE
8
BLACK
6
CONTINUOUS
10
12.6391
20
-12.857
11
12.6394
21
-12.8564
0
LINE
8
BLACK
6
CONTINUOUS
10
12.6394
20
-12.8564
11
12.6392
21
-12.8557
0
LINE
8
BLACK
6
CONTINUOUS
10
12.6392
20
-12.8557
11
12.6697
21
-12.6501
0
LINE
8
BLACK
6
CONTINUOUS
10
12.6697
20
-12.6501
11
12.6701
21
-12.6495
0
LINE
8
BLACK
6
CONTINUOUS
10
12.6701
20
-12.6495
11
12.67
21
-12.6487
0
LINE
8
BLACK
6
CONTINUOUS
10
12.67
20
-12.6487
11
12.7113
21
-12.4589
0
LINE
8
BLACK
6
CONTINUOUS
10
12.7113
20
-12.4589
11
12.7118
21
-12.4583
0
LINE
8
BLACK
6
CONTINUOUS
10
12.7118
20
-12.4583
11
12.7117
21
-12.4575
0
LINE
8
BLACK
6
CONTINUOUS
10
12.7117
20
-12.4575
11
12.763
21
-12.2829
0
LINE
8
BLACK
6
CONTINUOUS
10
12.763
20
-12.2829
11
12.7635
21
-12.2823
0
LINE
8
BLACK
6
CONTINUOUS
10
12.7635
20
-12.2823
11
12.7634
21
-12.2815
0
LINE
8
BLACK
6
CONTINUOUS
10
12.7634
20
-12.2815
11
12.8238
21
-12.1215
0
LINE
8
BLACK
6
CONTINUOUS
10
12.8238
20
-12.1215
11
12.8244
21
-12.1209
0
LINE
8
BLACK
6
CONTINUOUS
10
12.8244
20
-12.1209
11
12.8245
21
-12.12
0
LINE
8
BLACK
6
CONTINUOUS
10
12.8245
20
-12.12
11
12.8932
21
-11.9741
0
LINE
8
BLACK
6
CONTINUOUS
10
12.8932
20
-11.9741
11
12.8938
21
-11.9735
0
LINE
8
BLACK
6
CONTINUOUS
10
12.8938
20
-11.9735
11
12.8939
21
-11.9726
0
LINE
8
BLACK
6
CONTINUOUS
10
12.8939
20
-11.9726
11
12.9701
21
-11.84
0
LINE
8
BLACK
6
CONTINUOUS
10
12.9701
20
-11.84
11
12.9708
21
-11.8395
0
LINE
8
BLACK
6
CONTINUOUS
10
12.9708
20
-11.8395
11
12.971
21
-11.8386
0
LINE
8
BLACK
6
CONTINUOUS
10
12.971
20
-11.8386
11
13.0538
21
-11.7187
0
LINE
8
BLACK
6
CONTINUOUS
10
13.0538
20
-11.7187
11
13.0546
21
-11.7182
0
LINE
8
BLACK
6
CONTINUOUS
10
13.0546
20
-11.7182
11
13.0548
21
-11.7173
0
LINE
8
BLACK
6
CONTINUOUS
10
13.0548
20
-11.7173
11
13.1434
21
-11.6096
0
LINE
8
BLACK
6
CONTINUOUS
10
13.1434
20
-11.6096
11
13.1442
21
-11.6092
0
LINE
8
BLACK
6
CONTINUOUS
10
13.1442
20
-11.6092
11
13.1445
21
-11.6083
0
LINE
8
BLACK
6
CONTINUOUS
10
13.1445
20
-11.6083
11
13.2381
21
-11.5121
0
LINE
8
BLACK
6
CONTINUOUS
10
13.2381
20
-11.5121
11
13.2389
21
-11.5118
0
LINE
8
BLACK
6
CONTINUOUS
10
13.2389
20
-11.5118
11
13.2393
21
-11.511
0
LINE
8
BLACK
6
CONTINUOUS
10
13.2393
20
-11.511
11
13.337
21
-11.4256
0
LINE
8
BLACK
6
CONTINUOUS
10
13.337
20
-11.4256
11
13.3379
21
-11.4253
0
LINE
8
BLACK
6
CONTINUOUS
10
13.3379
20
-11.4253
11
13.3383
21
-11.4246
0
LINE
8
BLACK
6
CONTINUOUS
10
13.3383
20
-11.4246
11
13.4393
21
-11.3495
0
LINE
8
BLACK
6
CONTINUOUS
10
13.4393
20
-11.3495
11
13.4401
21
-11.3493
0
LINE
8
BLACK
6
CONTINUOUS
10
13.4401
20
-11.3493
11
13.4406
21
-11.3486
0
LINE
8
BLACK
6
CONTINUOUS
10
13.4406
20
-11.3486
11
13.5441
21
-11.2831
0
LINE
8
BLACK
6
CONTINUOUS
10
13.5441
20
-11.2831
11
13.5449
21
-11.283
0
LINE
8
BLACK
6
CONTINUOUS
10
13.5449
20
-11.283
11
13.5454
21
-11.2824
0
LINE
8
BLACK
6
CONTINUOUS
10
13.5454
20
-11.2824
11
13.6505
21
-11.2259
0
LINE
8
BLACK
6
CONTINUOUS
10
13.6505
20
-11.2259
11
13.6513
21
-11.2258
0
LINE
8
BLACK
6
CONTINUOUS
10
13.6513
20
-11.2258
11
13.6518
21
-11.2253
0
LINE
8
BLACK
6
CONTINUOUS
10
13.6518
20
-11.2253
11
13.7578
21
-11.1772
0
LINE
8
BLACK
6
CONTINUOUS
10
13.7578
20
-11.1772
11
13.7585
21
-11.1772
0
LINE
8
BLACK
6
CONTINUOUS
10
13.7585
20
-11.1772
11
13.759
21
-11.1767
0
LINE
8
BLACK
6
CONTINUOUS
10
13.759
20
-11.1767
11
13.865
21
-11.1363
0
LINE
8
BLACK
6
CONTINUOUS
10
13.865
20
-11.1363
11
13.8656
21
-11.1363
0
LINE
8
BLACK
6
CONTINUOUS
10
13.8656
20
-11.1363
11
13.8661
21
-11.1359
0
LINE
8
BLACK
6
CONTINUOUS
10
13.8661
20
-11.1359
11
13.9713
21
-11.1027
0
LINE
8
BLACK
6
CONTINUOUS
10
13.9713
20
-11.1027
11
13.9718
21
-11.1028
0
LINE
8
BLACK
6
CONTINUOUS
10
13.9718
20
-11.1028
11
13.9723
21
-11.1024
0
LINE
8
BLACK
6
CONTINUOUS
10
13.9723
20
-11.1024
11
14.0758
21
-11.0757
0
LINE
8
BLACK
6
CONTINUOUS
10
14.0758
20
-11.0757
11
14.0764
21
-11.0757
0
LINE
8
BLACK
6
CONTINUOUS
10
14.0764
20
-11.0757
11
14.0768
21
-11.0754
0
LINE
8
BLACK
6
CONTINUOUS
10
14.0768
20
-11.0754
11
14.1778
21
-11.0546
0
LINE
8
BLACK
6
CONTINUOUS
10
14.1778
20
-11.0546
11
14.1785
21
-11.0547
0
LINE
8
BLACK
6
CONTINUOUS
10
14.1785
20
-11.0547
11
14.1792
21
-11.0544
0
LINE
8
BLACK
6
CONTINUOUS
10
14.1792
20
-11.0544
11
14.3704
21
-11.0278
0
LINE
8
BLACK
6
CONTINUOUS
10
14.3704
20
-11.0278
11
14.3712
21
-11.028
0
LINE
8
BLACK
6
CONTINUOUS
10
14.3712
20
-11.028
11
14.372
21
-11.0276
0
LINE
8
BLACK
6
CONTINUOUS
10
14.372
20
-11.0276
11
14.5434
21
-11.0171
0
LINE
8
BLACK
6
CONTINUOUS
10
14.5434
20
-11.0171
11
14.544
21
-11.0173
0
LINE
8
BLACK
6
CONTINUOUS
10
14.544
20
-11.0173
11
14.5447
21
-11.0171
0
LINE
8
BLACK
6
CONTINUOUS
10
14.5447
20
-11.0171
11
14.6895
21
-11.0176
0
LINE
8
BLACK
6
CONTINUOUS
10
14.3753
20
-11.0688
11
14.1855
21
-11.0952
0
LINE
8
BLACK
6
CONTINUOUS
10
14.1855
20
-11.0952
11
14.0856
21
-11.1158
0
LINE
8
BLACK
6
CONTINUOUS
10
14.0856
20
-11.1158
11
13.9832
21
-11.1422
0
LINE
8
BLACK
6
CONTINUOUS
10
13.9832
20
-11.1422
11
13.8791
21
-11.1751
0
LINE
8
BLACK
6
CONTINUOUS
10
13.8791
20
-11.1751
11
13.7743
21
-11.215
0
LINE
8
BLACK
6
CONTINUOUS
10
13.7743
20
-11.215
11
13.6695
21
-11.2626
0
LINE
8
BLACK
6
CONTINUOUS
10
13.6695
20
-11.2626
11
13.5656
21
-11.3184
0
LINE
8
BLACK
6
CONTINUOUS
10
13.5656
20
-11.3184
11
13.4633
21
-11.3831
0
LINE
8
BLACK
6
CONTINUOUS
10
13.4633
20
-11.3831
11
13.3636
21
-11.4572
0
LINE
8
BLACK
6
CONTINUOUS
10
13.3636
20
-11.4572
11
13.2671
21
-11.5415
0
LINE
8
BLACK
6
CONTINUOUS
10
13.2671
20
-11.5415
11
13.1747
21
-11.6365
0
LINE
8
BLACK
6
CONTINUOUS
10
13.1747
20
-11.6365
11
13.0873
21
-11.7429
0
LINE
8
BLACK
6
CONTINUOUS
10
13.0873
20
-11.7429
11
13.0055
21
-11.8613
0
LINE
8
BLACK
6
CONTINUOUS
10
13.0055
20
-11.8613
11
12.9302
21
-11.9924
0
LINE
8
BLACK
6
CONTINUOUS
10
12.9302
20
-11.9924
11
12.8622
21
-12.1369
0
LINE
8
BLACK
6
CONTINUOUS
10
12.8622
20
-12.1369
11
12.8023
21
-12.2953
0
LINE
8
BLACK
6
CONTINUOUS
10
12.8023
20
-12.2953
11
12.7515
21
-12.4684
0
LINE
8
BLACK
6
CONTINUOUS
10
12.7515
20
-12.4684
11
12.7105
21
-12.6568
0
LINE
8
BLACK
6
CONTINUOUS
10
12.7105
20
-12.6568
11
12.6801
21
-12.8612
0
LINE
8
BLACK
6
CONTINUOUS
10
12.6801
20
-12.8612
11
12.6613
21
-13.0821
0
LINE
8
BLACK
6
CONTINUOUS
10
12.6613
20
-13.0821
11
12.6548
21
-13.3204
0
LINE
8
BLACK
6
CONTINUOUS
10
12.6548
20
-13.3204
11
12.6548
21
-130.56
0
LINE
8
BLACK
6
CONTINUOUS
10
12.6548
20
-130.56
11
12.6545
21
-130.56
0
LINE
8
BLACK
6
CONTINUOUS
10
12.6545
20
-130.56
11
12.6548
21
-130.561
0
LINE
8
BLACK
6
CONTINUOUS
10
12.6548
20
-130.561
11
12.6475
21
-130.658
0
LINE
8
BLACK
6
CONTINUOUS
10
12.6475
20
-130.658
11
12.6453
21
-130.768
0
LINE
8
BLACK
6
CONTINUOUS
10
12.6453
20
-130.768
11
12.65
21
-130.912
0
LINE
8
BLACK
6
CONTINUOUS
10
12.65
20
-130.912
11
12.6662
21
-131.082
0
LINE
8
BLACK
6
CONTINUOUS
10
12.6662
20
-131.082
11
12.6984
21
-131.272
0
LINE
8
BLACK
6
CONTINUOUS
10
12.6984
20
-131.272
11
12.7219
21
-131.372
0
LINE
8
BLACK
6
CONTINUOUS
10
12.7219
20
-131.372
11
12.7511
21
-131.474
0
LINE
8
BLACK
6
CONTINUOUS
10
12.7511
20
-131.474
11
12.7866
21
-131.579
0
LINE
8
BLACK
6
CONTINUOUS
10
12.7866
20
-131.579
11
12.8289
21
-131.683
0
LINE
8
BLACK
6
CONTINUOUS
10
12.8289
20
-131.683
11
12.8785
21
-131.788
0
LINE
8
BLACK
6
CONTINUOUS
10
12.8785
20
-131.788
11
12.9361
21
-131.892
0
LINE
8
BLACK
6
CONTINUOUS
10
12.9361
20
-131.892
11
13.0022
21
-131.995
0
LINE
8
BLACK
6
CONTINUOUS
10
13.0022
20
-131.995
11
13.0773
21
-132.094
0
LINE
8
BLACK
6
CONTINUOUS
10
13.0773
20
-132.094
11
13.1621
21
-132.191
0
LINE
8
BLACK
6
CONTINUOUS
10
13.1621
20
-132.191
11
13.257
21
-132.283
0
LINE
8
BLACK
6
CONTINUOUS
10
13.257
20
-132.283
11
13.3628
21
-132.371
0
LINE
8
BLACK
6
CONTINUOUS
10
13.3628
20
-132.371
11
13.4799
21
-132.453
0
LINE
8
BLACK
6
CONTINUOUS
10
13.4799
20
-132.453
11
13.609
21
-132.528
0
LINE
8
BLACK
6
CONTINUOUS
10
13.609
20
-132.528
11
13.7507
21
-132.596
0
LINE
8
BLACK
6
CONTINUOUS
10
13.7507
20
-132.596
11
13.9055
21
-132.656
0
LINE
8
BLACK
6
CONTINUOUS
10
13.9055
20
-132.656
11
14.0742
21
-132.707
0
LINE
8
BLACK
6
CONTINUOUS
10
14.0742
20
-132.707
11
14.2572
21
-132.748
0
LINE
8
BLACK
6
CONTINUOUS
10
14.2572
20
-132.748
11
14.4552
21
-132.778
0
LINE
8
BLACK
6
CONTINUOUS
10
14.4552
20
-132.778
11
14.6687
21
-132.797
0
LINE
8
BLACK
6
CONTINUOUS
10
14.6687
20
-132.797
11
14.8987
21
-132.803
0
LINE
8
BLACK
6
CONTINUOUS
10
14.8987
20
-132.803
11
91.4529
21
-132.803
0
LINE
8
BLACK
6
CONTINUOUS
10
91.4529
20
-132.803
11
91.6165
21
-132.798
0
LINE
8
BLACK
6
CONTINUOUS
10
91.6165
20
-132.798
11
91.6169
21
-132.798
0
LINE
8
BLACK
6
CONTINUOUS
10
91.6169
20
-132.798
11
91.6173
21
-132.798
0
LINE
8
BLACK
6
CONTINUOUS
10
91.6173
20
-132.798
11
92.0986
21
-132.8
0
LINE
8
BLACK
6
CONTINUOUS
10
92.0986
20
-132.8
11
92.0989
21
-132.8
0
LINE
8
BLACK
6
CONTINUOUS
10
92.0989
20
-132.8
11
92.0992
21
-132.8
0
LINE
8
BLACK
6
CONTINUOUS
10
92.0992
20
-132.8
11
92.454
21
-132.813
0
LINE
8
BLACK
6
CONTINUOUS
10
92.454
20
-132.813
11
92.4542
21
-132.813
0
LINE
8
BLACK
6
CONTINUOUS
10
92.4542
20
-132.813
11
92.4544
21
-132.813
0
LINE
8
BLACK
6
CONTINUOUS
10
92.4544
20
-132.813
11
92.8826
21
-132.838
0
LINE
8
BLACK
6
CONTINUOUS
10
92.8826
20
-132.838
11
92.8829
21
-132.838
0
LINE
8
BLACK
6
CONTINUOUS
10
92.8829
20
-132.838
11
92.8831
21
-132.838
0
LINE
8
BLACK
6
CONTINUOUS
10
92.8831
20
-132.838
11
93.3828
21
-132.879
0
LINE
8
BLACK
6
CONTINUOUS
10
93.3828
20
-132.879
11
93.383
21
-132.879
0
LINE
8
BLACK
6
CONTINUOUS
10
93.383
20
-132.879
11
93.3833
21
-132.879
0
LINE
8
BLACK
6
CONTINUOUS
10
93.3833
20
-132.879
11
93.9525
21
-132.938
0
LINE
8
BLACK
6
CONTINUOUS
10
93.9525
20
-132.938
11
93.9527
21
-132.938
0
LINE
8
BLACK
6
CONTINUOUS
10
93.9527
20
-132.938
11
93.953
21
-132.938
0
LINE
8
BLACK
6
CONTINUOUS
10
93.953
20
-132.938
11
94.5897
21
-133.021
0
LINE
8
BLACK
6
CONTINUOUS
10
94.5897
20
-133.021
11
94.5899
21
-133.021
0
LINE
8
BLACK
6
CONTINUOUS
10
94.5899
20
-133.021
11
94.5902
21
-133.021
0
LINE
8
BLACK
6
CONTINUOUS
10
94.5902
20
-133.021
11
95.2925
21
-133.129
0
LINE
8
BLACK
6
CONTINUOUS
10
95.2925
20
-133.129
11
95.2928
21
-133.129
0
LINE
8
BLACK
6
CONTINUOUS
10
95.2928
20
-133.129
11
95.293
21
-133.129
0
LINE
8
BLACK
6
CONTINUOUS
10
95.293
20
-133.129
11
96.059
21
-133.266
0
LINE
8
BLACK
6
CONTINUOUS
10
96.059
20
-133.266
11
96.0592
21
-133.266
0
LINE
8
BLACK
6
CONTINUOUS
10
96.0592
20
-133.266
11
96.0595
21
-133.266
0
LINE
8
BLACK
6
CONTINUOUS
10
96.0595
20
-133.266
11
96.887
21
-133.437
0
LINE
8
BLACK
6
CONTINUOUS
10
96.887
20
-133.437
11
96.8873
21
-133.437
0
LINE
8
BLACK
6
CONTINUOUS
10
96.8873
20
-133.437
11
96.8876
21
-133.437
0
LINE
8
BLACK
6
CONTINUOUS
10
96.8876
20
-133.437
11
97.7748
21
-133.643
0
LINE
8
BLACK
6
CONTINUOUS
10
97.7748
20
-133.643
11
97.775
21
-133.644
0
LINE
8
BLACK
6
CONTINUOUS
10
97.775
20
-133.644
11
97.7753
21
-133.644
0
LINE
8
BLACK
6
CONTINUOUS
10
97.7753
20
-133.644
11
98.7203
21
-133.89
0
LINE
8
BLACK
6
CONTINUOUS
10
98.7203
20
-133.89
11
98.7205
21
-133.89
0
LINE
8
BLACK
6
CONTINUOUS
10
98.7205
20
-133.89
11
98.7208
21
-133.89
0
LINE
8
BLACK
6
CONTINUOUS
10
98.7208
20
-133.89
11
99.7215
21
-134.179
0
LINE
8
BLACK
6
CONTINUOUS
10
99.7215
20
-134.179
11
99.7217
21
-134.179
0
LINE
8
BLACK
6
CONTINUOUS
10
99.7217
20
-134.179
11
99.7219
21
-134.179
0
LINE
8
BLACK
6
CONTINUOUS
10
99.7219
20
-134.179
11
100.243
21
-134.341
0
LINE
8
BLACK
6
CONTINUOUS
10
100.243
20
-134.341
11
100.243
21
-134.341
0
LINE
8
BLACK
6
CONTINUOUS
10
100.243
20
-134.341
11
100.243
21
-134.341
0
LINE
8
BLACK
6
CONTINUOUS
10
100.243
20
-134.341
11
100.777
21
-134.515
0
LINE
8
BLACK
6
CONTINUOUS
10
100.777
20
-134.515
11
100.777
21
-134.515
0
LINE
8
BLACK
6
CONTINUOUS
10
100.777
20
-134.515
11
100.777
21
-134.515
0
LINE
8
BLACK
6
CONTINUOUS
10
100.777
20
-134.515
11
102.859
21
-135.217
0
LINE
8
BLACK
6
CONTINUOUS
10
102.859
20
-135.217
11
102.859
21
-135.217
0
LINE
8
BLACK
6
CONTINUOUS
10
102.859
20
-135.217
11
102.86
21
-135.217
0
LINE
8
BLACK
6
CONTINUOUS
10
102.86
20
-135.217
11
104.829
21
-135.903
0
LINE
8
BLACK
6
CONTINUOUS
10
104.829
20
-135.903
11
104.829
21
-135.903
0
LINE
8
BLACK
6
CONTINUOUS
10
104.829
20
-135.903
11
104.829
21
-135.903
0
LINE
8
BLACK
6
CONTINUOUS
10
104.829
20
-135.903
11
106.753
21
-136.602
0
LINE
8
BLACK
6
CONTINUOUS
10
106.753
20
-136.602
11
106.753
21
-136.602
0
LINE
8
BLACK
6
CONTINUOUS
10
106.753
20
-136.602
11
106.754
21
-136.602
0
LINE
8
BLACK
6
CONTINUOUS
10
106.754
20
-136.602
11
108.699
21
-137.347
0
LINE
8
BLACK
6
CONTINUOUS
10
108.699
20
-137.347
11
108.699
21
-137.347
0
LINE
8
BLACK
6
CONTINUOUS
10
108.699
20
-137.347
11
108.699
21
-137.347
0
LINE
8
BLACK
6
CONTINUOUS
10
108.699
20
-137.347
11
110.733
21
-138.167
0
LINE
8
BLACK
6
CONTINUOUS
10
110.733
20
-138.167
11
110.733
21
-138.168
0
LINE
8
BLACK
6
CONTINUOUS
10
110.733
20
-138.168
11
110.733
21
-138.168
0
LINE
8
BLACK
6
CONTINUOUS
10
110.733
20
-138.168
11
112.922
21
-139.095
0
LINE
8
BLACK
6
CONTINUOUS
10
112.922
20
-139.095
11
112.922
21
-139.095
0
LINE
8
BLACK
6
CONTINUOUS
10
112.922
20
-139.095
11
112.922
21
-139.095
0
LINE
8
BLACK
6
CONTINUOUS
10
112.922
20
-139.095
11
115.334
21
-140.159
0
LINE
8
BLACK
6
CONTINUOUS
10
115.334
20
-140.159
11
115.334
21
-140.159
0
LINE
8
BLACK
6
CONTINUOUS
10
115.334
20
-140.159
11
115.335
21
-140.159
0
LINE
8
BLACK
6
CONTINUOUS
10
115.335
20
-140.159
11
118.036
21
-141.392
0
LINE
8
BLACK
6
CONTINUOUS
10
118.036
20
-141.392
11
118.037
21
-141.392
0
LINE
8
BLACK
6
CONTINUOUS
10
118.037
20
-141.392
11
118.037
21
-141.392
0
LINE
8
BLACK
6
CONTINUOUS
10
118.037
20
-141.392
11
123.467
21
-143.897
0
LINE
8
BLACK
6
CONTINUOUS
10
123.467
20
-143.897
11
125.93
21
-144.996
0
LINE
8
BLACK
6
CONTINUOUS
10
125.93
20
-144.996
11
128.208
21
-145.957
0
LINE
8
BLACK
6
CONTINUOUS
10
128.208
20
-145.957
11
130.287
21
-146.752
0
LINE
8
BLACK
6
CONTINUOUS
10
130.287
20
-146.752
11
131.248
21
-147.078
0
LINE
8
BLACK
6
CONTINUOUS
10
131.248
20
-147.078
11
132.154
21
-147.353
0
LINE
8
BLACK
6
CONTINUOUS
10
132.154
20
-147.353
11
133.004
21
-147.573
0
LINE
8
BLACK
6
CONTINUOUS
10
133.004
20
-147.573
11
133.795
21
-147.734
0
LINE
8
BLACK
6
CONTINUOUS
10
133.795
20
-147.734
11
134.527
21
-147.833
0
LINE
8
BLACK
6
CONTINUOUS
10
134.527
20
-147.833
11
135.197
21
-147.867
0
LINE
8
BLACK
6
CONTINUOUS
10
135.197
20
-147.867
11
150.131
21
-147.887
0
LINE
8
BLACK
6
CONTINUOUS
10
150.131
20
-147.887
11
150.131
21
-147.887
0
LINE
8
BLACK
6
CONTINUOUS
10
150.131
20
-147.887
11
150.132
21
-147.887
0
LINE
8
BLACK
6
CONTINUOUS
10
150.132
20
-147.887
11
150.228
21
-147.891
0
LINE
8
BLACK
6
CONTINUOUS
10
150.228
20
-147.891
11
150.339
21
-147.891
0
LINE
8
BLACK
6
CONTINUOUS
10
150.339
20
-147.891
11
150.482
21
-147.882
0
LINE
8
BLACK
6
CONTINUOUS
10
150.482
20
-147.882
11
150.652
21
-147.862
0
LINE
8
BLACK
6
CONTINUOUS
10
150.652
20
-147.862
11
150.842
21
-147.826
0
LINE
8
BLACK
6
CONTINUOUS
10
150.842
20
-147.826
11
150.942
21
-147.801
0
LINE
8
BLACK
6
CONTINUOUS
10
150.942
20
-147.801
11
151.044
21
-147.77
0
LINE
8
BLACK
6
CONTINUOUS
10
151.044
20
-147.77
11
151.148
21
-147.733
0
LINE
8
BLACK
6
CONTINUOUS
10
151.148
20
-147.733
11
151.253
21
-147.689
0
LINE
8
BLACK
6
CONTINUOUS
10
151.253
20
-147.689
11
151.358
21
-147.638
0
LINE
8
BLACK
6
CONTINUOUS
10
151.358
20
-147.638
11
151.462
21
-147.579
0
LINE
8
BLACK
6
CONTINUOUS
10
151.462
20
-147.579
11
151.564
21
-147.512
0
LINE
8
BLACK
6
CONTINUOUS
10
151.564
20
-147.512
11
151.664
21
-147.436
0
LINE
8
BLACK
6
CONTINUOUS
10
151.664
20
-147.436
11
151.76
21
-147.351
0
LINE
8
BLACK
6
CONTINUOUS
10
151.76
20
-147.351
11
151.852
21
-147.257
0
LINE
8
BLACK
6
CONTINUOUS
10
151.852
20
-147.257
11
151.94
21
-147.152
0
LINE
8
BLACK
6
CONTINUOUS
10
151.94
20
-147.152
11
152.021
21
-147.035
0
LINE
8
BLACK
6
CONTINUOUS
10
152.021
20
-147.035
11
152.097
21
-146.908
0
LINE
8
BLACK
6
CONTINUOUS
10
152.097
20
-146.908
11
152.164
21
-146.768
0
LINE
8
BLACK
6
CONTINUOUS
10
152.164
20
-146.768
11
152.224
21
-146.616
0
LINE
8
BLACK
6
CONTINUOUS
10
152.224
20
-146.616
11
152.275
21
-146.451
0
LINE
8
BLACK
6
CONTINUOUS
10
152.275
20
-146.451
11
152.316
21
-146.271
0
LINE
8
BLACK
6
CONTINUOUS
10
152.316
20
-146.271
11
152.346
21
-146.078
0
LINE
8
BLACK
6
CONTINUOUS
10
152.346
20
-146.078
11
152.365
21
-145.87
0
LINE
8
BLACK
6
CONTINUOUS
10
152.365
20
-145.87
11
152.371
21
-145.646
0
LINE
8
BLACK
6
CONTINUOUS
10
152.371
20
-145.646
11
152.371
21
-13.3743
0
LINE
8
BLACK
6
CONTINUOUS
10
152.371
20
-13.3743
11
152.372
21
-13.3731
0
LINE
8
BLACK
6
CONTINUOUS
10
152.372
20
-13.3731
11
152.372
21
-13.3718
0
LINE
8
BLACK
6
CONTINUOUS
10
152.372
20
-13.3718
11
152.383
21
-13.2764
0
LINE
8
BLACK
6
CONTINUOUS
10
152.383
20
-13.2764
11
152.391
21
-13.1674
0
LINE
8
BLACK
6
CONTINUOUS
10
152.391
20
-13.1674
11
152.392
21
-13.0257
0
LINE
8
BLACK
6
CONTINUOUS
10
152.392
20
-13.0257
11
152.383
21
-12.8582
0
LINE
8
BLACK
6
CONTINUOUS
10
152.383
20
-12.8582
11
152.359
21
-12.6709
0
LINE
8
BLACK
6
CONTINUOUS
10
152.359
20
-12.6709
11
152.339
21
-12.5725
0
LINE
8
BLACK
6
CONTINUOUS
10
152.339
20
-12.5725
11
152.314
21
-12.4714
0
LINE
8
BLACK
6
CONTINUOUS
10
152.314
20
-12.4714
11
152.282
21
-12.3687
0
LINE
8
BLACK
6
CONTINUOUS
10
152.282
20
-12.3687
11
152.243
21
-12.2654
0
LINE
8
BLACK
6
CONTINUOUS
10
152.243
20
-12.2654
11
152.197
21
-12.162
0
LINE
8
BLACK
6
CONTINUOUS
10
152.197
20
-12.162
11
152.142
21
-12.0595
0
LINE
8
BLACK
6
CONTINUOUS
10
152.142
20
-12.0595
11
152.078
21
-11.9587
0
LINE
8
BLACK
6
CONTINUOUS
10
152.078
20
-11.9587
11
152.006
21
-11.8603
0
LINE
8
BLACK
6
CONTINUOUS
10
152.006
20
-11.8603
11
151.923
21
-11.7652
0
LINE
8
BLACK
6
CONTINUOUS
10
151.923
20
-11.7652
11
151.829
21
-11.6741
0
LINE
8
BLACK
6
CONTINUOUS
10
151.829
20
-11.6741
11
151.724
21
-11.5878
0
LINE
8
BLACK
6
CONTINUOUS
10
151.724
20
-11.5878
11
151.607
21
-11.5071
0
LINE
8
BLACK
6
CONTINUOUS
10
151.607
20
-11.5071
11
151.477
21
-11.4329
0
LINE
8
BLACK
6
CONTINUOUS
10
151.477
20
-11.4329
11
151.334
21
-11.3658
0
LINE
8
BLACK
6
CONTINUOUS
10
151.334
20
-11.3658
11
151.177
21
-11.3068
0
LINE
8
BLACK
6
CONTINUOUS
10
151.177
20
-11.3068
11
151.005
21
-11.2566
0
LINE
8
BLACK
6
CONTINUOUS
10
151.005
20
-11.2566
11
150.818
21
-11.2162
0
LINE
8
BLACK
6
CONTINUOUS
10
150.818
20
-11.2162
11
150.615
21
-11.1862
0
LINE
8
BLACK
6
CONTINUOUS
10
150.615
20
-11.1862
11
150.395
21
-11.1677
0
LINE
8
BLACK
6
CONTINUOUS
10
150.395
20
-11.1677
11
150.158
21
-11.1613
0
LINE
8
BLACK
6
CONTINUOUS
10
150.158
20
-11.1613
11
18.7834
21
-11.0766
0
LINE
8
BLACK
6
CONTINUOUS
10
18.7834
20
-11.0766
11
18.7834
21
-11.0766
0
LINE
8
BLACK
6
CONTINUOUS
10
18.7834
20
-11.0766
11
18.7834
21
-11.0766
0
LINE
8
BLACK
6
CONTINUOUS
10
18.7834
20
-11.0766
11
14.8984
21
-11.0766
0
LINE
8
BLACK
6
CONTINUOUS
10
14.8984
20
-11.0766
11
14.8973
21
-11.0761
0
LINE
8
BLACK
6
CONTINUOUS
10
14.8973
20
-11.0761
11
14.8961
21
-11.0765
0
LINE
8
BLACK
6
CONTINUOUS
10
14.8961
20
-11.0765
11
14.7994
21
-11.0653
0
LINE
8
BLACK
6
CONTINUOUS
10
14.7994
20
-11.0653
11
14.6888
21
-11.0588
0
LINE
8
BLACK
6
CONTINUOUS
10
14.6888
20
-11.0588
11
14.5452
21
-11.0583
0
LINE
8
BLACK
6
CONTINUOUS
10
14.5452
20
-11.0583
11
14.3753
21
-11.0688
  0
ENDSEC
  0
EOF
