  0
SECTION
  2
HEADER
  9
$ANGBASE
  50
0.0
  9
$ANGDIR
  70
1
  9
$MEASUREMENT
  70
1
  0
ENDSEC
  0
SECTION
  2
TABLES
  0
TABLE
  2
LTYPE
  70
4
  0
LTYPE
  5
40F
  2
CONTINUOUS
  70
0
  3
Solid line
  72
65
  73
0
  40
0.0
  0
LTYPE
  5
410
  2
DASHDOT
 70
0
  3
Dash Dot ____ _ ____ _
 72
65
 73
4
 40
2.0
 49
1.25
 49
-0.25
 49
0.25
 49
-0.25
  0
LTYPE
  5
411
  2
DASHED
 70
0
  3
Dashed __ __ __ __ __
 72
65
 73
2
 40
0.75
 49
0.5
 49
-0.25
  0
LTYPE
  5
43B
  2
DOTTED
 70
0
  3
Dotted .  .  .  .
 72
65
 73
2
 40
0.2
 49
0.0
 49
-0.2
  0
ENDTAB
  0
TABLE
  2
STYLE
  70
4
  0
STYLE
  2
KICAD
  70
0
  40
0
  41
1
  42
1
  50
0
  71
0
  3
isocp.shx
  0
STYLE
  2
KICADB
  70
0
  40
0
  41
1
  42
1
  50
0
  71
0
  3
isocp.shx
  0
STYLE
  2
KICADI
  70
0
  40
0
  41
1
  42
1
  50
15
  71
0
  3
isocp.shx
  0
STYLE
  2
KICADBI
  70
0
  40
0
  41
1
  42
1
  50
15
  71
0
  3
isocp.shx
  0
ENDTAB
  0
TABLE
  2
LAYER
  70
1
  0
LAYER
  2
BLACK
  70
0
  62
7
  6
CONTINUOUS
  0
ENDTAB
  0
ENDSEC
  0
SECTION
  2
ENTITIES
0
LINE
8
BLACK
6
CONTINUOUS
10
122.968
20
-124.348
11
123.079
21
-124.405
0
LINE
8
BLACK
6
CONTINUOUS
10
123.079
20
-124.405
11
123.168
21
-124.494
0
LINE
8
BLACK
6
CONTINUOUS
10
123.168
20
-124.494
11
123.225
21
-124.605
0
LINE
8
BLACK
6
CONTINUOUS
10
123.225
20
-124.605
11
123.244
21
-124.729
0
LINE
8
BLACK
6
CONTINUOUS
10
123.244
20
-124.729
11
123.225
21
-124.852
0
LINE
8
BLACK
6
CONTINUOUS
10
123.225
20
-124.852
11
123.168
21
-124.964
0
LINE
8
BLACK
6
CONTINUOUS
10
123.168
20
-124.964
11
123.079
21
-125.052
0
LINE
8
BLACK
6
CONTINUOUS
10
123.079
20
-125.052
11
122.968
21
-125.109
0
LINE
8
BLACK
6
CONTINUOUS
10
122.968
20
-125.109
11
122.844
21
-125.129
0
LINE
8
BLACK
6
CONTINUOUS
10
122.844
20
-125.129
11
122.721
21
-125.109
0
LINE
8
BLACK
6
CONTINUOUS
10
122.721
20
-125.109
11
122.609
21
-125.052
0
LINE
8
BLACK
6
CONTINUOUS
10
122.609
20
-125.052
11
122.521
21
-124.964
0
LINE
8
BLACK
6
CONTINUOUS
10
122.521
20
-124.964
11
122.464
21
-124.852
0
LINE
8
BLACK
6
CONTINUOUS
10
122.464
20
-124.852
11
122.444
21
-124.729
0
LINE
8
BLACK
6
CONTINUOUS
10
122.444
20
-124.729
11
122.464
21
-124.605
0
LINE
8
BLACK
6
CONTINUOUS
10
122.464
20
-124.605
11
122.521
21
-124.494
0
LINE
8
BLACK
6
CONTINUOUS
10
122.521
20
-124.494
11
122.609
21
-124.405
0
LINE
8
BLACK
6
CONTINUOUS
10
122.609
20
-124.405
11
122.721
21
-124.348
0
LINE
8
BLACK
6
CONTINUOUS
10
122.721
20
-124.348
11
122.844
21
-124.329
0
LINE
8
BLACK
6
CONTINUOUS
10
122.844
20
-124.329
11
122.968
21
-124.348
0
LINE
8
BLACK
6
CONTINUOUS
10
111.124
20
-22.6196
11
111.235
21
-22.6764
0
LINE
8
BLACK
6
CONTINUOUS
10
111.235
20
-22.6764
11
111.324
21
-22.7649
0
LINE
8
BLACK
6
CONTINUOUS
10
111.324
20
-22.7649
11
111.38
21
-22.8764
0
LINE
8
BLACK
6
CONTINUOUS
10
111.38
20
-22.8764
11
111.4
21
-23
0
LINE
8
BLACK
6
CONTINUOUS
10
111.4
20
-23
11
111.38
21
-23.1236
0
LINE
8
BLACK
6
CONTINUOUS
10
111.38
20
-23.1236
11
111.324
21
-23.2351
0
LINE
8
BLACK
6
CONTINUOUS
10
111.324
20
-23.2351
11
111.235
21
-23.3236
0
LINE
8
BLACK
6
CONTINUOUS
10
111.235
20
-23.3236
11
111.124
21
-23.3804
0
LINE
8
BLACK
6
CONTINUOUS
10
111.124
20
-23.3804
11
111
21
-23.4
0
LINE
8
BLACK
6
CONTINUOUS
10
111
20
-23.4
11
110.876
21
-23.3804
0
LINE
8
BLACK
6
CONTINUOUS
10
110.876
20
-23.3804
11
110.823
21
-23.3534
0
LINE
8
BLACK
6
CONTINUOUS
10
110.823
20
-23.3534
11
110.125
21
-24.0518
0
LINE
8
BLACK
6
CONTINUOUS
10
110.125
20
-24.0518
11
110.125
21
-40.9482
0
LINE
8
BLACK
6
CONTINUOUS
10
110.125
20
-40.9482
11
110.823
21
-41.6466
0
LINE
8
BLACK
6
CONTINUOUS
10
110.823
20
-41.6466
11
110.876
21
-41.6196
0
LINE
8
BLACK
6
CONTINUOUS
10
110.876
20
-41.6196
11
111
21
-41.6
0
LINE
8
BLACK
6
CONTINUOUS
10
111
20
-41.6
11
111.124
21
-41.6196
0
LINE
8
BLACK
6
CONTINUOUS
10
111.124
20
-41.6196
11
111.235
21
-41.6764
0
LINE
8
BLACK
6
CONTINUOUS
10
111.235
20
-41.6764
11
111.324
21
-41.7649
0
LINE
8
BLACK
6
CONTINUOUS
10
111.324
20
-41.7649
11
111.38
21
-41.8764
0
LINE
8
BLACK
6
CONTINUOUS
10
111.38
20
-41.8764
11
111.4
21
-42
0
LINE
8
BLACK
6
CONTINUOUS
10
111.4
20
-42
11
111.38
21
-42.1236
0
LINE
8
BLACK
6
CONTINUOUS
10
111.38
20
-42.1236
11
111.324
21
-42.2351
0
LINE
8
BLACK
6
CONTINUOUS
10
111.324
20
-42.2351
11
111.235
21
-42.3236
0
LINE
8
BLACK
6
CONTINUOUS
10
111.235
20
-42.3236
11
111.124
21
-42.3804
0
LINE
8
BLACK
6
CONTINUOUS
10
111.124
20
-42.3804
11
111
21
-42.4
0
LINE
8
BLACK
6
CONTINUOUS
10
111
20
-42.4
11
110.876
21
-42.3804
0
LINE
8
BLACK
6
CONTINUOUS
10
110.876
20
-42.3804
11
110.823
21
-42.3534
0
LINE
8
BLACK
6
CONTINUOUS
10
110.823
20
-42.3534
11
110.125
21
-43.0518
0
LINE
8
BLACK
6
CONTINUOUS
10
110.125
20
-43.0518
11
110.125
21
-59.9482
0
LINE
8
BLACK
6
CONTINUOUS
10
110.125
20
-59.9482
11
110.823
21
-60.6466
0
LINE
8
BLACK
6
CONTINUOUS
10
110.823
20
-60.6466
11
110.876
21
-60.6196
0
LINE
8
BLACK
6
CONTINUOUS
10
110.876
20
-60.6196
11
111
21
-60.6
0
LINE
8
BLACK
6
CONTINUOUS
10
111
20
-60.6
11
111.124
21
-60.6196
0
LINE
8
BLACK
6
CONTINUOUS
10
111.124
20
-60.6196
11
111.235
21
-60.6764
0
LINE
8
BLACK
6
CONTINUOUS
10
111.235
20
-60.6764
11
111.324
21
-60.7649
0
LINE
8
BLACK
6
CONTINUOUS
10
111.324
20
-60.7649
11
111.38
21
-60.8764
0
LINE
8
BLACK
6
CONTINUOUS
10
111.38
20
-60.8764
11
111.4
21
-61
0
LINE
8
BLACK
6
CONTINUOUS
10
111.4
20
-61
11
111.38
21
-61.1236
0
LINE
8
BLACK
6
CONTINUOUS
10
111.38
20
-61.1236
11
111.324
21
-61.2351
0
LINE
8
BLACK
6
CONTINUOUS
10
111.324
20
-61.2351
11
111.235
21
-61.3236
0
LINE
8
BLACK
6
CONTINUOUS
10
111.235
20
-61.3236
11
111.124
21
-61.3804
0
LINE
8
BLACK
6
CONTINUOUS
10
111.124
20
-61.3804
11
111
21
-61.4
0
LINE
8
BLACK
6
CONTINUOUS
10
111
20
-61.4
11
110.876
21
-61.3804
0
LINE
8
BLACK
6
CONTINUOUS
10
110.876
20
-61.3804
11
110.823
21
-61.3534
0
LINE
8
BLACK
6
CONTINUOUS
10
110.823
20
-61.3534
11
110.125
21
-62.0518
0
LINE
8
BLACK
6
CONTINUOUS
10
110.125
20
-62.0518
11
110.125
21
-78.9482
0
LINE
8
BLACK
6
CONTINUOUS
10
110.125
20
-78.9482
11
110.823
21
-79.6466
0
LINE
8
BLACK
6
CONTINUOUS
10
110.823
20
-79.6466
11
110.876
21
-79.6196
0
LINE
8
BLACK
6
CONTINUOUS
10
110.876
20
-79.6196
11
111
21
-79.6
0
LINE
8
BLACK
6
CONTINUOUS
10
111
20
-79.6
11
111.124
21
-79.6196
0
LINE
8
BLACK
6
CONTINUOUS
10
111.124
20
-79.6196
11
111.235
21
-79.6764
0
LINE
8
BLACK
6
CONTINUOUS
10
111.235
20
-79.6764
11
111.324
21
-79.7649
0
LINE
8
BLACK
6
CONTINUOUS
10
111.324
20
-79.7649
11
111.38
21
-79.8764
0
LINE
8
BLACK
6
CONTINUOUS
10
111.38
20
-79.8764
11
111.4
21
-80
0
LINE
8
BLACK
6
CONTINUOUS
10
111.4
20
-80
11
111.38
21
-80.1236
0
LINE
8
BLACK
6
CONTINUOUS
10
111.38
20
-80.1236
11
111.324
21
-80.2351
0
LINE
8
BLACK
6
CONTINUOUS
10
111.324
20
-80.2351
11
111.235
21
-80.3236
0
LINE
8
BLACK
6
CONTINUOUS
10
111.235
20
-80.3236
11
111.124
21
-80.3804
0
LINE
8
BLACK
6
CONTINUOUS
10
111.124
20
-80.3804
11
111
21
-80.4
0
LINE
8
BLACK
6
CONTINUOUS
10
111
20
-80.4
11
110.876
21
-80.3804
0
LINE
8
BLACK
6
CONTINUOUS
10
110.876
20
-80.3804
11
110.823
21
-80.3534
0
LINE
8
BLACK
6
CONTINUOUS
10
110.823
20
-80.3534
11
110.125
21
-81.0518
0
LINE
8
BLACK
6
CONTINUOUS
10
110.125
20
-81.0518
11
110.125
21
-97.9482
0
LINE
8
BLACK
6
CONTINUOUS
10
110.125
20
-97.9482
11
110.823
21
-98.6466
0
LINE
8
BLACK
6
CONTINUOUS
10
110.823
20
-98.6466
11
110.876
21
-98.6196
0
LINE
8
BLACK
6
CONTINUOUS
10
110.876
20
-98.6196
11
111
21
-98.6
0
LINE
8
BLACK
6
CONTINUOUS
10
111
20
-98.6
11
111.124
21
-98.6196
0
LINE
8
BLACK
6
CONTINUOUS
10
111.124
20
-98.6196
11
111.235
21
-98.6764
0
LINE
8
BLACK
6
CONTINUOUS
10
111.235
20
-98.6764
11
111.324
21
-98.7649
0
LINE
8
BLACK
6
CONTINUOUS
10
111.324
20
-98.7649
11
111.38
21
-98.8764
0
LINE
8
BLACK
6
CONTINUOUS
10
111.38
20
-98.8764
11
111.4
21
-99
0
LINE
8
BLACK
6
CONTINUOUS
10
111.4
20
-99
11
111.38
21
-99.1236
0
LINE
8
BLACK
6
CONTINUOUS
10
111.38
20
-99.1236
11
111.324
21
-99.2351
0
LINE
8
BLACK
6
CONTINUOUS
10
111.324
20
-99.2351
11
111.235
21
-99.3236
0
LINE
8
BLACK
6
CONTINUOUS
10
111.235
20
-99.3236
11
111.124
21
-99.3804
0
LINE
8
BLACK
6
CONTINUOUS
10
111.124
20
-99.3804
11
111
21
-99.4
0
LINE
8
BLACK
6
CONTINUOUS
10
111
20
-99.4
11
110.876
21
-99.3804
0
LINE
8
BLACK
6
CONTINUOUS
10
110.876
20
-99.3804
11
110.823
21
-99.3534
0
LINE
8
BLACK
6
CONTINUOUS
10
110.823
20
-99.3534
11
110.125
21
-100.052
0
LINE
8
BLACK
6
CONTINUOUS
10
110.125
20
-100.052
11
110.125
21
-111.415
0
LINE
8
BLACK
6
CONTINUOUS
10
110.125
20
-111.415
11
122.179
21
-123.469
0
LINE
8
BLACK
6
CONTINUOUS
10
122.179
20
-123.469
11
122.2
21
-123.498
0
LINE
8
BLACK
6
CONTINUOUS
10
122.2
20
-123.498
11
122.215
21
-123.567
0
LINE
8
BLACK
6
CONTINUOUS
10
122.215
20
-123.567
11
122.19
21
-123.633
0
LINE
8
BLACK
6
CONTINUOUS
10
122.19
20
-123.633
11
122.134
21
-123.675
0
LINE
8
BLACK
6
CONTINUOUS
10
122.134
20
-123.675
11
122.064
21
-123.68
0
LINE
8
BLACK
6
CONTINUOUS
10
122.064
20
-123.68
11
122.002
21
-123.646
0
LINE
8
BLACK
6
CONTINUOUS
10
122.002
20
-123.646
11
109.912
21
-111.556
0
LINE
8
BLACK
6
CONTINUOUS
10
109.912
20
-111.556
11
109.898
21
-111.538
0
LINE
8
BLACK
6
CONTINUOUS
10
109.898
20
-111.538
11
109.895
21
-111.535
0
LINE
8
BLACK
6
CONTINUOUS
10
109.895
20
-111.535
11
109.894
21
-111.532
0
LINE
8
BLACK
6
CONTINUOUS
10
109.894
20
-111.532
11
109.89
21
-111.527
0
LINE
8
BLACK
6
CONTINUOUS
10
109.89
20
-111.527
11
109.884
21
-111.497
0
LINE
8
BLACK
6
CONTINUOUS
10
109.884
20
-111.497
11
109.875
21
-111.467
0
LINE
8
BLACK
6
CONTINUOUS
10
109.875
20
-111.467
11
109.875
21
-100
0
LINE
8
BLACK
6
CONTINUOUS
10
109.875
20
-100
11
109.878
21
-99.978
0
LINE
8
BLACK
6
CONTINUOUS
10
109.878
20
-99.978
11
109.878
21
-99.9734
0
LINE
8
BLACK
6
CONTINUOUS
10
109.878
20
-99.9734
11
109.879
21
-99.9709
0
LINE
8
BLACK
6
CONTINUOUS
10
109.879
20
-99.9709
11
109.88
21
-99.9645
0
LINE
8
BLACK
6
CONTINUOUS
10
109.88
20
-99.9645
11
109.897
21
-99.9386
0
LINE
8
BLACK
6
CONTINUOUS
10
109.897
20
-99.9386
11
109.912
21
-99.9116
0
LINE
8
BLACK
6
CONTINUOUS
10
109.912
20
-99.9116
11
110.647
21
-99.1766
0
LINE
8
BLACK
6
CONTINUOUS
10
110.647
20
-99.1766
11
110.62
21
-99.1236
0
LINE
8
BLACK
6
CONTINUOUS
10
110.62
20
-99.1236
11
110.6
21
-99
0
LINE
8
BLACK
6
CONTINUOUS
10
110.6
20
-99
11
110.62
21
-98.8764
0
LINE
8
BLACK
6
CONTINUOUS
10
110.62
20
-98.8764
11
110.647
21
-98.8234
0
LINE
8
BLACK
6
CONTINUOUS
10
110.647
20
-98.8234
11
109.912
21
-98.0884
0
LINE
8
BLACK
6
CONTINUOUS
10
109.912
20
-98.0884
11
109.898
21
-98.0706
0
LINE
8
BLACK
6
CONTINUOUS
10
109.898
20
-98.0706
11
109.895
21
-98.0675
0
LINE
8
BLACK
6
CONTINUOUS
10
109.895
20
-98.0675
11
109.894
21
-98.0648
0
LINE
8
BLACK
6
CONTINUOUS
10
109.894
20
-98.0648
11
109.89
21
-98.0596
0
LINE
8
BLACK
6
CONTINUOUS
10
109.89
20
-98.0596
11
109.884
21
-98.0295
0
LINE
8
BLACK
6
CONTINUOUS
10
109.884
20
-98.0295
11
109.875
21
-98
0
LINE
8
BLACK
6
CONTINUOUS
10
109.875
20
-98
11
109.875
21
-81
0
LINE
8
BLACK
6
CONTINUOUS
10
109.875
20
-81
11
109.878
21
-80.978
0
LINE
8
BLACK
6
CONTINUOUS
10
109.878
20
-80.978
11
109.878
21
-80.9734
0
LINE
8
BLACK
6
CONTINUOUS
10
109.878
20
-80.9734
11
109.879
21
-80.9709
0
LINE
8
BLACK
6
CONTINUOUS
10
109.879
20
-80.9709
11
109.88
21
-80.9645
0
LINE
8
BLACK
6
CONTINUOUS
10
109.88
20
-80.9645
11
109.897
21
-80.9386
0
LINE
8
BLACK
6
CONTINUOUS
10
109.897
20
-80.9386
11
109.912
21
-80.9116
0
LINE
8
BLACK
6
CONTINUOUS
10
109.912
20
-80.9116
11
110.647
21
-80.1766
0
LINE
8
BLACK
6
CONTINUOUS
10
110.647
20
-80.1766
11
110.62
21
-80.1236
0
LINE
8
BLACK
6
CONTINUOUS
10
110.62
20
-80.1236
11
110.6
21
-80
0
LINE
8
BLACK
6
CONTINUOUS
10
110.6
20
-80
11
110.62
21
-79.8764
0
LINE
8
BLACK
6
CONTINUOUS
10
110.62
20
-79.8764
11
110.647
21
-79.8234
0
LINE
8
BLACK
6
CONTINUOUS
10
110.647
20
-79.8234
11
109.912
21
-79.0884
0
LINE
8
BLACK
6
CONTINUOUS
10
109.912
20
-79.0884
11
109.898
21
-79.0706
0
LINE
8
BLACK
6
CONTINUOUS
10
109.898
20
-79.0706
11
109.895
21
-79.0675
0
LINE
8
BLACK
6
CONTINUOUS
10
109.895
20
-79.0675
11
109.894
21
-79.0648
0
LINE
8
BLACK
6
CONTINUOUS
10
109.894
20
-79.0648
11
109.89
21
-79.0596
0
LINE
8
BLACK
6
CONTINUOUS
10
109.89
20
-79.0596
11
109.884
21
-79.0295
0
LINE
8
BLACK
6
CONTINUOUS
10
109.884
20
-79.0295
11
109.875
21
-79
0
LINE
8
BLACK
6
CONTINUOUS
10
109.875
20
-79
11
109.875
21
-62
0
LINE
8
BLACK
6
CONTINUOUS
10
109.875
20
-62
11
109.878
21
-61.978
0
LINE
8
BLACK
6
CONTINUOUS
10
109.878
20
-61.978
11
109.878
21
-61.9734
0
LINE
8
BLACK
6
CONTINUOUS
10
109.878
20
-61.9734
11
109.879
21
-61.9709
0
LINE
8
BLACK
6
CONTINUOUS
10
109.879
20
-61.9709
11
109.88
21
-61.9645
0
LINE
8
BLACK
6
CONTINUOUS
10
109.88
20
-61.9645
11
109.897
21
-61.9386
0
LINE
8
BLACK
6
CONTINUOUS
10
109.897
20
-61.9386
11
109.912
21
-61.9116
0
LINE
8
BLACK
6
CONTINUOUS
10
109.912
20
-61.9116
11
110.647
21
-61.1766
0
LINE
8
BLACK
6
CONTINUOUS
10
110.647
20
-61.1766
11
110.62
21
-61.1236
0
LINE
8
BLACK
6
CONTINUOUS
10
110.62
20
-61.1236
11
110.6
21
-61
0
LINE
8
BLACK
6
CONTINUOUS
10
110.6
20
-61
11
110.62
21
-60.8764
0
LINE
8
BLACK
6
CONTINUOUS
10
110.62
20
-60.8764
11
110.647
21
-60.8234
0
LINE
8
BLACK
6
CONTINUOUS
10
110.647
20
-60.8234
11
109.912
21
-60.0884
0
LINE
8
BLACK
6
CONTINUOUS
10
109.912
20
-60.0884
11
109.898
21
-60.0706
0
LINE
8
BLACK
6
CONTINUOUS
10
109.898
20
-60.0706
11
109.895
21
-60.0675
0
LINE
8
BLACK
6
CONTINUOUS
10
109.895
20
-60.0675
11
109.894
21
-60.0648
0
LINE
8
BLACK
6
CONTINUOUS
10
109.894
20
-60.0648
11
109.89
21
-60.0596
0
LINE
8
BLACK
6
CONTINUOUS
10
109.89
20
-60.0596
11
109.884
21
-60.0295
0
LINE
8
BLACK
6
CONTINUOUS
10
109.884
20
-60.0295
11
109.875
21
-60
0
LINE
8
BLACK
6
CONTINUOUS
10
109.875
20
-60
11
109.875
21
-43
0
LINE
8
BLACK
6
CONTINUOUS
10
109.875
20
-43
11
109.878
21
-42.978
0
LINE
8
BLACK
6
CONTINUOUS
10
109.878
20
-42.978
11
109.878
21
-42.9734
0
LINE
8
BLACK
6
CONTINUOUS
10
109.878
20
-42.9734
11
109.879
21
-42.9709
0
LINE
8
BLACK
6
CONTINUOUS
10
109.879
20
-42.9709
11
109.88
21
-42.9645
0
LINE
8
BLACK
6
CONTINUOUS
10
109.88
20
-42.9645
11
109.897
21
-42.9386
0
LINE
8
BLACK
6
CONTINUOUS
10
109.897
20
-42.9386
11
109.912
21
-42.9116
0
LINE
8
BLACK
6
CONTINUOUS
10
109.912
20
-42.9116
11
110.647
21
-42.1766
0
LINE
8
BLACK
6
CONTINUOUS
10
110.647
20
-42.1766
11
110.62
21
-42.1236
0
LINE
8
BLACK
6
CONTINUOUS
10
110.62
20
-42.1236
11
110.6
21
-42
0
LINE
8
BLACK
6
CONTINUOUS
10
110.6
20
-42
11
110.62
21
-41.8764
0
LINE
8
BLACK
6
CONTINUOUS
10
110.62
20
-41.8764
11
110.647
21
-41.8234
0
LINE
8
BLACK
6
CONTINUOUS
10
110.647
20
-41.8234
11
109.912
21
-41.0884
0
LINE
8
BLACK
6
CONTINUOUS
10
109.912
20
-41.0884
11
109.898
21
-41.0706
0
LINE
8
BLACK
6
CONTINUOUS
10
109.898
20
-41.0706
11
109.895
21
-41.0675
0
LINE
8
BLACK
6
CONTINUOUS
10
109.895
20
-41.0675
11
109.894
21
-41.0648
0
LINE
8
BLACK
6
CONTINUOUS
10
109.894
20
-41.0648
11
109.89
21
-41.0596
0
LINE
8
BLACK
6
CONTINUOUS
10
109.89
20
-41.0596
11
109.884
21
-41.0295
0
LINE
8
BLACK
6
CONTINUOUS
10
109.884
20
-41.0295
11
109.875
21
-41
0
LINE
8
BLACK
6
CONTINUOUS
10
109.875
20
-41
11
109.875
21
-24
0
LINE
8
BLACK
6
CONTINUOUS
10
109.875
20
-24
11
109.878
21
-23.978
0
LINE
8
BLACK
6
CONTINUOUS
10
109.878
20
-23.978
11
109.878
21
-23.9734
0
LINE
8
BLACK
6
CONTINUOUS
10
109.878
20
-23.9734
11
109.879
21
-23.9709
0
LINE
8
BLACK
6
CONTINUOUS
10
109.879
20
-23.9709
11
109.88
21
-23.9645
0
LINE
8
BLACK
6
CONTINUOUS
10
109.88
20
-23.9645
11
109.897
21
-23.9386
0
LINE
8
BLACK
6
CONTINUOUS
10
109.897
20
-23.9386
11
109.912
21
-23.9116
0
LINE
8
BLACK
6
CONTINUOUS
10
109.912
20
-23.9116
11
110.647
21
-23.1766
0
LINE
8
BLACK
6
CONTINUOUS
10
110.647
20
-23.1766
11
110.62
21
-23.1236
0
LINE
8
BLACK
6
CONTINUOUS
10
110.62
20
-23.1236
11
110.6
21
-23
0
LINE
8
BLACK
6
CONTINUOUS
10
110.6
20
-23
11
110.62
21
-22.8764
0
LINE
8
BLACK
6
CONTINUOUS
10
110.62
20
-22.8764
11
110.676
21
-22.7649
0
LINE
8
BLACK
6
CONTINUOUS
10
110.676
20
-22.7649
11
110.765
21
-22.6764
0
LINE
8
BLACK
6
CONTINUOUS
10
110.765
20
-22.6764
11
110.876
21
-22.6196
0
LINE
8
BLACK
6
CONTINUOUS
10
110.876
20
-22.6196
11
111
21
-22.6
0
LINE
8
BLACK
6
CONTINUOUS
10
111
20
-22.6
11
111.124
21
-22.6196
0
LINE
8
BLACK
6
CONTINUOUS
10
141.471
20
-119.17
11
141.629
21
-119.226
0
LINE
8
BLACK
6
CONTINUOUS
10
141.629
20
-119.226
11
141.77
21
-119.315
0
LINE
8
BLACK
6
CONTINUOUS
10
141.77
20
-119.315
11
141.888
21
-119.434
0
LINE
8
BLACK
6
CONTINUOUS
10
141.888
20
-119.434
11
141.976
21
-119.576
0
LINE
8
BLACK
6
CONTINUOUS
10
141.976
20
-119.576
11
142.031
21
-119.734
0
LINE
8
BLACK
6
CONTINUOUS
10
142.031
20
-119.734
11
142.05
21
-119.9
0
LINE
8
BLACK
6
CONTINUOUS
10
142.05
20
-119.9
11
142.05
21
-119.921
0
LINE
8
BLACK
6
CONTINUOUS
10
142.05
20
-119.921
11
142.026
21
-120.087
0
LINE
8
BLACK
6
CONTINUOUS
10
142.026
20
-120.087
11
141.967
21
-120.243
0
LINE
8
BLACK
6
CONTINUOUS
10
141.967
20
-120.243
11
141.875
21
-120.382
0
LINE
8
BLACK
6
CONTINUOUS
10
141.875
20
-120.382
11
141.753
21
-120.497
0
LINE
8
BLACK
6
CONTINUOUS
10
141.753
20
-120.497
11
141.61
21
-120.583
0
LINE
8
BLACK
6
CONTINUOUS
10
141.61
20
-120.583
11
141.451
21
-120.635
0
LINE
8
BLACK
6
CONTINUOUS
10
141.451
20
-120.635
11
141.284
21
-120.65
0
LINE
8
BLACK
6
CONTINUOUS
10
141.284
20
-120.65
11
141.119
21
-120.628
0
LINE
8
BLACK
6
CONTINUOUS
10
141.119
20
-120.628
11
140.962
21
-120.569
0
LINE
8
BLACK
6
CONTINUOUS
10
140.962
20
-120.569
11
140.822
21
-120.478
0
LINE
8
BLACK
6
CONTINUOUS
10
140.822
20
-120.478
11
140.706
21
-120.358
0
LINE
8
BLACK
6
CONTINUOUS
10
140.706
20
-120.358
11
140.619
21
-120.215
0
LINE
8
BLACK
6
CONTINUOUS
10
140.619
20
-120.215
11
140.566
21
-120.056
0
LINE
8
BLACK
6
CONTINUOUS
10
140.566
20
-120.056
11
140.55
21
-119.89
0
LINE
8
BLACK
6
CONTINUOUS
10
140.55
20
-119.89
11
140.571
21
-119.724
0
LINE
8
BLACK
6
CONTINUOUS
10
140.571
20
-119.724
11
140.628
21
-119.567
0
LINE
8
BLACK
6
CONTINUOUS
10
140.628
20
-119.567
11
140.719
21
-119.426
0
LINE
8
BLACK
6
CONTINUOUS
10
140.719
20
-119.426
11
140.838
21
-119.309
0
LINE
8
BLACK
6
CONTINUOUS
10
140.838
20
-119.309
11
140.981
21
-119.221
0
LINE
8
BLACK
6
CONTINUOUS
10
140.981
20
-119.221
11
141.139
21
-119.167
0
LINE
8
BLACK
6
CONTINUOUS
10
141.139
20
-119.167
11
141.305
21
-119.15
0
LINE
8
BLACK
6
CONTINUOUS
10
141.305
20
-119.15
11
141.471
21
-119.17
0
LINE
8
BLACK
6
CONTINUOUS
10
143.971
20
-118.35
11
144.129
21
-118.406
0
LINE
8
BLACK
6
CONTINUOUS
10
144.129
20
-118.406
11
144.27
21
-118.495
0
LINE
8
BLACK
6
CONTINUOUS
10
144.27
20
-118.495
11
144.388
21
-118.614
0
LINE
8
BLACK
6
CONTINUOUS
10
144.388
20
-118.614
11
144.476
21
-118.756
0
LINE
8
BLACK
6
CONTINUOUS
10
144.476
20
-118.756
11
144.531
21
-118.914
0
LINE
8
BLACK
6
CONTINUOUS
10
144.531
20
-118.914
11
144.55
21
-119.08
0
LINE
8
BLACK
6
CONTINUOUS
10
144.55
20
-119.08
11
144.55
21
-119.101
0
LINE
8
BLACK
6
CONTINUOUS
10
144.55
20
-119.101
11
144.526
21
-119.267
0
LINE
8
BLACK
6
CONTINUOUS
10
144.526
20
-119.267
11
144.467
21
-119.423
0
LINE
8
BLACK
6
CONTINUOUS
10
144.467
20
-119.423
11
144.375
21
-119.562
0
LINE
8
BLACK
6
CONTINUOUS
10
144.375
20
-119.562
11
144.253
21
-119.677
0
LINE
8
BLACK
6
CONTINUOUS
10
144.253
20
-119.677
11
144.11
21
-119.763
0
LINE
8
BLACK
6
CONTINUOUS
10
144.11
20
-119.763
11
143.951
21
-119.815
0
LINE
8
BLACK
6
CONTINUOUS
10
143.951
20
-119.815
11
143.784
21
-119.83
0
LINE
8
BLACK
6
CONTINUOUS
10
143.784
20
-119.83
11
143.619
21
-119.808
0
LINE
8
BLACK
6
CONTINUOUS
10
143.619
20
-119.808
11
143.462
21
-119.749
0
LINE
8
BLACK
6
CONTINUOUS
10
143.462
20
-119.749
11
143.322
21
-119.658
0
LINE
8
BLACK
6
CONTINUOUS
10
143.322
20
-119.658
11
143.206
21
-119.538
0
LINE
8
BLACK
6
CONTINUOUS
10
143.206
20
-119.538
11
143.119
21
-119.395
0
LINE
8
BLACK
6
CONTINUOUS
10
143.119
20
-119.395
11
143.066
21
-119.236
0
LINE
8
BLACK
6
CONTINUOUS
10
143.066
20
-119.236
11
143.05
21
-119.07
0
LINE
8
BLACK
6
CONTINUOUS
10
143.05
20
-119.07
11
143.071
21
-118.904
0
LINE
8
BLACK
6
CONTINUOUS
10
143.071
20
-118.904
11
143.128
21
-118.747
0
LINE
8
BLACK
6
CONTINUOUS
10
143.128
20
-118.747
11
143.219
21
-118.606
0
LINE
8
BLACK
6
CONTINUOUS
10
143.219
20
-118.606
11
143.338
21
-118.489
0
LINE
8
BLACK
6
CONTINUOUS
10
143.338
20
-118.489
11
143.481
21
-118.401
0
LINE
8
BLACK
6
CONTINUOUS
10
143.481
20
-118.401
11
143.639
21
-118.347
0
LINE
8
BLACK
6
CONTINUOUS
10
143.639
20
-118.347
11
143.805
21
-118.33
0
LINE
8
BLACK
6
CONTINUOUS
10
143.805
20
-118.33
11
143.971
21
-118.35
0
LINE
8
BLACK
6
CONTINUOUS
10
34.0884
20
-40.9116
11
34.8234
21
-41.6466
0
LINE
8
BLACK
6
CONTINUOUS
10
34.8234
20
-41.6466
11
34.8764
21
-41.6196
0
LINE
8
BLACK
6
CONTINUOUS
10
34.8764
20
-41.6196
11
35
21
-41.6
0
LINE
8
BLACK
6
CONTINUOUS
10
35
20
-41.6
11
35.1236
21
-41.6196
0
LINE
8
BLACK
6
CONTINUOUS
10
35.1236
20
-41.6196
11
35.2351
21
-41.6764
0
LINE
8
BLACK
6
CONTINUOUS
10
35.2351
20
-41.6764
11
35.3236
21
-41.7649
0
LINE
8
BLACK
6
CONTINUOUS
10
35.3236
20
-41.7649
11
35.3804
21
-41.8764
0
LINE
8
BLACK
6
CONTINUOUS
10
35.3804
20
-41.8764
11
35.4
21
-42
0
LINE
8
BLACK
6
CONTINUOUS
10
35.4
20
-42
11
35.3804
21
-42.1236
0
LINE
8
BLACK
6
CONTINUOUS
10
35.3804
20
-42.1236
11
35.3236
21
-42.2351
0
LINE
8
BLACK
6
CONTINUOUS
10
35.3236
20
-42.2351
11
35.2351
21
-42.3236
0
LINE
8
BLACK
6
CONTINUOUS
10
35.2351
20
-42.3236
11
35.1236
21
-42.3804
0
LINE
8
BLACK
6
CONTINUOUS
10
35.1236
20
-42.3804
11
35
21
-42.4
0
LINE
8
BLACK
6
CONTINUOUS
10
35
20
-42.4
11
34.8764
21
-42.3804
0
LINE
8
BLACK
6
CONTINUOUS
10
34.8764
20
-42.3804
11
34.8234
21
-42.3534
0
LINE
8
BLACK
6
CONTINUOUS
10
34.8234
20
-42.3534
11
34.125
21
-43.0518
0
LINE
8
BLACK
6
CONTINUOUS
10
34.125
20
-43.0518
11
34.125
21
-59.9482
0
LINE
8
BLACK
6
CONTINUOUS
10
34.125
20
-59.9482
11
34.8234
21
-60.6466
0
LINE
8
BLACK
6
CONTINUOUS
10
34.8234
20
-60.6466
11
34.8764
21
-60.6196
0
LINE
8
BLACK
6
CONTINUOUS
10
34.8764
20
-60.6196
11
35
21
-60.6
0
LINE
8
BLACK
6
CONTINUOUS
10
35
20
-60.6
11
35.1236
21
-60.6196
0
LINE
8
BLACK
6
CONTINUOUS
10
35.1236
20
-60.6196
11
35.2351
21
-60.6764
0
LINE
8
BLACK
6
CONTINUOUS
10
35.2351
20
-60.6764
11
35.3236
21
-60.7649
0
LINE
8
BLACK
6
CONTINUOUS
10
35.3236
20
-60.7649
11
35.3804
21
-60.8764
0
LINE
8
BLACK
6
CONTINUOUS
10
35.3804
20
-60.8764
11
35.4
21
-61
0
LINE
8
BLACK
6
CONTINUOUS
10
35.4
20
-61
11
35.3804
21
-61.1236
0
LINE
8
BLACK
6
CONTINUOUS
10
35.3804
20
-61.1236
11
35.3236
21
-61.2351
0
LINE
8
BLACK
6
CONTINUOUS
10
35.3236
20
-61.2351
11
35.2351
21
-61.3236
0
LINE
8
BLACK
6
CONTINUOUS
10
35.2351
20
-61.3236
11
35.1236
21
-61.3804
0
LINE
8
BLACK
6
CONTINUOUS
10
35.1236
20
-61.3804
11
35
21
-61.4
0
LINE
8
BLACK
6
CONTINUOUS
10
35
20
-61.4
11
34.8764
21
-61.3804
0
LINE
8
BLACK
6
CONTINUOUS
10
34.8764
20
-61.3804
11
34.8234
21
-61.3534
0
LINE
8
BLACK
6
CONTINUOUS
10
34.8234
20
-61.3534
11
34.125
21
-62.0518
0
LINE
8
BLACK
6
CONTINUOUS
10
34.125
20
-62.0518
11
34.125
21
-78.9482
0
LINE
8
BLACK
6
CONTINUOUS
10
34.125
20
-78.9482
11
34.8234
21
-79.6466
0
LINE
8
BLACK
6
CONTINUOUS
10
34.8234
20
-79.6466
11
34.8764
21
-79.6196
0
LINE
8
BLACK
6
CONTINUOUS
10
34.8764
20
-79.6196
11
35
21
-79.6
0
LINE
8
BLACK
6
CONTINUOUS
10
35
20
-79.6
11
35.1236
21
-79.6196
0
LINE
8
BLACK
6
CONTINUOUS
10
35.1236
20
-79.6196
11
35.2351
21
-79.6764
0
LINE
8
BLACK
6
CONTINUOUS
10
35.2351
20
-79.6764
11
35.3236
21
-79.7649
0
LINE
8
BLACK
6
CONTINUOUS
10
35.3236
20
-79.7649
11
35.3804
21
-79.8764
0
LINE
8
BLACK
6
CONTINUOUS
10
35.3804
20
-79.8764
11
35.4
21
-80
0
LINE
8
BLACK
6
CONTINUOUS
10
35.4
20
-80
11
35.3804
21
-80.1236
0
LINE
8
BLACK
6
CONTINUOUS
10
35.3804
20
-80.1236
11
35.3236
21
-80.2351
0
LINE
8
BLACK
6
CONTINUOUS
10
35.3236
20
-80.2351
11
35.2351
21
-80.3236
0
LINE
8
BLACK
6
CONTINUOUS
10
35.2351
20
-80.3236
11
35.1236
21
-80.3804
0
LINE
8
BLACK
6
CONTINUOUS
10
35.1236
20
-80.3804
11
35
21
-80.4
0
LINE
8
BLACK
6
CONTINUOUS
10
35
20
-80.4
11
34.8764
21
-80.3804
0
LINE
8
BLACK
6
CONTINUOUS
10
34.8764
20
-80.3804
11
34.8234
21
-80.3534
0
LINE
8
BLACK
6
CONTINUOUS
10
34.8234
20
-80.3534
11
34.125
21
-81.0518
0
LINE
8
BLACK
6
CONTINUOUS
10
34.125
20
-81.0518
11
34.125
21
-97.9482
0
LINE
8
BLACK
6
CONTINUOUS
10
34.125
20
-97.9482
11
34.8234
21
-98.6466
0
LINE
8
BLACK
6
CONTINUOUS
10
34.8234
20
-98.6466
11
34.8764
21
-98.6196
0
LINE
8
BLACK
6
CONTINUOUS
10
34.8764
20
-98.6196
11
35
21
-98.6
0
LINE
8
BLACK
6
CONTINUOUS
10
35
20
-98.6
11
35.1236
21
-98.6196
0
LINE
8
BLACK
6
CONTINUOUS
10
35.1236
20
-98.6196
11
35.2351
21
-98.6764
0
LINE
8
BLACK
6
CONTINUOUS
10
35.2351
20
-98.6764
11
35.3236
21
-98.7649
0
LINE
8
BLACK
6
CONTINUOUS
10
35.3236
20
-98.7649
11
35.3804
21
-98.8764
0
LINE
8
BLACK
6
CONTINUOUS
10
35.3804
20
-98.8764
11
35.4
21
-99
0
LINE
8
BLACK
6
CONTINUOUS
10
35.4
20
-99
11
35.3804
21
-99.1236
0
LINE
8
BLACK
6
CONTINUOUS
10
35.3804
20
-99.1236
11
35.3236
21
-99.2351
0
LINE
8
BLACK
6
CONTINUOUS
10
35.3236
20
-99.2351
11
35.2351
21
-99.3236
0
LINE
8
BLACK
6
CONTINUOUS
10
35.2351
20
-99.3236
11
35.1236
21
-99.3804
0
LINE
8
BLACK
6
CONTINUOUS
10
35.1236
20
-99.3804
11
35
21
-99.4
0
LINE
8
BLACK
6
CONTINUOUS
10
35
20
-99.4
11
34.8764
21
-99.3804
0
LINE
8
BLACK
6
CONTINUOUS
10
34.8764
20
-99.3804
11
34.8234
21
-99.3534
0
LINE
8
BLACK
6
CONTINUOUS
10
34.8234
20
-99.3534
11
34.125
21
-100.052
0
LINE
8
BLACK
6
CONTINUOUS
10
34.125
20
-100.052
11
34.125
21
-116.948
0
LINE
8
BLACK
6
CONTINUOUS
10
34.125
20
-116.948
11
34.8234
21
-117.647
0
LINE
8
BLACK
6
CONTINUOUS
10
34.8234
20
-117.647
11
34.8764
21
-117.62
0
LINE
8
BLACK
6
CONTINUOUS
10
34.8764
20
-117.62
11
35
21
-117.6
0
LINE
8
BLACK
6
CONTINUOUS
10
35
20
-117.6
11
35.1236
21
-117.62
0
LINE
8
BLACK
6
CONTINUOUS
10
35.1236
20
-117.62
11
35.2351
21
-117.676
0
LINE
8
BLACK
6
CONTINUOUS
10
35.2351
20
-117.676
11
35.3236
21
-117.765
0
LINE
8
BLACK
6
CONTINUOUS
10
35.3236
20
-117.765
11
35.3804
21
-117.876
0
LINE
8
BLACK
6
CONTINUOUS
10
35.3804
20
-117.876
11
35.4
21
-118
0
LINE
8
BLACK
6
CONTINUOUS
10
35.4
20
-118
11
35.3804
21
-118.124
0
LINE
8
BLACK
6
CONTINUOUS
10
35.3804
20
-118.124
11
35.3236
21
-118.235
0
LINE
8
BLACK
6
CONTINUOUS
10
35.3236
20
-118.235
11
35.2351
21
-118.324
0
LINE
8
BLACK
6
CONTINUOUS
10
35.2351
20
-118.324
11
35.1236
21
-118.38
0
LINE
8
BLACK
6
CONTINUOUS
10
35.1236
20
-118.38
11
35
21
-118.4
0
LINE
8
BLACK
6
CONTINUOUS
10
35
20
-118.4
11
34.8764
21
-118.38
0
LINE
8
BLACK
6
CONTINUOUS
10
34.8764
20
-118.38
11
34.7649
21
-118.324
0
LINE
8
BLACK
6
CONTINUOUS
10
34.7649
20
-118.324
11
34.6764
21
-118.235
0
LINE
8
BLACK
6
CONTINUOUS
10
34.6764
20
-118.235
11
34.6196
21
-118.124
0
LINE
8
BLACK
6
CONTINUOUS
10
34.6196
20
-118.124
11
34.6
21
-118
0
LINE
8
BLACK
6
CONTINUOUS
10
34.6
20
-118
11
34.6196
21
-117.876
0
LINE
8
BLACK
6
CONTINUOUS
10
34.6196
20
-117.876
11
34.6466
21
-117.823
0
LINE
8
BLACK
6
CONTINUOUS
10
34.6466
20
-117.823
11
33.9116
21
-117.088
0
LINE
8
BLACK
6
CONTINUOUS
10
33.9116
20
-117.088
11
33.8983
21
-117.071
0
LINE
8
BLACK
6
CONTINUOUS
10
33.8983
20
-117.071
11
33.8948
21
-117.068
0
LINE
8
BLACK
6
CONTINUOUS
10
33.8948
20
-117.068
11
33.894
21
-117.065
0
LINE
8
BLACK
6
CONTINUOUS
10
33.894
20
-117.065
11
33.8901
21
-117.06
0
LINE
8
BLACK
6
CONTINUOUS
10
33.8901
20
-117.06
11
33.8837
21
-117.03
0
LINE
8
BLACK
6
CONTINUOUS
10
33.8837
20
-117.03
11
33.875
21
-117
0
LINE
8
BLACK
6
CONTINUOUS
10
33.875
20
-117
11
33.875
21
-100
0
LINE
8
BLACK
6
CONTINUOUS
10
33.875
20
-100
11
33.8782
21
-99.978
0
LINE
8
BLACK
6
CONTINUOUS
10
33.8782
20
-99.978
11
33.8779
21
-99.9734
0
LINE
8
BLACK
6
CONTINUOUS
10
33.8779
20
-99.9734
11
33.8792
21
-99.9709
0
LINE
8
BLACK
6
CONTINUOUS
10
33.8792
20
-99.9709
11
33.8801
21
-99.9645
0
LINE
8
BLACK
6
CONTINUOUS
10
33.8801
20
-99.9645
11
33.8968
21
-99.9386
0
LINE
8
BLACK
6
CONTINUOUS
10
33.8968
20
-99.9386
11
33.9116
21
-99.9116
0
LINE
8
BLACK
6
CONTINUOUS
10
33.9116
20
-99.9116
11
34.6466
21
-99.1766
0
LINE
8
BLACK
6
CONTINUOUS
10
34.6466
20
-99.1766
11
34.6196
21
-99.1236
0
LINE
8
BLACK
6
CONTINUOUS
10
34.6196
20
-99.1236
11
34.6
21
-99
0
LINE
8
BLACK
6
CONTINUOUS
10
34.6
20
-99
11
34.6196
21
-98.8764
0
LINE
8
BLACK
6
CONTINUOUS
10
34.6196
20
-98.8764
11
34.6466
21
-98.8234
0
LINE
8
BLACK
6
CONTINUOUS
10
34.6466
20
-98.8234
11
33.9116
21
-98.0884
0
LINE
8
BLACK
6
CONTINUOUS
10
33.9116
20
-98.0884
11
33.8983
21
-98.0706
0
LINE
8
BLACK
6
CONTINUOUS
10
33.8983
20
-98.0706
11
33.8948
21
-98.0675
0
LINE
8
BLACK
6
CONTINUOUS
10
33.8948
20
-98.0675
11
33.894
21
-98.0648
0
LINE
8
BLACK
6
CONTINUOUS
10
33.894
20
-98.0648
11
33.8901
21
-98.0596
0
LINE
8
BLACK
6
CONTINUOUS
10
33.8901
20
-98.0596
11
33.8837
21
-98.0295
0
LINE
8
BLACK
6
CONTINUOUS
10
33.8837
20
-98.0295
11
33.875
21
-98
0
LINE
8
BLACK
6
CONTINUOUS
10
33.875
20
-98
11
33.875
21
-81
0
LINE
8
BLACK
6
CONTINUOUS
10
33.875
20
-81
11
33.8782
21
-80.978
0
LINE
8
BLACK
6
CONTINUOUS
10
33.8782
20
-80.978
11
33.8779
21
-80.9734
0
LINE
8
BLACK
6
CONTINUOUS
10
33.8779
20
-80.9734
11
33.8792
21
-80.9709
0
LINE
8
BLACK
6
CONTINUOUS
10
33.8792
20
-80.9709
11
33.8801
21
-80.9645
0
LINE
8
BLACK
6
CONTINUOUS
10
33.8801
20
-80.9645
11
33.8968
21
-80.9386
0
LINE
8
BLACK
6
CONTINUOUS
10
33.8968
20
-80.9386
11
33.9116
21
-80.9116
0
LINE
8
BLACK
6
CONTINUOUS
10
33.9116
20
-80.9116
11
34.6466
21
-80.1766
0
LINE
8
BLACK
6
CONTINUOUS
10
34.6466
20
-80.1766
11
34.6196
21
-80.1236
0
LINE
8
BLACK
6
CONTINUOUS
10
34.6196
20
-80.1236
11
34.6
21
-80
0
LINE
8
BLACK
6
CONTINUOUS
10
34.6
20
-80
11
34.6196
21
-79.8764
0
LINE
8
BLACK
6
CONTINUOUS
10
34.6196
20
-79.8764
11
34.6466
21
-79.8234
0
LINE
8
BLACK
6
CONTINUOUS
10
34.6466
20
-79.8234
11
33.9116
21
-79.0884
0
LINE
8
BLACK
6
CONTINUOUS
10
33.9116
20
-79.0884
11
33.8983
21
-79.0706
0
LINE
8
BLACK
6
CONTINUOUS
10
33.8983
20
-79.0706
11
33.8948
21
-79.0675
0
LINE
8
BLACK
6
CONTINUOUS
10
33.8948
20
-79.0675
11
33.894
21
-79.0648
0
LINE
8
BLACK
6
CONTINUOUS
10
33.894
20
-79.0648
11
33.8901
21
-79.0596
0
LINE
8
BLACK
6
CONTINUOUS
10
33.8901
20
-79.0596
11
33.8837
21
-79.0295
0
LINE
8
BLACK
6
CONTINUOUS
10
33.8837
20
-79.0295
11
33.875
21
-79
0
LINE
8
BLACK
6
CONTINUOUS
10
33.875
20
-79
11
33.875
21
-62
0
LINE
8
BLACK
6
CONTINUOUS
10
33.875
20
-62
11
33.8782
21
-61.978
0
LINE
8
BLACK
6
CONTINUOUS
10
33.8782
20
-61.978
11
33.8779
21
-61.9734
0
LINE
8
BLACK
6
CONTINUOUS
10
33.8779
20
-61.9734
11
33.8792
21
-61.9709
0
LINE
8
BLACK
6
CONTINUOUS
10
33.8792
20
-61.9709
11
33.8801
21
-61.9645
0
LINE
8
BLACK
6
CONTINUOUS
10
33.8801
20
-61.9645
11
33.8968
21
-61.9386
0
LINE
8
BLACK
6
CONTINUOUS
10
33.8968
20
-61.9386
11
33.9116
21
-61.9116
0
LINE
8
BLACK
6
CONTINUOUS
10
33.9116
20
-61.9116
11
34.6466
21
-61.1766
0
LINE
8
BLACK
6
CONTINUOUS
10
34.6466
20
-61.1766
11
34.6196
21
-61.1236
0
LINE
8
BLACK
6
CONTINUOUS
10
34.6196
20
-61.1236
11
34.6
21
-61
0
LINE
8
BLACK
6
CONTINUOUS
10
34.6
20
-61
11
34.6196
21
-60.8764
0
LINE
8
BLACK
6
CONTINUOUS
10
34.6196
20
-60.8764
11
34.6466
21
-60.8234
0
LINE
8
BLACK
6
CONTINUOUS
10
34.6466
20
-60.8234
11
33.9116
21
-60.0884
0
LINE
8
BLACK
6
CONTINUOUS
10
33.9116
20
-60.0884
11
33.8983
21
-60.0706
0
LINE
8
BLACK
6
CONTINUOUS
10
33.8983
20
-60.0706
11
33.8948
21
-60.0675
0
LINE
8
BLACK
6
CONTINUOUS
10
33.8948
20
-60.0675
11
33.894
21
-60.0648
0
LINE
8
BLACK
6
CONTINUOUS
10
33.894
20
-60.0648
11
33.8901
21
-60.0596
0
LINE
8
BLACK
6
CONTINUOUS
10
33.8901
20
-60.0596
11
33.8837
21
-60.0295
0
LINE
8
BLACK
6
CONTINUOUS
10
33.8837
20
-60.0295
11
33.875
21
-60
0
LINE
8
BLACK
6
CONTINUOUS
10
33.875
20
-60
11
33.875
21
-43
0
LINE
8
BLACK
6
CONTINUOUS
10
33.875
20
-43
11
33.8782
21
-42.978
0
LINE
8
BLACK
6
CONTINUOUS
10
33.8782
20
-42.978
11
33.8779
21
-42.9734
0
LINE
8
BLACK
6
CONTINUOUS
10
33.8779
20
-42.9734
11
33.8792
21
-42.9709
0
LINE
8
BLACK
6
CONTINUOUS
10
33.8792
20
-42.9709
11
33.8801
21
-42.9645
0
LINE
8
BLACK
6
CONTINUOUS
10
33.8801
20
-42.9645
11
33.8968
21
-42.9386
0
LINE
8
BLACK
6
CONTINUOUS
10
33.8968
20
-42.9386
11
33.9116
21
-42.9116
0
LINE
8
BLACK
6
CONTINUOUS
10
33.9116
20
-42.9116
11
34.6466
21
-42.1766
0
LINE
8
BLACK
6
CONTINUOUS
10
34.6466
20
-42.1766
11
34.6196
21
-42.1236
0
LINE
8
BLACK
6
CONTINUOUS
10
34.6196
20
-42.1236
11
34.6
21
-42
0
LINE
8
BLACK
6
CONTINUOUS
10
34.6
20
-42
11
34.6196
21
-41.8764
0
LINE
8
BLACK
6
CONTINUOUS
10
34.6196
20
-41.8764
11
34.6466
21
-41.8234
0
LINE
8
BLACK
6
CONTINUOUS
10
34.6466
20
-41.8234
11
33.9116
21
-41.0884
0
LINE
8
BLACK
6
CONTINUOUS
10
33.9116
20
-41.0884
11
33.8901
21
-41.0596
0
LINE
8
BLACK
6
CONTINUOUS
10
33.8901
20
-41.0596
11
33.8753
21
-40.9908
0
LINE
8
BLACK
6
CONTINUOUS
10
33.8753
20
-40.9908
11
33.9
21
-40.9249
0
LINE
8
BLACK
6
CONTINUOUS
10
33.9
20
-40.9249
11
33.9564
21
-40.8828
0
LINE
8
BLACK
6
CONTINUOUS
10
33.9564
20
-40.8828
11
34.0266
21
-40.8779
0
LINE
8
BLACK
6
CONTINUOUS
10
34.0266
20
-40.8779
11
34.0884
21
-40.9116
0
LINE
8
BLACK
6
CONTINUOUS
10
73.1236
20
-22.6196
11
73.2351
21
-22.6764
0
LINE
8
BLACK
6
CONTINUOUS
10
73.2351
20
-22.6764
11
73.3236
21
-22.7649
0
LINE
8
BLACK
6
CONTINUOUS
10
73.3236
20
-22.7649
11
73.3804
21
-22.8764
0
LINE
8
BLACK
6
CONTINUOUS
10
73.3804
20
-22.8764
11
73.4
21
-23
0
LINE
8
BLACK
6
CONTINUOUS
10
73.4
20
-23
11
73.3804
21
-23.1236
0
LINE
8
BLACK
6
CONTINUOUS
10
73.3804
20
-23.1236
11
73.3236
21
-23.2351
0
LINE
8
BLACK
6
CONTINUOUS
10
73.3236
20
-23.2351
11
73.2351
21
-23.3236
0
LINE
8
BLACK
6
CONTINUOUS
10
73.2351
20
-23.3236
11
73.1236
21
-23.3804
0
LINE
8
BLACK
6
CONTINUOUS
10
73.1236
20
-23.3804
11
73
21
-23.4
0
LINE
8
BLACK
6
CONTINUOUS
10
73
20
-23.4
11
72.8764
21
-23.3804
0
LINE
8
BLACK
6
CONTINUOUS
10
72.8764
20
-23.3804
11
72.8234
21
-23.3534
0
LINE
8
BLACK
6
CONTINUOUS
10
72.8234
20
-23.3534
11
72.125
21
-24.0518
0
LINE
8
BLACK
6
CONTINUOUS
10
72.125
20
-24.0518
11
72.125
21
-40.9482
0
LINE
8
BLACK
6
CONTINUOUS
10
72.125
20
-40.9482
11
72.8234
21
-41.6466
0
LINE
8
BLACK
6
CONTINUOUS
10
72.8234
20
-41.6466
11
72.8764
21
-41.6196
0
LINE
8
BLACK
6
CONTINUOUS
10
72.8764
20
-41.6196
11
73
21
-41.6
0
LINE
8
BLACK
6
CONTINUOUS
10
73
20
-41.6
11
73.1236
21
-41.6196
0
LINE
8
BLACK
6
CONTINUOUS
10
73.1236
20
-41.6196
11
73.2351
21
-41.6764
0
LINE
8
BLACK
6
CONTINUOUS
10
73.2351
20
-41.6764
11
73.3236
21
-41.7649
0
LINE
8
BLACK
6
CONTINUOUS
10
73.3236
20
-41.7649
11
73.3804
21
-41.8764
0
LINE
8
BLACK
6
CONTINUOUS
10
73.3804
20
-41.8764
11
73.4
21
-42
0
LINE
8
BLACK
6
CONTINUOUS
10
73.4
20
-42
11
73.3804
21
-42.1236
0
LINE
8
BLACK
6
CONTINUOUS
10
73.3804
20
-42.1236
11
73.3236
21
-42.2351
0
LINE
8
BLACK
6
CONTINUOUS
10
73.3236
20
-42.2351
11
73.2351
21
-42.3236
0
LINE
8
BLACK
6
CONTINUOUS
10
73.2351
20
-42.3236
11
73.1236
21
-42.3804
0
LINE
8
BLACK
6
CONTINUOUS
10
73.1236
20
-42.3804
11
73
21
-42.4
0
LINE
8
BLACK
6
CONTINUOUS
10
73
20
-42.4
11
72.8764
21
-42.3804
0
LINE
8
BLACK
6
CONTINUOUS
10
72.8764
20
-42.3804
11
72.8234
21
-42.3534
0
LINE
8
BLACK
6
CONTINUOUS
10
72.8234
20
-42.3534
11
72.125
21
-43.0518
0
LINE
8
BLACK
6
CONTINUOUS
10
72.125
20
-43.0518
11
72.125
21
-59.9482
0
LINE
8
BLACK
6
CONTINUOUS
10
72.125
20
-59.9482
11
72.8234
21
-60.6466
0
LINE
8
BLACK
6
CONTINUOUS
10
72.8234
20
-60.6466
11
72.8764
21
-60.6196
0
LINE
8
BLACK
6
CONTINUOUS
10
72.8764
20
-60.6196
11
73
21
-60.6
0
LINE
8
BLACK
6
CONTINUOUS
10
73
20
-60.6
11
73.1236
21
-60.6196
0
LINE
8
BLACK
6
CONTINUOUS
10
73.1236
20
-60.6196
11
73.2351
21
-60.6764
0
LINE
8
BLACK
6
CONTINUOUS
10
73.2351
20
-60.6764
11
73.3236
21
-60.7649
0
LINE
8
BLACK
6
CONTINUOUS
10
73.3236
20
-60.7649
11
73.3804
21
-60.8764
0
LINE
8
BLACK
6
CONTINUOUS
10
73.3804
20
-60.8764
11
73.4
21
-61
0
LINE
8
BLACK
6
CONTINUOUS
10
73.4
20
-61
11
73.3804
21
-61.1236
0
LINE
8
BLACK
6
CONTINUOUS
10
73.3804
20
-61.1236
11
73.3236
21
-61.2351
0
LINE
8
BLACK
6
CONTINUOUS
10
73.3236
20
-61.2351
11
73.2351
21
-61.3236
0
LINE
8
BLACK
6
CONTINUOUS
10
73.2351
20
-61.3236
11
73.1236
21
-61.3804
0
LINE
8
BLACK
6
CONTINUOUS
10
73.1236
20
-61.3804
11
73
21
-61.4
0
LINE
8
BLACK
6
CONTINUOUS
10
73
20
-61.4
11
72.8764
21
-61.3804
0
LINE
8
BLACK
6
CONTINUOUS
10
72.8764
20
-61.3804
11
72.8234
21
-61.3534
0
LINE
8
BLACK
6
CONTINUOUS
10
72.8234
20
-61.3534
11
72.125
21
-62.0518
0
LINE
8
BLACK
6
CONTINUOUS
10
72.125
20
-62.0518
11
72.125
21
-78.9482
0
LINE
8
BLACK
6
CONTINUOUS
10
72.125
20
-78.9482
11
72.8234
21
-79.6466
0
LINE
8
BLACK
6
CONTINUOUS
10
72.8234
20
-79.6466
11
72.8764
21
-79.6196
0
LINE
8
BLACK
6
CONTINUOUS
10
72.8764
20
-79.6196
11
73
21
-79.6
0
LINE
8
BLACK
6
CONTINUOUS
10
73
20
-79.6
11
73.1236
21
-79.6196
0
LINE
8
BLACK
6
CONTINUOUS
10
73.1236
20
-79.6196
11
73.2351
21
-79.6764
0
LINE
8
BLACK
6
CONTINUOUS
10
73.2351
20
-79.6764
11
73.3236
21
-79.7649
0
LINE
8
BLACK
6
CONTINUOUS
10
73.3236
20
-79.7649
11
73.3804
21
-79.8764
0
LINE
8
BLACK
6
CONTINUOUS
10
73.3804
20
-79.8764
11
73.4
21
-80
0
LINE
8
BLACK
6
CONTINUOUS
10
73.4
20
-80
11
73.3804
21
-80.1236
0
LINE
8
BLACK
6
CONTINUOUS
10
73.3804
20
-80.1236
11
73.3236
21
-80.2351
0
LINE
8
BLACK
6
CONTINUOUS
10
73.3236
20
-80.2351
11
73.2351
21
-80.3236
0
LINE
8
BLACK
6
CONTINUOUS
10
73.2351
20
-80.3236
11
73.1236
21
-80.3804
0
LINE
8
BLACK
6
CONTINUOUS
10
73.1236
20
-80.3804
11
73
21
-80.4
0
LINE
8
BLACK
6
CONTINUOUS
10
73
20
-80.4
11
72.8764
21
-80.3804
0
LINE
8
BLACK
6
CONTINUOUS
10
72.8764
20
-80.3804
11
72.8234
21
-80.3534
0
LINE
8
BLACK
6
CONTINUOUS
10
72.8234
20
-80.3534
11
72.125
21
-81.0518
0
LINE
8
BLACK
6
CONTINUOUS
10
72.125
20
-81.0518
11
72.125
21
-97.9482
0
LINE
8
BLACK
6
CONTINUOUS
10
72.125
20
-97.9482
11
72.8234
21
-98.6466
0
LINE
8
BLACK
6
CONTINUOUS
10
72.8234
20
-98.6466
11
72.8764
21
-98.6196
0
LINE
8
BLACK
6
CONTINUOUS
10
72.8764
20
-98.6196
11
73
21
-98.6
0
LINE
8
BLACK
6
CONTINUOUS
10
73
20
-98.6
11
73.1236
21
-98.6196
0
LINE
8
BLACK
6
CONTINUOUS
10
73.1236
20
-98.6196
11
73.2351
21
-98.6764
0
LINE
8
BLACK
6
CONTINUOUS
10
73.2351
20
-98.6764
11
73.3236
21
-98.7649
0
LINE
8
BLACK
6
CONTINUOUS
10
73.3236
20
-98.7649
11
73.3804
21
-98.8764
0
LINE
8
BLACK
6
CONTINUOUS
10
73.3804
20
-98.8764
11
73.4
21
-99
0
LINE
8
BLACK
6
CONTINUOUS
10
73.4
20
-99
11
73.3804
21
-99.1236
0
LINE
8
BLACK
6
CONTINUOUS
10
73.3804
20
-99.1236
11
73.3236
21
-99.2351
0
LINE
8
BLACK
6
CONTINUOUS
10
73.3236
20
-99.2351
11
73.2351
21
-99.3236
0
LINE
8
BLACK
6
CONTINUOUS
10
73.2351
20
-99.3236
11
73.1236
21
-99.3804
0
LINE
8
BLACK
6
CONTINUOUS
10
73.1236
20
-99.3804
11
73
21
-99.4
0
LINE
8
BLACK
6
CONTINUOUS
10
73
20
-99.4
11
72.8764
21
-99.3804
0
LINE
8
BLACK
6
CONTINUOUS
10
72.8764
20
-99.3804
11
72.8234
21
-99.3534
0
LINE
8
BLACK
6
CONTINUOUS
10
72.8234
20
-99.3534
11
72.125
21
-100.052
0
LINE
8
BLACK
6
CONTINUOUS
10
72.125
20
-100.052
11
72.125
21
-116.948
0
LINE
8
BLACK
6
CONTINUOUS
10
72.125
20
-116.948
11
72.8234
21
-117.647
0
LINE
8
BLACK
6
CONTINUOUS
10
72.8234
20
-117.647
11
72.8764
21
-117.62
0
LINE
8
BLACK
6
CONTINUOUS
10
72.8764
20
-117.62
11
73
21
-117.6
0
LINE
8
BLACK
6
CONTINUOUS
10
73
20
-117.6
11
73.1236
21
-117.62
0
LINE
8
BLACK
6
CONTINUOUS
10
73.1236
20
-117.62
11
73.2351
21
-117.676
0
LINE
8
BLACK
6
CONTINUOUS
10
73.2351
20
-117.676
11
73.3236
21
-117.765
0
LINE
8
BLACK
6
CONTINUOUS
10
73.3236
20
-117.765
11
73.3804
21
-117.876
0
LINE
8
BLACK
6
CONTINUOUS
10
73.3804
20
-117.876
11
73.4
21
-118
0
LINE
8
BLACK
6
CONTINUOUS
10
73.4
20
-118
11
73.3804
21
-118.124
0
LINE
8
BLACK
6
CONTINUOUS
10
73.3804
20
-118.124
11
73.3236
21
-118.235
0
LINE
8
BLACK
6
CONTINUOUS
10
73.3236
20
-118.235
11
73.2351
21
-118.324
0
LINE
8
BLACK
6
CONTINUOUS
10
73.2351
20
-118.324
11
73.1236
21
-118.38
0
LINE
8
BLACK
6
CONTINUOUS
10
73.1236
20
-118.38
11
73
21
-118.4
0
LINE
8
BLACK
6
CONTINUOUS
10
73
20
-118.4
11
72.8764
21
-118.38
0
LINE
8
BLACK
6
CONTINUOUS
10
72.8764
20
-118.38
11
72.7649
21
-118.324
0
LINE
8
BLACK
6
CONTINUOUS
10
72.7649
20
-118.324
11
72.6764
21
-118.235
0
LINE
8
BLACK
6
CONTINUOUS
10
72.6764
20
-118.235
11
72.6196
21
-118.124
0
LINE
8
BLACK
6
CONTINUOUS
10
72.6196
20
-118.124
11
72.6
21
-118
0
LINE
8
BLACK
6
CONTINUOUS
10
72.6
20
-118
11
72.6196
21
-117.876
0
LINE
8
BLACK
6
CONTINUOUS
10
72.6196
20
-117.876
11
72.6466
21
-117.823
0
LINE
8
BLACK
6
CONTINUOUS
10
72.6466
20
-117.823
11
71.9116
21
-117.088
0
LINE
8
BLACK
6
CONTINUOUS
10
71.9116
20
-117.088
11
71.8983
21
-117.071
0
LINE
8
BLACK
6
CONTINUOUS
10
71.8983
20
-117.071
11
71.8948
21
-117.068
0
LINE
8
BLACK
6
CONTINUOUS
10
71.8948
20
-117.068
11
71.894
21
-117.065
0
LINE
8
BLACK
6
CONTINUOUS
10
71.894
20
-117.065
11
71.8901
21
-117.06
0
LINE
8
BLACK
6
CONTINUOUS
10
71.8901
20
-117.06
11
71.8837
21
-117.03
0
LINE
8
BLACK
6
CONTINUOUS
10
71.8837
20
-117.03
11
71.875
21
-117
0
LINE
8
BLACK
6
CONTINUOUS
10
71.875
20
-117
11
71.875
21
-100
0
LINE
8
BLACK
6
CONTINUOUS
10
71.875
20
-100
11
71.8782
21
-99.978
0
LINE
8
BLACK
6
CONTINUOUS
10
71.8782
20
-99.978
11
71.8779
21
-99.9734
0
LINE
8
BLACK
6
CONTINUOUS
10
71.8779
20
-99.9734
11
71.8792
21
-99.9709
0
LINE
8
BLACK
6
CONTINUOUS
10
71.8792
20
-99.9709
11
71.8801
21
-99.9645
0
LINE
8
BLACK
6
CONTINUOUS
10
71.8801
20
-99.9645
11
71.8968
21
-99.9386
0
LINE
8
BLACK
6
CONTINUOUS
10
71.8968
20
-99.9386
11
71.9116
21
-99.9116
0
LINE
8
BLACK
6
CONTINUOUS
10
71.9116
20
-99.9116
11
72.6466
21
-99.1766
0
LINE
8
BLACK
6
CONTINUOUS
10
72.6466
20
-99.1766
11
72.6196
21
-99.1236
0
LINE
8
BLACK
6
CONTINUOUS
10
72.6196
20
-99.1236
11
72.6
21
-99
0
LINE
8
BLACK
6
CONTINUOUS
10
72.6
20
-99
11
72.6196
21
-98.8764
0
LINE
8
BLACK
6
CONTINUOUS
10
72.6196
20
-98.8764
11
72.6466
21
-98.8234
0
LINE
8
BLACK
6
CONTINUOUS
10
72.6466
20
-98.8234
11
71.9116
21
-98.0884
0
LINE
8
BLACK
6
CONTINUOUS
10
71.9116
20
-98.0884
11
71.8983
21
-98.0706
0
LINE
8
BLACK
6
CONTINUOUS
10
71.8983
20
-98.0706
11
71.8948
21
-98.0675
0
LINE
8
BLACK
6
CONTINUOUS
10
71.8948
20
-98.0675
11
71.894
21
-98.0648
0
LINE
8
BLACK
6
CONTINUOUS
10
71.894
20
-98.0648
11
71.8901
21
-98.0596
0
LINE
8
BLACK
6
CONTINUOUS
10
71.8901
20
-98.0596
11
71.8837
21
-98.0295
0
LINE
8
BLACK
6
CONTINUOUS
10
71.8837
20
-98.0295
11
71.875
21
-98
0
LINE
8
BLACK
6
CONTINUOUS
10
71.875
20
-98
11
71.875
21
-81
0
LINE
8
BLACK
6
CONTINUOUS
10
71.875
20
-81
11
71.8782
21
-80.978
0
LINE
8
BLACK
6
CONTINUOUS
10
71.8782
20
-80.978
11
71.8779
21
-80.9734
0
LINE
8
BLACK
6
CONTINUOUS
10
71.8779
20
-80.9734
11
71.8792
21
-80.9709
0
LINE
8
BLACK
6
CONTINUOUS
10
71.8792
20
-80.9709
11
71.8801
21
-80.9645
0
LINE
8
BLACK
6
CONTINUOUS
10
71.8801
20
-80.9645
11
71.8968
21
-80.9386
0
LINE
8
BLACK
6
CONTINUOUS
10
71.8968
20
-80.9386
11
71.9116
21
-80.9116
0
LINE
8
BLACK
6
CONTINUOUS
10
71.9116
20
-80.9116
11
72.6466
21
-80.1766
0
LINE
8
BLACK
6
CONTINUOUS
10
72.6466
20
-80.1766
11
72.6196
21
-80.1236
0
LINE
8
BLACK
6
CONTINUOUS
10
72.6196
20
-80.1236
11
72.6
21
-80
0
LINE
8
BLACK
6
CONTINUOUS
10
72.6
20
-80
11
72.6196
21
-79.8764
0
LINE
8
BLACK
6
CONTINUOUS
10
72.6196
20
-79.8764
11
72.6466
21
-79.8234
0
LINE
8
BLACK
6
CONTINUOUS
10
72.6466
20
-79.8234
11
71.9116
21
-79.0884
0
LINE
8
BLACK
6
CONTINUOUS
10
71.9116
20
-79.0884
11
71.8983
21
-79.0706
0
LINE
8
BLACK
6
CONTINUOUS
10
71.8983
20
-79.0706
11
71.8948
21
-79.0675
0
LINE
8
BLACK
6
CONTINUOUS
10
71.8948
20
-79.0675
11
71.894
21
-79.0648
0
LINE
8
BLACK
6
CONTINUOUS
10
71.894
20
-79.0648
11
71.8901
21
-79.0596
0
LINE
8
BLACK
6
CONTINUOUS
10
71.8901
20
-79.0596
11
71.8837
21
-79.0295
0
LINE
8
BLACK
6
CONTINUOUS
10
71.8837
20
-79.0295
11
71.875
21
-79
0
LINE
8
BLACK
6
CONTINUOUS
10
71.875
20
-79
11
71.875
21
-62
0
LINE
8
BLACK
6
CONTINUOUS
10
71.875
20
-62
11
71.8782
21
-61.978
0
LINE
8
BLACK
6
CONTINUOUS
10
71.8782
20
-61.978
11
71.8779
21
-61.9734
0
LINE
8
BLACK
6
CONTINUOUS
10
71.8779
20
-61.9734
11
71.8792
21
-61.9709
0
LINE
8
BLACK
6
CONTINUOUS
10
71.8792
20
-61.9709
11
71.8801
21
-61.9645
0
LINE
8
BLACK
6
CONTINUOUS
10
71.8801
20
-61.9645
11
71.8968
21
-61.9386
0
LINE
8
BLACK
6
CONTINUOUS
10
71.8968
20
-61.9386
11
71.9116
21
-61.9116
0
LINE
8
BLACK
6
CONTINUOUS
10
71.9116
20
-61.9116
11
72.6466
21
-61.1766
0
LINE
8
BLACK
6
CONTINUOUS
10
72.6466
20
-61.1766
11
72.6196
21
-61.1236
0
LINE
8
BLACK
6
CONTINUOUS
10
72.6196
20
-61.1236
11
72.6
21
-61
0
LINE
8
BLACK
6
CONTINUOUS
10
72.6
20
-61
11
72.6196
21
-60.8764
0
LINE
8
BLACK
6
CONTINUOUS
10
72.6196
20
-60.8764
11
72.6466
21
-60.8234
0
LINE
8
BLACK
6
CONTINUOUS
10
72.6466
20
-60.8234
11
71.9116
21
-60.0884
0
LINE
8
BLACK
6
CONTINUOUS
10
71.9116
20
-60.0884
11
71.8983
21
-60.0706
0
LINE
8
BLACK
6
CONTINUOUS
10
71.8983
20
-60.0706
11
71.8948
21
-60.0675
0
LINE
8
BLACK
6
CONTINUOUS
10
71.8948
20
-60.0675
11
71.894
21
-60.0648
0
LINE
8
BLACK
6
CONTINUOUS
10
71.894
20
-60.0648
11
71.8901
21
-60.0596
0
LINE
8
BLACK
6
CONTINUOUS
10
71.8901
20
-60.0596
11
71.8837
21
-60.0295
0
LINE
8
BLACK
6
CONTINUOUS
10
71.8837
20
-60.0295
11
71.875
21
-60
0
LINE
8
BLACK
6
CONTINUOUS
10
71.875
20
-60
11
71.875
21
-43
0
LINE
8
BLACK
6
CONTINUOUS
10
71.875
20
-43
11
71.8782
21
-42.978
0
LINE
8
BLACK
6
CONTINUOUS
10
71.8782
20
-42.978
11
71.8779
21
-42.9734
0
LINE
8
BLACK
6
CONTINUOUS
10
71.8779
20
-42.9734
11
71.8792
21
-42.9709
0
LINE
8
BLACK
6
CONTINUOUS
10
71.8792
20
-42.9709
11
71.8801
21
-42.9645
0
LINE
8
BLACK
6
CONTINUOUS
10
71.8801
20
-42.9645
11
71.8968
21
-42.9386
0
LINE
8
BLACK
6
CONTINUOUS
10
71.8968
20
-42.9386
11
71.9116
21
-42.9116
0
LINE
8
BLACK
6
CONTINUOUS
10
71.9116
20
-42.9116
11
72.6466
21
-42.1766
0
LINE
8
BLACK
6
CONTINUOUS
10
72.6466
20
-42.1766
11
72.6196
21
-42.1236
0
LINE
8
BLACK
6
CONTINUOUS
10
72.6196
20
-42.1236
11
72.6
21
-42
0
LINE
8
BLACK
6
CONTINUOUS
10
72.6
20
-42
11
72.6196
21
-41.8764
0
LINE
8
BLACK
6
CONTINUOUS
10
72.6196
20
-41.8764
11
72.6466
21
-41.8234
0
LINE
8
BLACK
6
CONTINUOUS
10
72.6466
20
-41.8234
11
71.9116
21
-41.0884
0
LINE
8
BLACK
6
CONTINUOUS
10
71.9116
20
-41.0884
11
71.8983
21
-41.0706
0
LINE
8
BLACK
6
CONTINUOUS
10
71.8983
20
-41.0706
11
71.8948
21
-41.0675
0
LINE
8
BLACK
6
CONTINUOUS
10
71.8948
20
-41.0675
11
71.894
21
-41.0648
0
LINE
8
BLACK
6
CONTINUOUS
10
71.894
20
-41.0648
11
71.8901
21
-41.0596
0
LINE
8
BLACK
6
CONTINUOUS
10
71.8901
20
-41.0596
11
71.8837
21
-41.0295
0
LINE
8
BLACK
6
CONTINUOUS
10
71.8837
20
-41.0295
11
71.875
21
-41
0
LINE
8
BLACK
6
CONTINUOUS
10
71.875
20
-41
11
71.875
21
-24
0
LINE
8
BLACK
6
CONTINUOUS
10
71.875
20
-24
11
71.8782
21
-23.978
0
LINE
8
BLACK
6
CONTINUOUS
10
71.8782
20
-23.978
11
71.8779
21
-23.9734
0
LINE
8
BLACK
6
CONTINUOUS
10
71.8779
20
-23.9734
11
71.8792
21
-23.9709
0
LINE
8
BLACK
6
CONTINUOUS
10
71.8792
20
-23.9709
11
71.8801
21
-23.9645
0
LINE
8
BLACK
6
CONTINUOUS
10
71.8801
20
-23.9645
11
71.8968
21
-23.9386
0
LINE
8
BLACK
6
CONTINUOUS
10
71.8968
20
-23.9386
11
71.9116
21
-23.9116
0
LINE
8
BLACK
6
CONTINUOUS
10
71.9116
20
-23.9116
11
72.6466
21
-23.1766
0
LINE
8
BLACK
6
CONTINUOUS
10
72.6466
20
-23.1766
11
72.6196
21
-23.1236
0
LINE
8
BLACK
6
CONTINUOUS
10
72.6196
20
-23.1236
11
72.6
21
-23
0
LINE
8
BLACK
6
CONTINUOUS
10
72.6
20
-23
11
72.6196
21
-22.8764
0
LINE
8
BLACK
6
CONTINUOUS
10
72.6196
20
-22.8764
11
72.6764
21
-22.7649
0
LINE
8
BLACK
6
CONTINUOUS
10
72.6764
20
-22.7649
11
72.7649
21
-22.6764
0
LINE
8
BLACK
6
CONTINUOUS
10
72.7649
20
-22.6764
11
72.8764
21
-22.6196
0
LINE
8
BLACK
6
CONTINUOUS
10
72.8764
20
-22.6196
11
73
21
-22.6
0
LINE
8
BLACK
6
CONTINUOUS
10
73
20
-22.6
11
73.1236
21
-22.6196
0
LINE
8
BLACK
6
CONTINUOUS
10
54.1236
20
-22.6196
11
54.2351
21
-22.6764
0
LINE
8
BLACK
6
CONTINUOUS
10
54.2351
20
-22.6764
11
54.3236
21
-22.7649
0
LINE
8
BLACK
6
CONTINUOUS
10
54.3236
20
-22.7649
11
54.3804
21
-22.8764
0
LINE
8
BLACK
6
CONTINUOUS
10
54.3804
20
-22.8764
11
54.4
21
-23
0
LINE
8
BLACK
6
CONTINUOUS
10
54.4
20
-23
11
54.3804
21
-23.1236
0
LINE
8
BLACK
6
CONTINUOUS
10
54.3804
20
-23.1236
11
54.3236
21
-23.2351
0
LINE
8
BLACK
6
CONTINUOUS
10
54.3236
20
-23.2351
11
54.2351
21
-23.3236
0
LINE
8
BLACK
6
CONTINUOUS
10
54.2351
20
-23.3236
11
54.1236
21
-23.3804
0
LINE
8
BLACK
6
CONTINUOUS
10
54.1236
20
-23.3804
11
54
21
-23.4
0
LINE
8
BLACK
6
CONTINUOUS
10
54
20
-23.4
11
53.8764
21
-23.3804
0
LINE
8
BLACK
6
CONTINUOUS
10
53.8764
20
-23.3804
11
53.8234
21
-23.3534
0
LINE
8
BLACK
6
CONTINUOUS
10
53.8234
20
-23.3534
11
53.125
21
-24.0518
0
LINE
8
BLACK
6
CONTINUOUS
10
53.125
20
-24.0518
11
53.125
21
-40.9482
0
LINE
8
BLACK
6
CONTINUOUS
10
53.125
20
-40.9482
11
53.8234
21
-41.6466
0
LINE
8
BLACK
6
CONTINUOUS
10
53.8234
20
-41.6466
11
53.8764
21
-41.6196
0
LINE
8
BLACK
6
CONTINUOUS
10
53.8764
20
-41.6196
11
54
21
-41.6
0
LINE
8
BLACK
6
CONTINUOUS
10
54
20
-41.6
11
54.1236
21
-41.6196
0
LINE
8
BLACK
6
CONTINUOUS
10
54.1236
20
-41.6196
11
54.2351
21
-41.6764
0
LINE
8
BLACK
6
CONTINUOUS
10
54.2351
20
-41.6764
11
54.3236
21
-41.7649
0
LINE
8
BLACK
6
CONTINUOUS
10
54.3236
20
-41.7649
11
54.3804
21
-41.8764
0
LINE
8
BLACK
6
CONTINUOUS
10
54.3804
20
-41.8764
11
54.4
21
-42
0
LINE
8
BLACK
6
CONTINUOUS
10
54.4
20
-42
11
54.3804
21
-42.1236
0
LINE
8
BLACK
6
CONTINUOUS
10
54.3804
20
-42.1236
11
54.3236
21
-42.2351
0
LINE
8
BLACK
6
CONTINUOUS
10
54.3236
20
-42.2351
11
54.2351
21
-42.3236
0
LINE
8
BLACK
6
CONTINUOUS
10
54.2351
20
-42.3236
11
54.1236
21
-42.3804
0
LINE
8
BLACK
6
CONTINUOUS
10
54.1236
20
-42.3804
11
54
21
-42.4
0
LINE
8
BLACK
6
CONTINUOUS
10
54
20
-42.4
11
53.8764
21
-42.3804
0
LINE
8
BLACK
6
CONTINUOUS
10
53.8764
20
-42.3804
11
53.8234
21
-42.3534
0
LINE
8
BLACK
6
CONTINUOUS
10
53.8234
20
-42.3534
11
53.125
21
-43.0518
0
LINE
8
BLACK
6
CONTINUOUS
10
53.125
20
-43.0518
11
53.125
21
-59.9482
0
LINE
8
BLACK
6
CONTINUOUS
10
53.125
20
-59.9482
11
53.8234
21
-60.6466
0
LINE
8
BLACK
6
CONTINUOUS
10
53.8234
20
-60.6466
11
53.8764
21
-60.6196
0
LINE
8
BLACK
6
CONTINUOUS
10
53.8764
20
-60.6196
11
54
21
-60.6
0
LINE
8
BLACK
6
CONTINUOUS
10
54
20
-60.6
11
54.1236
21
-60.6196
0
LINE
8
BLACK
6
CONTINUOUS
10
54.1236
20
-60.6196
11
54.2351
21
-60.6764
0
LINE
8
BLACK
6
CONTINUOUS
10
54.2351
20
-60.6764
11
54.3236
21
-60.7649
0
LINE
8
BLACK
6
CONTINUOUS
10
54.3236
20
-60.7649
11
54.3804
21
-60.8764
0
LINE
8
BLACK
6
CONTINUOUS
10
54.3804
20
-60.8764
11
54.4
21
-61
0
LINE
8
BLACK
6
CONTINUOUS
10
54.4
20
-61
11
54.3804
21
-61.1236
0
LINE
8
BLACK
6
CONTINUOUS
10
54.3804
20
-61.1236
11
54.3236
21
-61.2351
0
LINE
8
BLACK
6
CONTINUOUS
10
54.3236
20
-61.2351
11
54.2351
21
-61.3236
0
LINE
8
BLACK
6
CONTINUOUS
10
54.2351
20
-61.3236
11
54.1236
21
-61.3804
0
LINE
8
BLACK
6
CONTINUOUS
10
54.1236
20
-61.3804
11
54
21
-61.4
0
LINE
8
BLACK
6
CONTINUOUS
10
54
20
-61.4
11
53.8764
21
-61.3804
0
LINE
8
BLACK
6
CONTINUOUS
10
53.8764
20
-61.3804
11
53.8234
21
-61.3534
0
LINE
8
BLACK
6
CONTINUOUS
10
53.8234
20
-61.3534
11
53.125
21
-62.0518
0
LINE
8
BLACK
6
CONTINUOUS
10
53.125
20
-62.0518
11
53.125
21
-78.9482
0
LINE
8
BLACK
6
CONTINUOUS
10
53.125
20
-78.9482
11
53.8234
21
-79.6466
0
LINE
8
BLACK
6
CONTINUOUS
10
53.8234
20
-79.6466
11
53.8764
21
-79.6196
0
LINE
8
BLACK
6
CONTINUOUS
10
53.8764
20
-79.6196
11
54
21
-79.6
0
LINE
8
BLACK
6
CONTINUOUS
10
54
20
-79.6
11
54.1236
21
-79.6196
0
LINE
8
BLACK
6
CONTINUOUS
10
54.1236
20
-79.6196
11
54.2351
21
-79.6764
0
LINE
8
BLACK
6
CONTINUOUS
10
54.2351
20
-79.6764
11
54.3236
21
-79.7649
0
LINE
8
BLACK
6
CONTINUOUS
10
54.3236
20
-79.7649
11
54.3804
21
-79.8764
0
LINE
8
BLACK
6
CONTINUOUS
10
54.3804
20
-79.8764
11
54.4
21
-80
0
LINE
8
BLACK
6
CONTINUOUS
10
54.4
20
-80
11
54.3804
21
-80.1236
0
LINE
8
BLACK
6
CONTINUOUS
10
54.3804
20
-80.1236
11
54.3236
21
-80.2351
0
LINE
8
BLACK
6
CONTINUOUS
10
54.3236
20
-80.2351
11
54.2351
21
-80.3236
0
LINE
8
BLACK
6
CONTINUOUS
10
54.2351
20
-80.3236
11
54.1236
21
-80.3804
0
LINE
8
BLACK
6
CONTINUOUS
10
54.1236
20
-80.3804
11
54
21
-80.4
0
LINE
8
BLACK
6
CONTINUOUS
10
54
20
-80.4
11
53.8764
21
-80.3804
0
LINE
8
BLACK
6
CONTINUOUS
10
53.8764
20
-80.3804
11
53.8234
21
-80.3534
0
LINE
8
BLACK
6
CONTINUOUS
10
53.8234
20
-80.3534
11
53.125
21
-81.0518
0
LINE
8
BLACK
6
CONTINUOUS
10
53.125
20
-81.0518
11
53.125
21
-97.9482
0
LINE
8
BLACK
6
CONTINUOUS
10
53.125
20
-97.9482
11
53.8234
21
-98.6466
0
LINE
8
BLACK
6
CONTINUOUS
10
53.8234
20
-98.6466
11
53.8764
21
-98.6196
0
LINE
8
BLACK
6
CONTINUOUS
10
53.8764
20
-98.6196
11
54
21
-98.6
0
LINE
8
BLACK
6
CONTINUOUS
10
54
20
-98.6
11
54.1236
21
-98.6196
0
LINE
8
BLACK
6
CONTINUOUS
10
54.1236
20
-98.6196
11
54.2351
21
-98.6764
0
LINE
8
BLACK
6
CONTINUOUS
10
54.2351
20
-98.6764
11
54.3236
21
-98.7649
0
LINE
8
BLACK
6
CONTINUOUS
10
54.3236
20
-98.7649
11
54.3804
21
-98.8764
0
LINE
8
BLACK
6
CONTINUOUS
10
54.3804
20
-98.8764
11
54.4
21
-99
0
LINE
8
BLACK
6
CONTINUOUS
10
54.4
20
-99
11
54.3804
21
-99.1236
0
LINE
8
BLACK
6
CONTINUOUS
10
54.3804
20
-99.1236
11
54.3236
21
-99.2351
0
LINE
8
BLACK
6
CONTINUOUS
10
54.3236
20
-99.2351
11
54.2351
21
-99.3236
0
LINE
8
BLACK
6
CONTINUOUS
10
54.2351
20
-99.3236
11
54.1236
21
-99.3804
0
LINE
8
BLACK
6
CONTINUOUS
10
54.1236
20
-99.3804
11
54
21
-99.4
0
LINE
8
BLACK
6
CONTINUOUS
10
54
20
-99.4
11
53.8764
21
-99.3804
0
LINE
8
BLACK
6
CONTINUOUS
10
53.8764
20
-99.3804
11
53.8234
21
-99.3534
0
LINE
8
BLACK
6
CONTINUOUS
10
53.8234
20
-99.3534
11
53.125
21
-100.052
0
LINE
8
BLACK
6
CONTINUOUS
10
53.125
20
-100.052
11
53.125
21
-116.948
0
LINE
8
BLACK
6
CONTINUOUS
10
53.125
20
-116.948
11
53.8234
21
-117.647
0
LINE
8
BLACK
6
CONTINUOUS
10
53.8234
20
-117.647
11
53.8764
21
-117.62
0
LINE
8
BLACK
6
CONTINUOUS
10
53.8764
20
-117.62
11
54
21
-117.6
0
LINE
8
BLACK
6
CONTINUOUS
10
54
20
-117.6
11
54.1236
21
-117.62
0
LINE
8
BLACK
6
CONTINUOUS
10
54.1236
20
-117.62
11
54.2351
21
-117.676
0
LINE
8
BLACK
6
CONTINUOUS
10
54.2351
20
-117.676
11
54.3236
21
-117.765
0
LINE
8
BLACK
6
CONTINUOUS
10
54.3236
20
-117.765
11
54.3804
21
-117.876
0
LINE
8
BLACK
6
CONTINUOUS
10
54.3804
20
-117.876
11
54.4
21
-118
0
LINE
8
BLACK
6
CONTINUOUS
10
54.4
20
-118
11
54.3804
21
-118.124
0
LINE
8
BLACK
6
CONTINUOUS
10
54.3804
20
-118.124
11
54.3236
21
-118.235
0
LINE
8
BLACK
6
CONTINUOUS
10
54.3236
20
-118.235
11
54.2351
21
-118.324
0
LINE
8
BLACK
6
CONTINUOUS
10
54.2351
20
-118.324
11
54.1236
21
-118.38
0
LINE
8
BLACK
6
CONTINUOUS
10
54.1236
20
-118.38
11
54
21
-118.4
0
LINE
8
BLACK
6
CONTINUOUS
10
54
20
-118.4
11
53.8764
21
-118.38
0
LINE
8
BLACK
6
CONTINUOUS
10
53.8764
20
-118.38
11
53.7649
21
-118.324
0
LINE
8
BLACK
6
CONTINUOUS
10
53.7649
20
-118.324
11
53.6764
21
-118.235
0
LINE
8
BLACK
6
CONTINUOUS
10
53.6764
20
-118.235
11
53.6196
21
-118.124
0
LINE
8
BLACK
6
CONTINUOUS
10
53.6196
20
-118.124
11
53.6
21
-118
0
LINE
8
BLACK
6
CONTINUOUS
10
53.6
20
-118
11
53.6196
21
-117.876
0
LINE
8
BLACK
6
CONTINUOUS
10
53.6196
20
-117.876
11
53.6466
21
-117.823
0
LINE
8
BLACK
6
CONTINUOUS
10
53.6466
20
-117.823
11
52.9116
21
-117.088
0
LINE
8
BLACK
6
CONTINUOUS
10
52.9116
20
-117.088
11
52.8983
21
-117.071
0
LINE
8
BLACK
6
CONTINUOUS
10
52.8983
20
-117.071
11
52.8948
21
-117.068
0
LINE
8
BLACK
6
CONTINUOUS
10
52.8948
20
-117.068
11
52.894
21
-117.065
0
LINE
8
BLACK
6
CONTINUOUS
10
52.894
20
-117.065
11
52.8901
21
-117.06
0
LINE
8
BLACK
6
CONTINUOUS
10
52.8901
20
-117.06
11
52.8837
21
-117.03
0
LINE
8
BLACK
6
CONTINUOUS
10
52.8837
20
-117.03
11
52.875
21
-117
0
LINE
8
BLACK
6
CONTINUOUS
10
52.875
20
-117
11
52.875
21
-100
0
LINE
8
BLACK
6
CONTINUOUS
10
52.875
20
-100
11
52.8782
21
-99.978
0
LINE
8
BLACK
6
CONTINUOUS
10
52.8782
20
-99.978
11
52.8779
21
-99.9734
0
LINE
8
BLACK
6
CONTINUOUS
10
52.8779
20
-99.9734
11
52.8792
21
-99.9709
0
LINE
8
BLACK
6
CONTINUOUS
10
52.8792
20
-99.9709
11
52.8801
21
-99.9645
0
LINE
8
BLACK
6
CONTINUOUS
10
52.8801
20
-99.9645
11
52.8968
21
-99.9386
0
LINE
8
BLACK
6
CONTINUOUS
10
52.8968
20
-99.9386
11
52.9116
21
-99.9116
0
LINE
8
BLACK
6
CONTINUOUS
10
52.9116
20
-99.9116
11
53.6466
21
-99.1766
0
LINE
8
BLACK
6
CONTINUOUS
10
53.6466
20
-99.1766
11
53.6196
21
-99.1236
0
LINE
8
BLACK
6
CONTINUOUS
10
53.6196
20
-99.1236
11
53.6
21
-99
0
LINE
8
BLACK
6
CONTINUOUS
10
53.6
20
-99
11
53.6196
21
-98.8764
0
LINE
8
BLACK
6
CONTINUOUS
10
53.6196
20
-98.8764
11
53.6466
21
-98.8234
0
LINE
8
BLACK
6
CONTINUOUS
10
53.6466
20
-98.8234
11
52.9116
21
-98.0884
0
LINE
8
BLACK
6
CONTINUOUS
10
52.9116
20
-98.0884
11
52.8983
21
-98.0706
0
LINE
8
BLACK
6
CONTINUOUS
10
52.8983
20
-98.0706
11
52.8948
21
-98.0675
0
LINE
8
BLACK
6
CONTINUOUS
10
52.8948
20
-98.0675
11
52.894
21
-98.0648
0
LINE
8
BLACK
6
CONTINUOUS
10
52.894
20
-98.0648
11
52.8901
21
-98.0596
0
LINE
8
BLACK
6
CONTINUOUS
10
52.8901
20
-98.0596
11
52.8837
21
-98.0295
0
LINE
8
BLACK
6
CONTINUOUS
10
52.8837
20
-98.0295
11
52.875
21
-98
0
LINE
8
BLACK
6
CONTINUOUS
10
52.875
20
-98
11
52.875
21
-81
0
LINE
8
BLACK
6
CONTINUOUS
10
52.875
20
-81
11
52.8782
21
-80.978
0
LINE
8
BLACK
6
CONTINUOUS
10
52.8782
20
-80.978
11
52.8779
21
-80.9734
0
LINE
8
BLACK
6
CONTINUOUS
10
52.8779
20
-80.9734
11
52.8792
21
-80.9709
0
LINE
8
BLACK
6
CONTINUOUS
10
52.8792
20
-80.9709
11
52.8801
21
-80.9645
0
LINE
8
BLACK
6
CONTINUOUS
10
52.8801
20
-80.9645
11
52.8968
21
-80.9386
0
LINE
8
BLACK
6
CONTINUOUS
10
52.8968
20
-80.9386
11
52.9116
21
-80.9116
0
LINE
8
BLACK
6
CONTINUOUS
10
52.9116
20
-80.9116
11
53.6466
21
-80.1766
0
LINE
8
BLACK
6
CONTINUOUS
10
53.6466
20
-80.1766
11
53.6196
21
-80.1236
0
LINE
8
BLACK
6
CONTINUOUS
10
53.6196
20
-80.1236
11
53.6
21
-80
0
LINE
8
BLACK
6
CONTINUOUS
10
53.6
20
-80
11
53.6196
21
-79.8764
0
LINE
8
BLACK
6
CONTINUOUS
10
53.6196
20
-79.8764
11
53.6466
21
-79.8234
0
LINE
8
BLACK
6
CONTINUOUS
10
53.6466
20
-79.8234
11
52.9116
21
-79.0884
0
LINE
8
BLACK
6
CONTINUOUS
10
52.9116
20
-79.0884
11
52.8983
21
-79.0706
0
LINE
8
BLACK
6
CONTINUOUS
10
52.8983
20
-79.0706
11
52.8948
21
-79.0675
0
LINE
8
BLACK
6
CONTINUOUS
10
52.8948
20
-79.0675
11
52.894
21
-79.0648
0
LINE
8
BLACK
6
CONTINUOUS
10
52.894
20
-79.0648
11
52.8901
21
-79.0596
0
LINE
8
BLACK
6
CONTINUOUS
10
52.8901
20
-79.0596
11
52.8837
21
-79.0295
0
LINE
8
BLACK
6
CONTINUOUS
10
52.8837
20
-79.0295
11
52.875
21
-79
0
LINE
8
BLACK
6
CONTINUOUS
10
52.875
20
-79
11
52.875
21
-62
0
LINE
8
BLACK
6
CONTINUOUS
10
52.875
20
-62
11
52.8782
21
-61.978
0
LINE
8
BLACK
6
CONTINUOUS
10
52.8782
20
-61.978
11
52.8779
21
-61.9734
0
LINE
8
BLACK
6
CONTINUOUS
10
52.8779
20
-61.9734
11
52.8792
21
-61.9709
0
LINE
8
BLACK
6
CONTINUOUS
10
52.8792
20
-61.9709
11
52.8801
21
-61.9645
0
LINE
8
BLACK
6
CONTINUOUS
10
52.8801
20
-61.9645
11
52.8968
21
-61.9386
0
LINE
8
BLACK
6
CONTINUOUS
10
52.8968
20
-61.9386
11
52.9116
21
-61.9116
0
LINE
8
BLACK
6
CONTINUOUS
10
52.9116
20
-61.9116
11
53.6466
21
-61.1766
0
LINE
8
BLACK
6
CONTINUOUS
10
53.6466
20
-61.1766
11
53.6196
21
-61.1236
0
LINE
8
BLACK
6
CONTINUOUS
10
53.6196
20
-61.1236
11
53.6
21
-61
0
LINE
8
BLACK
6
CONTINUOUS
10
53.6
20
-61
11
53.6196
21
-60.8764
0
LINE
8
BLACK
6
CONTINUOUS
10
53.6196
20
-60.8764
11
53.6466
21
-60.8234
0
LINE
8
BLACK
6
CONTINUOUS
10
53.6466
20
-60.8234
11
52.9116
21
-60.0884
0
LINE
8
BLACK
6
CONTINUOUS
10
52.9116
20
-60.0884
11
52.8983
21
-60.0706
0
LINE
8
BLACK
6
CONTINUOUS
10
52.8983
20
-60.0706
11
52.8948
21
-60.0675
0
LINE
8
BLACK
6
CONTINUOUS
10
52.8948
20
-60.0675
11
52.894
21
-60.0648
0
LINE
8
BLACK
6
CONTINUOUS
10
52.894
20
-60.0648
11
52.8901
21
-60.0596
0
LINE
8
BLACK
6
CONTINUOUS
10
52.8901
20
-60.0596
11
52.8837
21
-60.0295
0
LINE
8
BLACK
6
CONTINUOUS
10
52.8837
20
-60.0295
11
52.875
21
-60
0
LINE
8
BLACK
6
CONTINUOUS
10
52.875
20
-60
11
52.875
21
-43
0
LINE
8
BLACK
6
CONTINUOUS
10
52.875
20
-43
11
52.8782
21
-42.978
0
LINE
8
BLACK
6
CONTINUOUS
10
52.8782
20
-42.978
11
52.8779
21
-42.9734
0
LINE
8
BLACK
6
CONTINUOUS
10
52.8779
20
-42.9734
11
52.8792
21
-42.9709
0
LINE
8
BLACK
6
CONTINUOUS
10
52.8792
20
-42.9709
11
52.8801
21
-42.9645
0
LINE
8
BLACK
6
CONTINUOUS
10
52.8801
20
-42.9645
11
52.8968
21
-42.9386
0
LINE
8
BLACK
6
CONTINUOUS
10
52.8968
20
-42.9386
11
52.9116
21
-42.9116
0
LINE
8
BLACK
6
CONTINUOUS
10
52.9116
20
-42.9116
11
53.6466
21
-42.1766
0
LINE
8
BLACK
6
CONTINUOUS
10
53.6466
20
-42.1766
11
53.6196
21
-42.1236
0
LINE
8
BLACK
6
CONTINUOUS
10
53.6196
20
-42.1236
11
53.6
21
-42
0
LINE
8
BLACK
6
CONTINUOUS
10
53.6
20
-42
11
53.6196
21
-41.8764
0
LINE
8
BLACK
6
CONTINUOUS
10
53.6196
20
-41.8764
11
53.6466
21
-41.8234
0
LINE
8
BLACK
6
CONTINUOUS
10
53.6466
20
-41.8234
11
52.9116
21
-41.0884
0
LINE
8
BLACK
6
CONTINUOUS
10
52.9116
20
-41.0884
11
52.8983
21
-41.0706
0
LINE
8
BLACK
6
CONTINUOUS
10
52.8983
20
-41.0706
11
52.8948
21
-41.0675
0
LINE
8
BLACK
6
CONTINUOUS
10
52.8948
20
-41.0675
11
52.894
21
-41.0648
0
LINE
8
BLACK
6
CONTINUOUS
10
52.894
20
-41.0648
11
52.8901
21
-41.0596
0
LINE
8
BLACK
6
CONTINUOUS
10
52.8901
20
-41.0596
11
52.8837
21
-41.0295
0
LINE
8
BLACK
6
CONTINUOUS
10
52.8837
20
-41.0295
11
52.875
21
-41
0
LINE
8
BLACK
6
CONTINUOUS
10
52.875
20
-41
11
52.875
21
-24
0
LINE
8
BLACK
6
CONTINUOUS
10
52.875
20
-24
11
52.8782
21
-23.978
0
LINE
8
BLACK
6
CONTINUOUS
10
52.8782
20
-23.978
11
52.8779
21
-23.9734
0
LINE
8
BLACK
6
CONTINUOUS
10
52.8779
20
-23.9734
11
52.8792
21
-23.9709
0
LINE
8
BLACK
6
CONTINUOUS
10
52.8792
20
-23.9709
11
52.8801
21
-23.9645
0
LINE
8
BLACK
6
CONTINUOUS
10
52.8801
20
-23.9645
11
52.8968
21
-23.9386
0
LINE
8
BLACK
6
CONTINUOUS
10
52.8968
20
-23.9386
11
52.9116
21
-23.9116
0
LINE
8
BLACK
6
CONTINUOUS
10
52.9116
20
-23.9116
11
53.6466
21
-23.1766
0
LINE
8
BLACK
6
CONTINUOUS
10
53.6466
20
-23.1766
11
53.6196
21
-23.1236
0
LINE
8
BLACK
6
CONTINUOUS
10
53.6196
20
-23.1236
11
53.6
21
-23
0
LINE
8
BLACK
6
CONTINUOUS
10
53.6
20
-23
11
53.6196
21
-22.8764
0
LINE
8
BLACK
6
CONTINUOUS
10
53.6196
20
-22.8764
11
53.6764
21
-22.7649
0
LINE
8
BLACK
6
CONTINUOUS
10
53.6764
20
-22.7649
11
53.7649
21
-22.6764
0
LINE
8
BLACK
6
CONTINUOUS
10
53.7649
20
-22.6764
11
53.8764
21
-22.6196
0
LINE
8
BLACK
6
CONTINUOUS
10
53.8764
20
-22.6196
11
54
21
-22.6
0
LINE
8
BLACK
6
CONTINUOUS
10
54
20
-22.6
11
54.1236
21
-22.6196
0
LINE
8
BLACK
6
CONTINUOUS
10
93.2415
20
-117.578
11
93.263
21
-117.607
0
LINE
8
BLACK
6
CONTINUOUS
10
93.263
20
-117.607
11
93.266
21
-117.621
0
LINE
8
BLACK
6
CONTINUOUS
10
93.266
20
-117.621
11
93.3358
21
-117.551
0
LINE
8
BLACK
6
CONTINUOUS
10
93.3358
20
-117.551
11
93.4473
21
-117.494
0
LINE
8
BLACK
6
CONTINUOUS
10
93.4473
20
-117.494
11
93.5709
21
-117.474
0
LINE
8
BLACK
6
CONTINUOUS
10
93.5709
20
-117.474
11
93.6945
21
-117.494
0
LINE
8
BLACK
6
CONTINUOUS
10
93.6945
20
-117.494
11
93.806
21
-117.551
0
LINE
8
BLACK
6
CONTINUOUS
10
93.806
20
-117.551
11
93.8945
21
-117.639
0
LINE
8
BLACK
6
CONTINUOUS
10
93.8945
20
-117.639
11
93.9513
21
-117.751
0
LINE
8
BLACK
6
CONTINUOUS
10
93.9513
20
-117.751
11
93.9709
21
-117.874
0
LINE
8
BLACK
6
CONTINUOUS
10
93.9709
20
-117.874
11
93.9513
21
-117.998
0
LINE
8
BLACK
6
CONTINUOUS
10
93.9513
20
-117.998
11
93.8945
21
-118.109
0
LINE
8
BLACK
6
CONTINUOUS
10
93.8945
20
-118.109
11
93.806
21
-118.198
0
LINE
8
BLACK
6
CONTINUOUS
10
93.806
20
-118.198
11
93.6945
21
-118.255
0
LINE
8
BLACK
6
CONTINUOUS
10
93.6945
20
-118.255
11
93.5709
21
-118.274
0
LINE
8
BLACK
6
CONTINUOUS
10
93.5709
20
-118.274
11
93.4473
21
-118.255
0
LINE
8
BLACK
6
CONTINUOUS
10
93.4473
20
-118.255
11
93.3358
21
-118.198
0
LINE
8
BLACK
6
CONTINUOUS
10
93.3358
20
-118.198
11
93.2473
21
-118.109
0
LINE
8
BLACK
6
CONTINUOUS
10
93.2473
20
-118.109
11
93.1905
21
-117.998
0
LINE
8
BLACK
6
CONTINUOUS
10
93.1905
20
-117.998
11
93.1709
21
-117.874
0
LINE
8
BLACK
6
CONTINUOUS
10
93.1709
20
-117.874
11
93.1851
21
-117.784
0
LINE
8
BLACK
6
CONTINUOUS
10
93.1851
20
-117.784
11
93.1265
21
-117.789
0
LINE
8
BLACK
6
CONTINUOUS
10
93.1265
20
-117.789
11
93.0648
21
-117.755
0
LINE
8
BLACK
6
CONTINUOUS
10
93.0648
20
-117.755
11
90.9116
21
-115.602
0
LINE
8
BLACK
6
CONTINUOUS
10
90.9116
20
-115.602
11
90.8983
21
-115.584
0
LINE
8
BLACK
6
CONTINUOUS
10
90.8983
20
-115.584
11
90.8948
21
-115.581
0
LINE
8
BLACK
6
CONTINUOUS
10
90.8948
20
-115.581
11
90.894
21
-115.578
0
LINE
8
BLACK
6
CONTINUOUS
10
90.894
20
-115.578
11
90.8901
21
-115.573
0
LINE
8
BLACK
6
CONTINUOUS
10
90.8901
20
-115.573
11
90.8837
21
-115.543
0
LINE
8
BLACK
6
CONTINUOUS
10
90.8837
20
-115.543
11
90.875
21
-115.513
0
LINE
8
BLACK
6
CONTINUOUS
10
90.875
20
-115.513
11
90.875
21
-100
0
LINE
8
BLACK
6
CONTINUOUS
10
90.875
20
-100
11
90.8782
21
-99.978
0
LINE
8
BLACK
6
CONTINUOUS
10
90.8782
20
-99.978
11
90.8779
21
-99.9734
0
LINE
8
BLACK
6
CONTINUOUS
10
90.8779
20
-99.9734
11
90.8792
21
-99.9709
0
LINE
8
BLACK
6
CONTINUOUS
10
90.8792
20
-99.9709
11
90.8801
21
-99.9645
0
LINE
8
BLACK
6
CONTINUOUS
10
90.8801
20
-99.9645
11
90.8968
21
-99.9386
0
LINE
8
BLACK
6
CONTINUOUS
10
90.8968
20
-99.9386
11
90.9116
21
-99.9116
0
LINE
8
BLACK
6
CONTINUOUS
10
90.9116
20
-99.9116
11
91.6466
21
-99.1766
0
LINE
8
BLACK
6
CONTINUOUS
10
91.6466
20
-99.1766
11
91.6196
21
-99.1236
0
LINE
8
BLACK
6
CONTINUOUS
10
91.6196
20
-99.1236
11
91.6
21
-99
0
LINE
8
BLACK
6
CONTINUOUS
10
91.6
20
-99
11
91.6196
21
-98.8764
0
LINE
8
BLACK
6
CONTINUOUS
10
91.6196
20
-98.8764
11
91.6466
21
-98.8234
0
LINE
8
BLACK
6
CONTINUOUS
10
91.6466
20
-98.8234
11
90.9116
21
-98.0884
0
LINE
8
BLACK
6
CONTINUOUS
10
90.9116
20
-98.0884
11
90.8983
21
-98.0706
0
LINE
8
BLACK
6
CONTINUOUS
10
90.8983
20
-98.0706
11
90.8948
21
-98.0675
0
LINE
8
BLACK
6
CONTINUOUS
10
90.8948
20
-98.0675
11
90.894
21
-98.0648
0
LINE
8
BLACK
6
CONTINUOUS
10
90.894
20
-98.0648
11
90.8901
21
-98.0596
0
LINE
8
BLACK
6
CONTINUOUS
10
90.8901
20
-98.0596
11
90.8837
21
-98.0295
0
LINE
8
BLACK
6
CONTINUOUS
10
90.8837
20
-98.0295
11
90.875
21
-98
0
LINE
8
BLACK
6
CONTINUOUS
10
90.875
20
-98
11
90.875
21
-81
0
LINE
8
BLACK
6
CONTINUOUS
10
90.875
20
-81
11
90.8782
21
-80.978
0
LINE
8
BLACK
6
CONTINUOUS
10
90.8782
20
-80.978
11
90.8779
21
-80.9734
0
LINE
8
BLACK
6
CONTINUOUS
10
90.8779
20
-80.9734
11
90.8792
21
-80.9709
0
LINE
8
BLACK
6
CONTINUOUS
10
90.8792
20
-80.9709
11
90.8801
21
-80.9645
0
LINE
8
BLACK
6
CONTINUOUS
10
90.8801
20
-80.9645
11
90.8968
21
-80.9386
0
LINE
8
BLACK
6
CONTINUOUS
10
90.8968
20
-80.9386
11
90.9116
21
-80.9116
0
LINE
8
BLACK
6
CONTINUOUS
10
90.9116
20
-80.9116
11
91.6466
21
-80.1766
0
LINE
8
BLACK
6
CONTINUOUS
10
91.6466
20
-80.1766
11
91.6196
21
-80.1236
0
LINE
8
BLACK
6
CONTINUOUS
10
91.6196
20
-80.1236
11
91.6
21
-80
0
LINE
8
BLACK
6
CONTINUOUS
10
91.6
20
-80
11
91.6196
21
-79.8764
0
LINE
8
BLACK
6
CONTINUOUS
10
91.6196
20
-79.8764
11
91.6466
21
-79.8234
0
LINE
8
BLACK
6
CONTINUOUS
10
91.6466
20
-79.8234
11
90.9116
21
-79.0884
0
LINE
8
BLACK
6
CONTINUOUS
10
90.9116
20
-79.0884
11
90.8983
21
-79.0706
0
LINE
8
BLACK
6
CONTINUOUS
10
90.8983
20
-79.0706
11
90.8948
21
-79.0675
0
LINE
8
BLACK
6
CONTINUOUS
10
90.8948
20
-79.0675
11
90.894
21
-79.0648
0
LINE
8
BLACK
6
CONTINUOUS
10
90.894
20
-79.0648
11
90.8901
21
-79.0596
0
LINE
8
BLACK
6
CONTINUOUS
10
90.8901
20
-79.0596
11
90.8837
21
-79.0295
0
LINE
8
BLACK
6
CONTINUOUS
10
90.8837
20
-79.0295
11
90.875
21
-79
0
LINE
8
BLACK
6
CONTINUOUS
10
90.875
20
-79
11
90.875
21
-62
0
LINE
8
BLACK
6
CONTINUOUS
10
90.875
20
-62
11
90.8782
21
-61.978
0
LINE
8
BLACK
6
CONTINUOUS
10
90.8782
20
-61.978
11
90.8779
21
-61.9734
0
LINE
8
BLACK
6
CONTINUOUS
10
90.8779
20
-61.9734
11
90.8792
21
-61.9709
0
LINE
8
BLACK
6
CONTINUOUS
10
90.8792
20
-61.9709
11
90.8801
21
-61.9645
0
LINE
8
BLACK
6
CONTINUOUS
10
90.8801
20
-61.9645
11
90.8968
21
-61.9386
0
LINE
8
BLACK
6
CONTINUOUS
10
90.8968
20
-61.9386
11
90.9116
21
-61.9116
0
LINE
8
BLACK
6
CONTINUOUS
10
90.9116
20
-61.9116
11
91.6466
21
-61.1766
0
LINE
8
BLACK
6
CONTINUOUS
10
91.6466
20
-61.1766
11
91.6196
21
-61.1236
0
LINE
8
BLACK
6
CONTINUOUS
10
91.6196
20
-61.1236
11
91.6
21
-61
0
LINE
8
BLACK
6
CONTINUOUS
10
91.6
20
-61
11
91.6196
21
-60.8764
0
LINE
8
BLACK
6
CONTINUOUS
10
91.6196
20
-60.8764
11
91.6466
21
-60.8234
0
LINE
8
BLACK
6
CONTINUOUS
10
91.6466
20
-60.8234
11
90.9116
21
-60.0884
0
LINE
8
BLACK
6
CONTINUOUS
10
90.9116
20
-60.0884
11
90.8983
21
-60.0706
0
LINE
8
BLACK
6
CONTINUOUS
10
90.8983
20
-60.0706
11
90.8948
21
-60.0675
0
LINE
8
BLACK
6
CONTINUOUS
10
90.8948
20
-60.0675
11
90.894
21
-60.0648
0
LINE
8
BLACK
6
CONTINUOUS
10
90.894
20
-60.0648
11
90.8901
21
-60.0596
0
LINE
8
BLACK
6
CONTINUOUS
10
90.8901
20
-60.0596
11
90.8837
21
-60.0295
0
LINE
8
BLACK
6
CONTINUOUS
10
90.8837
20
-60.0295
11
90.875
21
-60
0
LINE
8
BLACK
6
CONTINUOUS
10
90.875
20
-60
11
90.875
21
-43
0
LINE
8
BLACK
6
CONTINUOUS
10
90.875
20
-43
11
90.8782
21
-42.978
0
LINE
8
BLACK
6
CONTINUOUS
10
90.8782
20
-42.978
11
90.8779
21
-42.9734
0
LINE
8
BLACK
6
CONTINUOUS
10
90.8779
20
-42.9734
11
90.8792
21
-42.9709
0
LINE
8
BLACK
6
CONTINUOUS
10
90.8792
20
-42.9709
11
90.8801
21
-42.9645
0
LINE
8
BLACK
6
CONTINUOUS
10
90.8801
20
-42.9645
11
90.8968
21
-42.9386
0
LINE
8
BLACK
6
CONTINUOUS
10
90.8968
20
-42.9386
11
90.9116
21
-42.9116
0
LINE
8
BLACK
6
CONTINUOUS
10
90.9116
20
-42.9116
11
91.6466
21
-42.1766
0
LINE
8
BLACK
6
CONTINUOUS
10
91.6466
20
-42.1766
11
91.6196
21
-42.1236
0
LINE
8
BLACK
6
CONTINUOUS
10
91.6196
20
-42.1236
11
91.6
21
-42
0
LINE
8
BLACK
6
CONTINUOUS
10
91.6
20
-42
11
91.6196
21
-41.8764
0
LINE
8
BLACK
6
CONTINUOUS
10
91.6196
20
-41.8764
11
91.6466
21
-41.8234
0
LINE
8
BLACK
6
CONTINUOUS
10
91.6466
20
-41.8234
11
90.9116
21
-41.0884
0
LINE
8
BLACK
6
CONTINUOUS
10
90.9116
20
-41.0884
11
90.8983
21
-41.0706
0
LINE
8
BLACK
6
CONTINUOUS
10
90.8983
20
-41.0706
11
90.8948
21
-41.0675
0
LINE
8
BLACK
6
CONTINUOUS
10
90.8948
20
-41.0675
11
90.894
21
-41.0648
0
LINE
8
BLACK
6
CONTINUOUS
10
90.894
20
-41.0648
11
90.8901
21
-41.0596
0
LINE
8
BLACK
6
CONTINUOUS
10
90.8901
20
-41.0596
11
90.8837
21
-41.0295
0
LINE
8
BLACK
6
CONTINUOUS
10
90.8837
20
-41.0295
11
90.875
21
-41
0
LINE
8
BLACK
6
CONTINUOUS
10
90.875
20
-41
11
90.875
21
-24
0
LINE
8
BLACK
6
CONTINUOUS
10
90.875
20
-24
11
90.8782
21
-23.978
0
LINE
8
BLACK
6
CONTINUOUS
10
90.8782
20
-23.978
11
90.8779
21
-23.9734
0
LINE
8
BLACK
6
CONTINUOUS
10
90.8779
20
-23.9734
11
90.8792
21
-23.9709
0
LINE
8
BLACK
6
CONTINUOUS
10
90.8792
20
-23.9709
11
90.8801
21
-23.9645
0
LINE
8
BLACK
6
CONTINUOUS
10
90.8801
20
-23.9645
11
90.8968
21
-23.9386
0
LINE
8
BLACK
6
CONTINUOUS
10
90.8968
20
-23.9386
11
90.9116
21
-23.9116
0
LINE
8
BLACK
6
CONTINUOUS
10
90.9116
20
-23.9116
11
91.6466
21
-23.1766
0
LINE
8
BLACK
6
CONTINUOUS
10
91.6466
20
-23.1766
11
91.6196
21
-23.1236
0
LINE
8
BLACK
6
CONTINUOUS
10
91.6196
20
-23.1236
11
91.6
21
-23
0
LINE
8
BLACK
6
CONTINUOUS
10
91.6
20
-23
11
91.6196
21
-22.8764
0
LINE
8
BLACK
6
CONTINUOUS
10
91.6196
20
-22.8764
11
91.6764
21
-22.7649
0
LINE
8
BLACK
6
CONTINUOUS
10
91.6764
20
-22.7649
11
91.7649
21
-22.6764
0
LINE
8
BLACK
6
CONTINUOUS
10
91.7649
20
-22.6764
11
91.8764
21
-22.6196
0
LINE
8
BLACK
6
CONTINUOUS
10
91.8764
20
-22.6196
11
92
21
-22.6
0
LINE
8
BLACK
6
CONTINUOUS
10
92
20
-22.6
11
92.1236
21
-22.6196
0
LINE
8
BLACK
6
CONTINUOUS
10
92.1236
20
-22.6196
11
92.2351
21
-22.6764
0
LINE
8
BLACK
6
CONTINUOUS
10
92.2351
20
-22.6764
11
92.3236
21
-22.7649
0
LINE
8
BLACK
6
CONTINUOUS
10
92.3236
20
-22.7649
11
92.3804
21
-22.8764
0
LINE
8
BLACK
6
CONTINUOUS
10
92.3804
20
-22.8764
11
92.4
21
-23
0
LINE
8
BLACK
6
CONTINUOUS
10
92.4
20
-23
11
92.3804
21
-23.1236
0
LINE
8
BLACK
6
CONTINUOUS
10
92.3804
20
-23.1236
11
92.3236
21
-23.2351
0
LINE
8
BLACK
6
CONTINUOUS
10
92.3236
20
-23.2351
11
92.2351
21
-23.3236
0
LINE
8
BLACK
6
CONTINUOUS
10
92.2351
20
-23.3236
11
92.1236
21
-23.3804
0
LINE
8
BLACK
6
CONTINUOUS
10
92.1236
20
-23.3804
11
92
21
-23.4
0
LINE
8
BLACK
6
CONTINUOUS
10
92
20
-23.4
11
91.8764
21
-23.3804
0
LINE
8
BLACK
6
CONTINUOUS
10
91.8764
20
-23.3804
11
91.8234
21
-23.3534
0
LINE
8
BLACK
6
CONTINUOUS
10
91.8234
20
-23.3534
11
91.125
21
-24.0518
0
LINE
8
BLACK
6
CONTINUOUS
10
91.125
20
-24.0518
11
91.125
21
-40.9482
0
LINE
8
BLACK
6
CONTINUOUS
10
91.125
20
-40.9482
11
91.8234
21
-41.6466
0
LINE
8
BLACK
6
CONTINUOUS
10
91.8234
20
-41.6466
11
91.8764
21
-41.6196
0
LINE
8
BLACK
6
CONTINUOUS
10
91.8764
20
-41.6196
11
92
21
-41.6
0
LINE
8
BLACK
6
CONTINUOUS
10
92
20
-41.6
11
92.1236
21
-41.6196
0
LINE
8
BLACK
6
CONTINUOUS
10
92.1236
20
-41.6196
11
92.2351
21
-41.6764
0
LINE
8
BLACK
6
CONTINUOUS
10
92.2351
20
-41.6764
11
92.3236
21
-41.7649
0
LINE
8
BLACK
6
CONTINUOUS
10
92.3236
20
-41.7649
11
92.3804
21
-41.8764
0
LINE
8
BLACK
6
CONTINUOUS
10
92.3804
20
-41.8764
11
92.4
21
-42
0
LINE
8
BLACK
6
CONTINUOUS
10
92.4
20
-42
11
92.3804
21
-42.1236
0
LINE
8
BLACK
6
CONTINUOUS
10
92.3804
20
-42.1236
11
92.3236
21
-42.2351
0
LINE
8
BLACK
6
CONTINUOUS
10
92.3236
20
-42.2351
11
92.2351
21
-42.3236
0
LINE
8
BLACK
6
CONTINUOUS
10
92.2351
20
-42.3236
11
92.1236
21
-42.3804
0
LINE
8
BLACK
6
CONTINUOUS
10
92.1236
20
-42.3804
11
92
21
-42.4
0
LINE
8
BLACK
6
CONTINUOUS
10
92
20
-42.4
11
91.8764
21
-42.3804
0
LINE
8
BLACK
6
CONTINUOUS
10
91.8764
20
-42.3804
11
91.8234
21
-42.3534
0
LINE
8
BLACK
6
CONTINUOUS
10
91.8234
20
-42.3534
11
91.125
21
-43.0518
0
LINE
8
BLACK
6
CONTINUOUS
10
91.125
20
-43.0518
11
91.125
21
-59.9482
0
LINE
8
BLACK
6
CONTINUOUS
10
91.125
20
-59.9482
11
91.8234
21
-60.6466
0
LINE
8
BLACK
6
CONTINUOUS
10
91.8234
20
-60.6466
11
91.8764
21
-60.6196
0
LINE
8
BLACK
6
CONTINUOUS
10
91.8764
20
-60.6196
11
92
21
-60.6
0
LINE
8
BLACK
6
CONTINUOUS
10
92
20
-60.6
11
92.1236
21
-60.6196
0
LINE
8
BLACK
6
CONTINUOUS
10
92.1236
20
-60.6196
11
92.2351
21
-60.6764
0
LINE
8
BLACK
6
CONTINUOUS
10
92.2351
20
-60.6764
11
92.3236
21
-60.7649
0
LINE
8
BLACK
6
CONTINUOUS
10
92.3236
20
-60.7649
11
92.3804
21
-60.8764
0
LINE
8
BLACK
6
CONTINUOUS
10
92.3804
20
-60.8764
11
92.4
21
-61
0
LINE
8
BLACK
6
CONTINUOUS
10
92.4
20
-61
11
92.3804
21
-61.1236
0
LINE
8
BLACK
6
CONTINUOUS
10
92.3804
20
-61.1236
11
92.3236
21
-61.2351
0
LINE
8
BLACK
6
CONTINUOUS
10
92.3236
20
-61.2351
11
92.2351
21
-61.3236
0
LINE
8
BLACK
6
CONTINUOUS
10
92.2351
20
-61.3236
11
92.1236
21
-61.3804
0
LINE
8
BLACK
6
CONTINUOUS
10
92.1236
20
-61.3804
11
92
21
-61.4
0
LINE
8
BLACK
6
CONTINUOUS
10
92
20
-61.4
11
91.8764
21
-61.3804
0
LINE
8
BLACK
6
CONTINUOUS
10
91.8764
20
-61.3804
11
91.8234
21
-61.3534
0
LINE
8
BLACK
6
CONTINUOUS
10
91.8234
20
-61.3534
11
91.125
21
-62.0518
0
LINE
8
BLACK
6
CONTINUOUS
10
91.125
20
-62.0518
11
91.125
21
-78.9482
0
LINE
8
BLACK
6
CONTINUOUS
10
91.125
20
-78.9482
11
91.8234
21
-79.6466
0
LINE
8
BLACK
6
CONTINUOUS
10
91.8234
20
-79.6466
11
91.8764
21
-79.6196
0
LINE
8
BLACK
6
CONTINUOUS
10
91.8764
20
-79.6196
11
92
21
-79.6
0
LINE
8
BLACK
6
CONTINUOUS
10
92
20
-79.6
11
92.1236
21
-79.6196
0
LINE
8
BLACK
6
CONTINUOUS
10
92.1236
20
-79.6196
11
92.2351
21
-79.6764
0
LINE
8
BLACK
6
CONTINUOUS
10
92.2351
20
-79.6764
11
92.3236
21
-79.7649
0
LINE
8
BLACK
6
CONTINUOUS
10
92.3236
20
-79.7649
11
92.3804
21
-79.8764
0
LINE
8
BLACK
6
CONTINUOUS
10
92.3804
20
-79.8764
11
92.4
21
-80
0
LINE
8
BLACK
6
CONTINUOUS
10
92.4
20
-80
11
92.3804
21
-80.1236
0
LINE
8
BLACK
6
CONTINUOUS
10
92.3804
20
-80.1236
11
92.3236
21
-80.2351
0
LINE
8
BLACK
6
CONTINUOUS
10
92.3236
20
-80.2351
11
92.2351
21
-80.3236
0
LINE
8
BLACK
6
CONTINUOUS
10
92.2351
20
-80.3236
11
92.1236
21
-80.3804
0
LINE
8
BLACK
6
CONTINUOUS
10
92.1236
20
-80.3804
11
92
21
-80.4
0
LINE
8
BLACK
6
CONTINUOUS
10
92
20
-80.4
11
91.8764
21
-80.3804
0
LINE
8
BLACK
6
CONTINUOUS
10
91.8764
20
-80.3804
11
91.8234
21
-80.3534
0
LINE
8
BLACK
6
CONTINUOUS
10
91.8234
20
-80.3534
11
91.125
21
-81.0518
0
LINE
8
BLACK
6
CONTINUOUS
10
91.125
20
-81.0518
11
91.125
21
-97.9482
0
LINE
8
BLACK
6
CONTINUOUS
10
91.125
20
-97.9482
11
91.8234
21
-98.6466
0
LINE
8
BLACK
6
CONTINUOUS
10
91.8234
20
-98.6466
11
91.8764
21
-98.6196
0
LINE
8
BLACK
6
CONTINUOUS
10
91.8764
20
-98.6196
11
92
21
-98.6
0
LINE
8
BLACK
6
CONTINUOUS
10
92
20
-98.6
11
92.1236
21
-98.6196
0
LINE
8
BLACK
6
CONTINUOUS
10
92.1236
20
-98.6196
11
92.2351
21
-98.6764
0
LINE
8
BLACK
6
CONTINUOUS
10
92.2351
20
-98.6764
11
92.3236
21
-98.7649
0
LINE
8
BLACK
6
CONTINUOUS
10
92.3236
20
-98.7649
11
92.3804
21
-98.8764
0
LINE
8
BLACK
6
CONTINUOUS
10
92.3804
20
-98.8764
11
92.4
21
-99
0
LINE
8
BLACK
6
CONTINUOUS
10
92.4
20
-99
11
92.3804
21
-99.1236
0
LINE
8
BLACK
6
CONTINUOUS
10
92.3804
20
-99.1236
11
92.3236
21
-99.2351
0
LINE
8
BLACK
6
CONTINUOUS
10
92.3236
20
-99.2351
11
92.2351
21
-99.3236
0
LINE
8
BLACK
6
CONTINUOUS
10
92.2351
20
-99.3236
11
92.1236
21
-99.3804
0
LINE
8
BLACK
6
CONTINUOUS
10
92.1236
20
-99.3804
11
92
21
-99.4
0
LINE
8
BLACK
6
CONTINUOUS
10
92
20
-99.4
11
91.8764
21
-99.3804
0
LINE
8
BLACK
6
CONTINUOUS
10
91.8764
20
-99.3804
11
91.8234
21
-99.3534
0
LINE
8
BLACK
6
CONTINUOUS
10
91.8234
20
-99.3534
11
91.125
21
-100.052
0
LINE
8
BLACK
6
CONTINUOUS
10
91.125
20
-100.052
11
91.125
21
-115.462
0
LINE
8
BLACK
6
CONTINUOUS
10
91.125
20
-115.462
11
93.2415
21
-117.578
0
LINE
8
BLACK
6
CONTINUOUS
10
149.831
20
-115.12
11
149.989
21
-115.176
0
LINE
8
BLACK
6
CONTINUOUS
10
149.989
20
-115.176
11
150.13
21
-115.265
0
LINE
8
BLACK
6
CONTINUOUS
10
150.13
20
-115.265
11
150.248
21
-115.384
0
LINE
8
BLACK
6
CONTINUOUS
10
150.248
20
-115.384
11
150.336
21
-115.526
0
LINE
8
BLACK
6
CONTINUOUS
10
150.336
20
-115.526
11
150.391
21
-115.684
0
LINE
8
BLACK
6
CONTINUOUS
10
150.391
20
-115.684
11
150.41
21
-115.85
0
LINE
8
BLACK
6
CONTINUOUS
10
150.41
20
-115.85
11
150.41
21
-115.871
0
LINE
8
BLACK
6
CONTINUOUS
10
150.41
20
-115.871
11
150.386
21
-116.037
0
LINE
8
BLACK
6
CONTINUOUS
10
150.386
20
-116.037
11
150.327
21
-116.193
0
LINE
8
BLACK
6
CONTINUOUS
10
150.327
20
-116.193
11
150.235
21
-116.332
0
LINE
8
BLACK
6
CONTINUOUS
10
150.235
20
-116.332
11
150.113
21
-116.447
0
LINE
8
BLACK
6
CONTINUOUS
10
150.113
20
-116.447
11
149.97
21
-116.533
0
LINE
8
BLACK
6
CONTINUOUS
10
149.97
20
-116.533
11
149.811
21
-116.585
0
LINE
8
BLACK
6
CONTINUOUS
10
149.811
20
-116.585
11
149.644
21
-116.6
0
LINE
8
BLACK
6
CONTINUOUS
10
149.644
20
-116.6
11
149.479
21
-116.578
0
LINE
8
BLACK
6
CONTINUOUS
10
149.479
20
-116.578
11
149.322
21
-116.519
0
LINE
8
BLACK
6
CONTINUOUS
10
149.322
20
-116.519
11
149.182
21
-116.428
0
LINE
8
BLACK
6
CONTINUOUS
10
149.182
20
-116.428
11
149.066
21
-116.308
0
LINE
8
BLACK
6
CONTINUOUS
10
149.066
20
-116.308
11
148.979
21
-116.165
0
LINE
8
BLACK
6
CONTINUOUS
10
148.979
20
-116.165
11
148.926
21
-116.006
0
LINE
8
BLACK
6
CONTINUOUS
10
148.926
20
-116.006
11
148.91
21
-115.84
0
LINE
8
BLACK
6
CONTINUOUS
10
148.91
20
-115.84
11
148.931
21
-115.674
0
LINE
8
BLACK
6
CONTINUOUS
10
148.931
20
-115.674
11
148.988
21
-115.517
0
LINE
8
BLACK
6
CONTINUOUS
10
148.988
20
-115.517
11
149.079
21
-115.376
0
LINE
8
BLACK
6
CONTINUOUS
10
149.079
20
-115.376
11
149.198
21
-115.259
0
LINE
8
BLACK
6
CONTINUOUS
10
149.198
20
-115.259
11
149.341
21
-115.171
0
LINE
8
BLACK
6
CONTINUOUS
10
149.341
20
-115.171
11
149.499
21
-115.117
0
LINE
8
BLACK
6
CONTINUOUS
10
149.499
20
-115.117
11
149.665
21
-115.1
0
LINE
8
BLACK
6
CONTINUOUS
10
149.665
20
-115.1
11
149.831
21
-115.12
0
LINE
8
BLACK
6
CONTINUOUS
10
139.171
20
-112.87
11
139.329
21
-112.926
0
LINE
8
BLACK
6
CONTINUOUS
10
139.329
20
-112.926
11
139.47
21
-113.015
0
LINE
8
BLACK
6
CONTINUOUS
10
139.47
20
-113.015
11
139.588
21
-113.134
0
LINE
8
BLACK
6
CONTINUOUS
10
139.588
20
-113.134
11
139.676
21
-113.276
0
LINE
8
BLACK
6
CONTINUOUS
10
139.676
20
-113.276
11
139.731
21
-113.434
0
LINE
8
BLACK
6
CONTINUOUS
10
139.731
20
-113.434
11
139.75
21
-113.6
0
LINE
8
BLACK
6
CONTINUOUS
10
139.75
20
-113.6
11
139.75
21
-113.621
0
LINE
8
BLACK
6
CONTINUOUS
10
139.75
20
-113.621
11
139.726
21
-113.787
0
LINE
8
BLACK
6
CONTINUOUS
10
139.726
20
-113.787
11
139.667
21
-113.943
0
LINE
8
BLACK
6
CONTINUOUS
10
139.667
20
-113.943
11
139.575
21
-114.082
0
LINE
8
BLACK
6
CONTINUOUS
10
139.575
20
-114.082
11
139.453
21
-114.197
0
LINE
8
BLACK
6
CONTINUOUS
10
139.453
20
-114.197
11
139.31
21
-114.283
0
LINE
8
BLACK
6
CONTINUOUS
10
139.31
20
-114.283
11
139.151
21
-114.335
0
LINE
8
BLACK
6
CONTINUOUS
10
139.151
20
-114.335
11
138.984
21
-114.35
0
LINE
8
BLACK
6
CONTINUOUS
10
138.984
20
-114.35
11
138.819
21
-114.328
0
LINE
8
BLACK
6
CONTINUOUS
10
138.819
20
-114.328
11
138.662
21
-114.269
0
LINE
8
BLACK
6
CONTINUOUS
10
138.662
20
-114.269
11
138.522
21
-114.178
0
LINE
8
BLACK
6
CONTINUOUS
10
138.522
20
-114.178
11
138.406
21
-114.058
0
LINE
8
BLACK
6
CONTINUOUS
10
138.406
20
-114.058
11
138.319
21
-113.915
0
LINE
8
BLACK
6
CONTINUOUS
10
138.319
20
-113.915
11
138.266
21
-113.756
0
LINE
8
BLACK
6
CONTINUOUS
10
138.266
20
-113.756
11
138.25
21
-113.59
0
LINE
8
BLACK
6
CONTINUOUS
10
138.25
20
-113.59
11
138.271
21
-113.424
0
LINE
8
BLACK
6
CONTINUOUS
10
138.271
20
-113.424
11
138.328
21
-113.267
0
LINE
8
BLACK
6
CONTINUOUS
10
138.328
20
-113.267
11
138.419
21
-113.126
0
LINE
8
BLACK
6
CONTINUOUS
10
138.419
20
-113.126
11
138.538
21
-113.009
0
LINE
8
BLACK
6
CONTINUOUS
10
138.538
20
-113.009
11
138.681
21
-112.921
0
LINE
8
BLACK
6
CONTINUOUS
10
138.681
20
-112.921
11
138.839
21
-112.867
0
LINE
8
BLACK
6
CONTINUOUS
10
138.839
20
-112.867
11
139.005
21
-112.85
0
LINE
8
BLACK
6
CONTINUOUS
10
139.005
20
-112.85
11
139.171
21
-112.87
0
LINE
8
BLACK
6
CONTINUOUS
10
150.771
20
-112.87
11
150.929
21
-112.926
0
LINE
8
BLACK
6
CONTINUOUS
10
150.929
20
-112.926
11
151.07
21
-113.015
0
LINE
8
BLACK
6
CONTINUOUS
10
151.07
20
-113.015
11
151.188
21
-113.134
0
LINE
8
BLACK
6
CONTINUOUS
10
151.188
20
-113.134
11
151.276
21
-113.276
0
LINE
8
BLACK
6
CONTINUOUS
10
151.276
20
-113.276
11
151.331
21
-113.434
0
LINE
8
BLACK
6
CONTINUOUS
10
151.331
20
-113.434
11
151.35
21
-113.6
0
LINE
8
BLACK
6
CONTINUOUS
10
151.35
20
-113.6
11
151.35
21
-113.621
0
LINE
8
BLACK
6
CONTINUOUS
10
151.35
20
-113.621
11
151.326
21
-113.787
0
LINE
8
BLACK
6
CONTINUOUS
10
151.326
20
-113.787
11
151.267
21
-113.943
0
LINE
8
BLACK
6
CONTINUOUS
10
151.267
20
-113.943
11
151.175
21
-114.082
0
LINE
8
BLACK
6
CONTINUOUS
10
151.175
20
-114.082
11
151.053
21
-114.197
0
LINE
8
BLACK
6
CONTINUOUS
10
151.053
20
-114.197
11
150.91
21
-114.283
0
LINE
8
BLACK
6
CONTINUOUS
10
150.91
20
-114.283
11
150.751
21
-114.335
0
LINE
8
BLACK
6
CONTINUOUS
10
150.751
20
-114.335
11
150.584
21
-114.35
0
LINE
8
BLACK
6
CONTINUOUS
10
150.584
20
-114.35
11
150.419
21
-114.328
0
LINE
8
BLACK
6
CONTINUOUS
10
150.419
20
-114.328
11
150.262
21
-114.269
0
LINE
8
BLACK
6
CONTINUOUS
10
150.262
20
-114.269
11
150.122
21
-114.178
0
LINE
8
BLACK
6
CONTINUOUS
10
150.122
20
-114.178
11
150.006
21
-114.058
0
LINE
8
BLACK
6
CONTINUOUS
10
150.006
20
-114.058
11
149.919
21
-113.915
0
LINE
8
BLACK
6
CONTINUOUS
10
149.919
20
-113.915
11
149.866
21
-113.756
0
LINE
8
BLACK
6
CONTINUOUS
10
149.866
20
-113.756
11
149.85
21
-113.59
0
LINE
8
BLACK
6
CONTINUOUS
10
149.85
20
-113.59
11
149.871
21
-113.424
0
LINE
8
BLACK
6
CONTINUOUS
10
149.871
20
-113.424
11
149.928
21
-113.267
0
LINE
8
BLACK
6
CONTINUOUS
10
149.928
20
-113.267
11
150.019
21
-113.126
0
LINE
8
BLACK
6
CONTINUOUS
10
150.019
20
-113.126
11
150.138
21
-113.009
0
LINE
8
BLACK
6
CONTINUOUS
10
150.138
20
-113.009
11
150.281
21
-112.921
0
LINE
8
BLACK
6
CONTINUOUS
10
150.281
20
-112.921
11
150.439
21
-112.867
0
LINE
8
BLACK
6
CONTINUOUS
10
150.439
20
-112.867
11
150.605
21
-112.85
0
LINE
8
BLACK
6
CONTINUOUS
10
150.605
20
-112.85
11
150.771
21
-112.87
0
LINE
8
BLACK
6
CONTINUOUS
10
135.171
20
-112.87
11
135.329
21
-112.926
0
LINE
8
BLACK
6
CONTINUOUS
10
135.329
20
-112.926
11
135.47
21
-113.015
0
LINE
8
BLACK
6
CONTINUOUS
10
135.47
20
-113.015
11
135.588
21
-113.134
0
LINE
8
BLACK
6
CONTINUOUS
10
135.588
20
-113.134
11
135.676
21
-113.276
0
LINE
8
BLACK
6
CONTINUOUS
10
135.676
20
-113.276
11
135.731
21
-113.434
0
LINE
8
BLACK
6
CONTINUOUS
10
135.731
20
-113.434
11
135.75
21
-113.6
0
LINE
8
BLACK
6
CONTINUOUS
10
135.75
20
-113.6
11
135.75
21
-113.621
0
LINE
8
BLACK
6
CONTINUOUS
10
135.75
20
-113.621
11
135.726
21
-113.787
0
LINE
8
BLACK
6
CONTINUOUS
10
135.726
20
-113.787
11
135.667
21
-113.943
0
LINE
8
BLACK
6
CONTINUOUS
10
135.667
20
-113.943
11
135.575
21
-114.082
0
LINE
8
BLACK
6
CONTINUOUS
10
135.575
20
-114.082
11
135.453
21
-114.197
0
LINE
8
BLACK
6
CONTINUOUS
10
135.453
20
-114.197
11
135.31
21
-114.283
0
LINE
8
BLACK
6
CONTINUOUS
10
135.31
20
-114.283
11
135.151
21
-114.335
0
LINE
8
BLACK
6
CONTINUOUS
10
135.151
20
-114.335
11
134.984
21
-114.35
0
LINE
8
BLACK
6
CONTINUOUS
10
134.984
20
-114.35
11
134.819
21
-114.328
0
LINE
8
BLACK
6
CONTINUOUS
10
134.819
20
-114.328
11
134.662
21
-114.269
0
LINE
8
BLACK
6
CONTINUOUS
10
134.662
20
-114.269
11
134.522
21
-114.178
0
LINE
8
BLACK
6
CONTINUOUS
10
134.522
20
-114.178
11
134.406
21
-114.058
0
LINE
8
BLACK
6
CONTINUOUS
10
134.406
20
-114.058
11
134.319
21
-113.915
0
LINE
8
BLACK
6
CONTINUOUS
10
134.319
20
-113.915
11
134.266
21
-113.756
0
LINE
8
BLACK
6
CONTINUOUS
10
134.266
20
-113.756
11
134.25
21
-113.59
0
LINE
8
BLACK
6
CONTINUOUS
10
134.25
20
-113.59
11
134.271
21
-113.424
0
LINE
8
BLACK
6
CONTINUOUS
10
134.271
20
-113.424
11
134.328
21
-113.267
0
LINE
8
BLACK
6
CONTINUOUS
10
134.328
20
-113.267
11
134.419
21
-113.126
0
LINE
8
BLACK
6
CONTINUOUS
10
134.419
20
-113.126
11
134.538
21
-113.009
0
LINE
8
BLACK
6
CONTINUOUS
10
134.538
20
-113.009
11
134.681
21
-112.921
0
LINE
8
BLACK
6
CONTINUOUS
10
134.681
20
-112.921
11
134.839
21
-112.867
0
LINE
8
BLACK
6
CONTINUOUS
10
134.839
20
-112.867
11
135.005
21
-112.85
0
LINE
8
BLACK
6
CONTINUOUS
10
135.005
20
-112.85
11
135.171
21
-112.87
0
LINE
8
BLACK
6
CONTINUOUS
10
135.171
20
-109.87
11
135.329
21
-109.926
0
LINE
8
BLACK
6
CONTINUOUS
10
135.329
20
-109.926
11
135.47
21
-110.015
0
LINE
8
BLACK
6
CONTINUOUS
10
135.47
20
-110.015
11
135.588
21
-110.134
0
LINE
8
BLACK
6
CONTINUOUS
10
135.588
20
-110.134
11
135.676
21
-110.276
0
LINE
8
BLACK
6
CONTINUOUS
10
135.676
20
-110.276
11
135.731
21
-110.434
0
LINE
8
BLACK
6
CONTINUOUS
10
135.731
20
-110.434
11
135.75
21
-110.6
0
LINE
8
BLACK
6
CONTINUOUS
10
135.75
20
-110.6
11
135.75
21
-110.621
0
LINE
8
BLACK
6
CONTINUOUS
10
135.75
20
-110.621
11
135.726
21
-110.787
0
LINE
8
BLACK
6
CONTINUOUS
10
135.726
20
-110.787
11
135.667
21
-110.943
0
LINE
8
BLACK
6
CONTINUOUS
10
135.667
20
-110.943
11
135.575
21
-111.082
0
LINE
8
BLACK
6
CONTINUOUS
10
135.575
20
-111.082
11
135.453
21
-111.197
0
LINE
8
BLACK
6
CONTINUOUS
10
135.453
20
-111.197
11
135.31
21
-111.283
0
LINE
8
BLACK
6
CONTINUOUS
10
135.31
20
-111.283
11
135.151
21
-111.335
0
LINE
8
BLACK
6
CONTINUOUS
10
135.151
20
-111.335
11
134.984
21
-111.35
0
LINE
8
BLACK
6
CONTINUOUS
10
134.984
20
-111.35
11
134.819
21
-111.328
0
LINE
8
BLACK
6
CONTINUOUS
10
134.819
20
-111.328
11
134.662
21
-111.269
0
LINE
8
BLACK
6
CONTINUOUS
10
134.662
20
-111.269
11
134.522
21
-111.178
0
LINE
8
BLACK
6
CONTINUOUS
10
134.522
20
-111.178
11
134.406
21
-111.058
0
LINE
8
BLACK
6
CONTINUOUS
10
134.406
20
-111.058
11
134.319
21
-110.915
0
LINE
8
BLACK
6
CONTINUOUS
10
134.319
20
-110.915
11
134.266
21
-110.756
0
LINE
8
BLACK
6
CONTINUOUS
10
134.266
20
-110.756
11
134.25
21
-110.59
0
LINE
8
BLACK
6
CONTINUOUS
10
134.25
20
-110.59
11
134.271
21
-110.424
0
LINE
8
BLACK
6
CONTINUOUS
10
134.271
20
-110.424
11
134.328
21
-110.267
0
LINE
8
BLACK
6
CONTINUOUS
10
134.328
20
-110.267
11
134.419
21
-110.126
0
LINE
8
BLACK
6
CONTINUOUS
10
134.419
20
-110.126
11
134.538
21
-110.009
0
LINE
8
BLACK
6
CONTINUOUS
10
134.538
20
-110.009
11
134.681
21
-109.921
0
LINE
8
BLACK
6
CONTINUOUS
10
134.681
20
-109.921
11
134.839
21
-109.867
0
LINE
8
BLACK
6
CONTINUOUS
10
134.839
20
-109.867
11
135.005
21
-109.85
0
LINE
8
BLACK
6
CONTINUOUS
10
135.005
20
-109.85
11
135.171
21
-109.87
0
LINE
8
BLACK
6
CONTINUOUS
10
150.771
20
-109.87
11
150.929
21
-109.926
0
LINE
8
BLACK
6
CONTINUOUS
10
150.929
20
-109.926
11
151.07
21
-110.015
0
LINE
8
BLACK
6
CONTINUOUS
10
151.07
20
-110.015
11
151.188
21
-110.134
0
LINE
8
BLACK
6
CONTINUOUS
10
151.188
20
-110.134
11
151.276
21
-110.276
0
LINE
8
BLACK
6
CONTINUOUS
10
151.276
20
-110.276
11
151.331
21
-110.434
0
LINE
8
BLACK
6
CONTINUOUS
10
151.331
20
-110.434
11
151.35
21
-110.6
0
LINE
8
BLACK
6
CONTINUOUS
10
151.35
20
-110.6
11
151.35
21
-110.621
0
LINE
8
BLACK
6
CONTINUOUS
10
151.35
20
-110.621
11
151.326
21
-110.787
0
LINE
8
BLACK
6
CONTINUOUS
10
151.326
20
-110.787
11
151.267
21
-110.943
0
LINE
8
BLACK
6
CONTINUOUS
10
151.267
20
-110.943
11
151.175
21
-111.082
0
LINE
8
BLACK
6
CONTINUOUS
10
151.175
20
-111.082
11
151.053
21
-111.197
0
LINE
8
BLACK
6
CONTINUOUS
10
151.053
20
-111.197
11
150.91
21
-111.283
0
LINE
8
BLACK
6
CONTINUOUS
10
150.91
20
-111.283
11
150.751
21
-111.335
0
LINE
8
BLACK
6
CONTINUOUS
10
150.751
20
-111.335
11
150.584
21
-111.35
0
LINE
8
BLACK
6
CONTINUOUS
10
150.584
20
-111.35
11
150.419
21
-111.328
0
LINE
8
BLACK
6
CONTINUOUS
10
150.419
20
-111.328
11
150.262
21
-111.269
0
LINE
8
BLACK
6
CONTINUOUS
10
150.262
20
-111.269
11
150.122
21
-111.178
0
LINE
8
BLACK
6
CONTINUOUS
10
150.122
20
-111.178
11
150.006
21
-111.058
0
LINE
8
BLACK
6
CONTINUOUS
10
150.006
20
-111.058
11
149.919
21
-110.915
0
LINE
8
BLACK
6
CONTINUOUS
10
149.919
20
-110.915
11
149.866
21
-110.756
0
LINE
8
BLACK
6
CONTINUOUS
10
149.866
20
-110.756
11
149.85
21
-110.59
0
LINE
8
BLACK
6
CONTINUOUS
10
149.85
20
-110.59
11
149.871
21
-110.424
0
LINE
8
BLACK
6
CONTINUOUS
10
149.871
20
-110.424
11
149.928
21
-110.267
0
LINE
8
BLACK
6
CONTINUOUS
10
149.928
20
-110.267
11
150.019
21
-110.126
0
LINE
8
BLACK
6
CONTINUOUS
10
150.019
20
-110.126
11
150.138
21
-110.009
0
LINE
8
BLACK
6
CONTINUOUS
10
150.138
20
-110.009
11
150.281
21
-109.921
0
LINE
8
BLACK
6
CONTINUOUS
10
150.281
20
-109.921
11
150.439
21
-109.867
0
LINE
8
BLACK
6
CONTINUOUS
10
150.439
20
-109.867
11
150.605
21
-109.85
0
LINE
8
BLACK
6
CONTINUOUS
10
150.605
20
-109.85
11
150.771
21
-109.87
0
LINE
8
BLACK
6
CONTINUOUS
10
141.971
20
-105.59
11
142.129
21
-105.646
0
LINE
8
BLACK
6
CONTINUOUS
10
142.129
20
-105.646
11
142.27
21
-105.735
0
LINE
8
BLACK
6
CONTINUOUS
10
142.27
20
-105.735
11
142.388
21
-105.854
0
LINE
8
BLACK
6
CONTINUOUS
10
142.388
20
-105.854
11
142.476
21
-105.996
0
LINE
8
BLACK
6
CONTINUOUS
10
142.476
20
-105.996
11
142.531
21
-106.154
0
LINE
8
BLACK
6
CONTINUOUS
10
142.531
20
-106.154
11
142.55
21
-106.32
0
LINE
8
BLACK
6
CONTINUOUS
10
142.55
20
-106.32
11
142.55
21
-106.341
0
LINE
8
BLACK
6
CONTINUOUS
10
142.55
20
-106.341
11
142.526
21
-106.507
0
LINE
8
BLACK
6
CONTINUOUS
10
142.526
20
-106.507
11
142.467
21
-106.663
0
LINE
8
BLACK
6
CONTINUOUS
10
142.467
20
-106.663
11
142.375
21
-106.802
0
LINE
8
BLACK
6
CONTINUOUS
10
142.375
20
-106.802
11
142.253
21
-106.917
0
LINE
8
BLACK
6
CONTINUOUS
10
142.253
20
-106.917
11
142.11
21
-107.003
0
LINE
8
BLACK
6
CONTINUOUS
10
142.11
20
-107.003
11
141.951
21
-107.055
0
LINE
8
BLACK
6
CONTINUOUS
10
141.951
20
-107.055
11
141.784
21
-107.07
0
LINE
8
BLACK
6
CONTINUOUS
10
141.784
20
-107.07
11
141.619
21
-107.048
0
LINE
8
BLACK
6
CONTINUOUS
10
141.619
20
-107.048
11
141.462
21
-106.989
0
LINE
8
BLACK
6
CONTINUOUS
10
141.462
20
-106.989
11
141.322
21
-106.898
0
LINE
8
BLACK
6
CONTINUOUS
10
141.322
20
-106.898
11
141.206
21
-106.778
0
LINE
8
BLACK
6
CONTINUOUS
10
141.206
20
-106.778
11
141.119
21
-106.635
0
LINE
8
BLACK
6
CONTINUOUS
10
141.119
20
-106.635
11
141.066
21
-106.476
0
LINE
8
BLACK
6
CONTINUOUS
10
141.066
20
-106.476
11
141.05
21
-106.31
0
LINE
8
BLACK
6
CONTINUOUS
10
141.05
20
-106.31
11
141.071
21
-106.144
0
LINE
8
BLACK
6
CONTINUOUS
10
141.071
20
-106.144
11
141.128
21
-105.987
0
LINE
8
BLACK
6
CONTINUOUS
10
141.128
20
-105.987
11
141.219
21
-105.846
0
LINE
8
BLACK
6
CONTINUOUS
10
141.219
20
-105.846
11
141.338
21
-105.729
0
LINE
8
BLACK
6
CONTINUOUS
10
141.338
20
-105.729
11
141.481
21
-105.641
0
LINE
8
BLACK
6
CONTINUOUS
10
141.481
20
-105.641
11
141.639
21
-105.587
0
LINE
8
BLACK
6
CONTINUOUS
10
141.639
20
-105.587
11
141.805
21
-105.57
0
LINE
8
BLACK
6
CONTINUOUS
10
141.805
20
-105.57
11
141.971
21
-105.59
0
LINE
8
BLACK
6
CONTINUOUS
10
141.471
20
-103.57
11
141.629
21
-103.626
0
LINE
8
BLACK
6
CONTINUOUS
10
141.629
20
-103.626
11
141.77
21
-103.715
0
LINE
8
BLACK
6
CONTINUOUS
10
141.77
20
-103.715
11
141.888
21
-103.834
0
LINE
8
BLACK
6
CONTINUOUS
10
141.888
20
-103.834
11
141.976
21
-103.976
0
LINE
8
BLACK
6
CONTINUOUS
10
141.976
20
-103.976
11
142.031
21
-104.134
0
LINE
8
BLACK
6
CONTINUOUS
10
142.031
20
-104.134
11
142.05
21
-104.3
0
LINE
8
BLACK
6
CONTINUOUS
10
142.05
20
-104.3
11
142.05
21
-104.321
0
LINE
8
BLACK
6
CONTINUOUS
10
142.05
20
-104.321
11
142.026
21
-104.487
0
LINE
8
BLACK
6
CONTINUOUS
10
142.026
20
-104.487
11
141.967
21
-104.643
0
LINE
8
BLACK
6
CONTINUOUS
10
141.967
20
-104.643
11
141.875
21
-104.782
0
LINE
8
BLACK
6
CONTINUOUS
10
141.875
20
-104.782
11
141.753
21
-104.897
0
LINE
8
BLACK
6
CONTINUOUS
10
141.753
20
-104.897
11
141.61
21
-104.983
0
LINE
8
BLACK
6
CONTINUOUS
10
141.61
20
-104.983
11
141.451
21
-105.035
0
LINE
8
BLACK
6
CONTINUOUS
10
141.451
20
-105.035
11
141.284
21
-105.05
0
LINE
8
BLACK
6
CONTINUOUS
10
141.284
20
-105.05
11
141.119
21
-105.028
0
LINE
8
BLACK
6
CONTINUOUS
10
141.119
20
-105.028
11
140.962
21
-104.969
0
LINE
8
BLACK
6
CONTINUOUS
10
140.962
20
-104.969
11
140.822
21
-104.878
0
LINE
8
BLACK
6
CONTINUOUS
10
140.822
20
-104.878
11
140.706
21
-104.758
0
LINE
8
BLACK
6
CONTINUOUS
10
140.706
20
-104.758
11
140.619
21
-104.615
0
LINE
8
BLACK
6
CONTINUOUS
10
140.619
20
-104.615
11
140.566
21
-104.456
0
LINE
8
BLACK
6
CONTINUOUS
10
140.566
20
-104.456
11
140.55
21
-104.29
0
LINE
8
BLACK
6
CONTINUOUS
10
140.55
20
-104.29
11
140.571
21
-104.124
0
LINE
8
BLACK
6
CONTINUOUS
10
140.571
20
-104.124
11
140.628
21
-103.967
0
LINE
8
BLACK
6
CONTINUOUS
10
140.628
20
-103.967
11
140.719
21
-103.826
0
LINE
8
BLACK
6
CONTINUOUS
10
140.719
20
-103.826
11
140.838
21
-103.709
0
LINE
8
BLACK
6
CONTINUOUS
10
140.838
20
-103.709
11
140.981
21
-103.621
0
LINE
8
BLACK
6
CONTINUOUS
10
140.981
20
-103.621
11
141.139
21
-103.567
0
LINE
8
BLACK
6
CONTINUOUS
10
141.139
20
-103.567
11
141.305
21
-103.55
0
LINE
8
BLACK
6
CONTINUOUS
10
141.305
20
-103.55
11
141.471
21
-103.57
0
LINE
8
BLACK
6
CONTINUOUS
10
144.471
20
-103.57
11
144.629
21
-103.626
0
LINE
8
BLACK
6
CONTINUOUS
10
144.629
20
-103.626
11
144.77
21
-103.715
0
LINE
8
BLACK
6
CONTINUOUS
10
144.77
20
-103.715
11
144.888
21
-103.834
0
LINE
8
BLACK
6
CONTINUOUS
10
144.888
20
-103.834
11
144.976
21
-103.976
0
LINE
8
BLACK
6
CONTINUOUS
10
144.976
20
-103.976
11
145.031
21
-104.134
0
LINE
8
BLACK
6
CONTINUOUS
10
145.031
20
-104.134
11
145.05
21
-104.3
0
LINE
8
BLACK
6
CONTINUOUS
10
145.05
20
-104.3
11
145.05
21
-104.321
0
LINE
8
BLACK
6
CONTINUOUS
10
145.05
20
-104.321
11
145.026
21
-104.487
0
LINE
8
BLACK
6
CONTINUOUS
10
145.026
20
-104.487
11
144.967
21
-104.643
0
LINE
8
BLACK
6
CONTINUOUS
10
144.967
20
-104.643
11
144.875
21
-104.782
0
LINE
8
BLACK
6
CONTINUOUS
10
144.875
20
-104.782
11
144.753
21
-104.897
0
LINE
8
BLACK
6
CONTINUOUS
10
144.753
20
-104.897
11
144.61
21
-104.983
0
LINE
8
BLACK
6
CONTINUOUS
10
144.61
20
-104.983
11
144.451
21
-105.035
0
LINE
8
BLACK
6
CONTINUOUS
10
144.451
20
-105.035
11
144.284
21
-105.05
0
LINE
8
BLACK
6
CONTINUOUS
10
144.284
20
-105.05
11
144.119
21
-105.028
0
LINE
8
BLACK
6
CONTINUOUS
10
144.119
20
-105.028
11
143.962
21
-104.969
0
LINE
8
BLACK
6
CONTINUOUS
10
143.962
20
-104.969
11
143.822
21
-104.878
0
LINE
8
BLACK
6
CONTINUOUS
10
143.822
20
-104.878
11
143.706
21
-104.758
0
LINE
8
BLACK
6
CONTINUOUS
10
143.706
20
-104.758
11
143.619
21
-104.615
0
LINE
8
BLACK
6
CONTINUOUS
10
143.619
20
-104.615
11
143.566
21
-104.456
0
LINE
8
BLACK
6
CONTINUOUS
10
143.566
20
-104.456
11
143.55
21
-104.29
0
LINE
8
BLACK
6
CONTINUOUS
10
143.55
20
-104.29
11
143.571
21
-104.124
0
LINE
8
BLACK
6
CONTINUOUS
10
143.571
20
-104.124
11
143.628
21
-103.967
0
LINE
8
BLACK
6
CONTINUOUS
10
143.628
20
-103.967
11
143.719
21
-103.826
0
LINE
8
BLACK
6
CONTINUOUS
10
143.719
20
-103.826
11
143.838
21
-103.709
0
LINE
8
BLACK
6
CONTINUOUS
10
143.838
20
-103.709
11
143.981
21
-103.621
0
LINE
8
BLACK
6
CONTINUOUS
10
143.981
20
-103.621
11
144.139
21
-103.567
0
LINE
8
BLACK
6
CONTINUOUS
10
144.139
20
-103.567
11
144.305
21
-103.55
0
LINE
8
BLACK
6
CONTINUOUS
10
144.305
20
-103.55
11
144.471
21
-103.57
0
LINE
8
BLACK
6
CONTINUOUS
10
146.445
20
-96.765
11
144.745
21
-96.765
0
LINE
8
BLACK
6
CONTINUOUS
10
144.745
20
-96.765
11
144.745
21
-95.065
0
LINE
8
BLACK
6
CONTINUOUS
10
144.745
20
-95.065
11
146.445
21
-95.065
0
LINE
8
BLACK
6
CONTINUOUS
10
146.445
20
-95.065
11
146.445
21
-96.765
0
LINE
8
BLACK
6
CONTINUOUS
10
143.318
20
-95.1066
11
143.48
21
-95.1789
0
LINE
8
BLACK
6
CONTINUOUS
10
143.48
20
-95.1789
11
143.624
21
-95.2833
0
LINE
8
BLACK
6
CONTINUOUS
10
143.624
20
-95.2833
11
143.743
21
-95.4154
0
LINE
8
BLACK
6
CONTINUOUS
10
143.743
20
-95.4154
11
143.832
21
-95.5693
0
LINE
8
BLACK
6
CONTINUOUS
10
143.832
20
-95.5693
11
143.886
21
-95.7383
0
LINE
8
BLACK
6
CONTINUOUS
10
143.886
20
-95.7383
11
143.905
21
-95.915
0
LINE
8
BLACK
6
CONTINUOUS
10
143.905
20
-95.915
11
143.886
21
-96.0917
0
LINE
8
BLACK
6
CONTINUOUS
10
143.886
20
-96.0917
11
143.832
21
-96.2607
0
LINE
8
BLACK
6
CONTINUOUS
10
143.832
20
-96.2607
11
143.743
21
-96.4146
0
LINE
8
BLACK
6
CONTINUOUS
10
143.743
20
-96.4146
11
143.624
21
-96.5467
0
LINE
8
BLACK
6
CONTINUOUS
10
143.624
20
-96.5467
11
143.48
21
-96.6511
0
LINE
8
BLACK
6
CONTINUOUS
10
143.48
20
-96.6511
11
143.318
21
-96.7234
0
LINE
8
BLACK
6
CONTINUOUS
10
143.318
20
-96.7234
11
143.144
21
-96.7603
0
LINE
8
BLACK
6
CONTINUOUS
10
143.144
20
-96.7603
11
142.966
21
-96.7603
0
LINE
8
BLACK
6
CONTINUOUS
10
142.966
20
-96.7603
11
142.792
21
-96.7234
0
LINE
8
BLACK
6
CONTINUOUS
10
142.792
20
-96.7234
11
142.63
21
-96.6511
0
LINE
8
BLACK
6
CONTINUOUS
10
142.63
20
-96.6511
11
142.486
21
-96.5467
0
LINE
8
BLACK
6
CONTINUOUS
10
142.486
20
-96.5467
11
142.367
21
-96.4146
0
LINE
8
BLACK
6
CONTINUOUS
10
142.367
20
-96.4146
11
142.278
21
-96.2607
0
LINE
8
BLACK
6
CONTINUOUS
10
142.278
20
-96.2607
11
142.224
21
-96.0917
0
LINE
8
BLACK
6
CONTINUOUS
10
142.224
20
-96.0917
11
142.205
21
-95.915
0
LINE
8
BLACK
6
CONTINUOUS
10
142.205
20
-95.915
11
142.224
21
-95.7383
0
LINE
8
BLACK
6
CONTINUOUS
10
142.224
20
-95.7383
11
142.278
21
-95.5693
0
LINE
8
BLACK
6
CONTINUOUS
10
142.278
20
-95.5693
11
142.367
21
-95.4154
0
LINE
8
BLACK
6
CONTINUOUS
10
142.367
20
-95.4154
11
142.486
21
-95.2833
0
LINE
8
BLACK
6
CONTINUOUS
10
142.486
20
-95.2833
11
142.63
21
-95.1789
0
LINE
8
BLACK
6
CONTINUOUS
10
142.63
20
-95.1789
11
142.792
21
-95.1066
0
LINE
8
BLACK
6
CONTINUOUS
10
142.792
20
-95.1066
11
142.966
21
-95.0697
0
LINE
8
BLACK
6
CONTINUOUS
10
142.966
20
-95.0697
11
143.144
21
-95.0697
0
LINE
8
BLACK
6
CONTINUOUS
10
143.144
20
-95.0697
11
143.318
21
-95.1066
0
LINE
8
BLACK
6
CONTINUOUS
10
138.238
20
-95.1066
11
138.4
21
-95.1789
0
LINE
8
BLACK
6
CONTINUOUS
10
138.4
20
-95.1789
11
138.544
21
-95.2833
0
LINE
8
BLACK
6
CONTINUOUS
10
138.544
20
-95.2833
11
138.663
21
-95.4154
0
LINE
8
BLACK
6
CONTINUOUS
10
138.663
20
-95.4154
11
138.752
21
-95.5693
0
LINE
8
BLACK
6
CONTINUOUS
10
138.752
20
-95.5693
11
138.806
21
-95.7383
0
LINE
8
BLACK
6
CONTINUOUS
10
138.806
20
-95.7383
11
138.825
21
-95.915
0
LINE
8
BLACK
6
CONTINUOUS
10
138.825
20
-95.915
11
138.806
21
-96.0917
0
LINE
8
BLACK
6
CONTINUOUS
10
138.806
20
-96.0917
11
138.752
21
-96.2607
0
LINE
8
BLACK
6
CONTINUOUS
10
138.752
20
-96.2607
11
138.663
21
-96.4146
0
LINE
8
BLACK
6
CONTINUOUS
10
138.663
20
-96.4146
11
138.544
21
-96.5467
0
LINE
8
BLACK
6
CONTINUOUS
10
138.544
20
-96.5467
11
138.4
21
-96.6511
0
LINE
8
BLACK
6
CONTINUOUS
10
138.4
20
-96.6511
11
138.238
21
-96.7234
0
LINE
8
BLACK
6
CONTINUOUS
10
138.238
20
-96.7234
11
138.064
21
-96.7603
0
LINE
8
BLACK
6
CONTINUOUS
10
138.064
20
-96.7603
11
137.886
21
-96.7603
0
LINE
8
BLACK
6
CONTINUOUS
10
137.886
20
-96.7603
11
137.712
21
-96.7234
0
LINE
8
BLACK
6
CONTINUOUS
10
137.712
20
-96.7234
11
137.55
21
-96.6511
0
LINE
8
BLACK
6
CONTINUOUS
10
137.55
20
-96.6511
11
137.406
21
-96.5467
0
LINE
8
BLACK
6
CONTINUOUS
10
137.406
20
-96.5467
11
137.287
21
-96.4146
0
LINE
8
BLACK
6
CONTINUOUS
10
137.287
20
-96.4146
11
137.198
21
-96.2607
0
LINE
8
BLACK
6
CONTINUOUS
10
137.198
20
-96.2607
11
137.144
21
-96.0917
0
LINE
8
BLACK
6
CONTINUOUS
10
137.144
20
-96.0917
11
137.125
21
-95.915
0
LINE
8
BLACK
6
CONTINUOUS
10
137.125
20
-95.915
11
137.144
21
-95.7383
0
LINE
8
BLACK
6
CONTINUOUS
10
137.144
20
-95.7383
11
137.198
21
-95.5693
0
LINE
8
BLACK
6
CONTINUOUS
10
137.198
20
-95.5693
11
137.287
21
-95.4154
0
LINE
8
BLACK
6
CONTINUOUS
10
137.287
20
-95.4154
11
137.406
21
-95.2833
0
LINE
8
BLACK
6
CONTINUOUS
10
137.406
20
-95.2833
11
137.55
21
-95.1789
0
LINE
8
BLACK
6
CONTINUOUS
10
137.55
20
-95.1789
11
137.712
21
-95.1066
0
LINE
8
BLACK
6
CONTINUOUS
10
137.712
20
-95.1066
11
137.886
21
-95.0697
0
LINE
8
BLACK
6
CONTINUOUS
10
137.886
20
-95.0697
11
138.064
21
-95.0697
0
LINE
8
BLACK
6
CONTINUOUS
10
138.064
20
-95.0697
11
138.238
21
-95.1066
0
LINE
8
BLACK
6
CONTINUOUS
10
140.778
20
-95.1066
11
140.94
21
-95.1789
0
LINE
8
BLACK
6
CONTINUOUS
10
140.94
20
-95.1789
11
141.084
21
-95.2833
0
LINE
8
BLACK
6
CONTINUOUS
10
141.084
20
-95.2833
11
141.203
21
-95.4154
0
LINE
8
BLACK
6
CONTINUOUS
10
141.203
20
-95.4154
11
141.292
21
-95.5693
0
LINE
8
BLACK
6
CONTINUOUS
10
141.292
20
-95.5693
11
141.346
21
-95.7383
0
LINE
8
BLACK
6
CONTINUOUS
10
141.346
20
-95.7383
11
141.365
21
-95.915
0
LINE
8
BLACK
6
CONTINUOUS
10
141.365
20
-95.915
11
141.346
21
-96.0917
0
LINE
8
BLACK
6
CONTINUOUS
10
141.346
20
-96.0917
11
141.292
21
-96.2607
0
LINE
8
BLACK
6
CONTINUOUS
10
141.292
20
-96.2607
11
141.203
21
-96.4146
0
LINE
8
BLACK
6
CONTINUOUS
10
141.203
20
-96.4146
11
141.084
21
-96.5467
0
LINE
8
BLACK
6
CONTINUOUS
10
141.084
20
-96.5467
11
140.94
21
-96.6511
0
LINE
8
BLACK
6
CONTINUOUS
10
140.94
20
-96.6511
11
140.778
21
-96.7234
0
LINE
8
BLACK
6
CONTINUOUS
10
140.778
20
-96.7234
11
140.604
21
-96.7603
0
LINE
8
BLACK
6
CONTINUOUS
10
140.604
20
-96.7603
11
140.426
21
-96.7603
0
LINE
8
BLACK
6
CONTINUOUS
10
140.426
20
-96.7603
11
140.252
21
-96.7234
0
LINE
8
BLACK
6
CONTINUOUS
10
140.252
20
-96.7234
11
140.09
21
-96.6511
0
LINE
8
BLACK
6
CONTINUOUS
10
140.09
20
-96.6511
11
139.946
21
-96.5467
0
LINE
8
BLACK
6
CONTINUOUS
10
139.946
20
-96.5467
11
139.827
21
-96.4146
0
LINE
8
BLACK
6
CONTINUOUS
10
139.827
20
-96.4146
11
139.738
21
-96.2607
0
LINE
8
BLACK
6
CONTINUOUS
10
139.738
20
-96.2607
11
139.684
21
-96.0917
0
LINE
8
BLACK
6
CONTINUOUS
10
139.684
20
-96.0917
11
139.665
21
-95.915
0
LINE
8
BLACK
6
CONTINUOUS
10
139.665
20
-95.915
11
139.684
21
-95.7383
0
LINE
8
BLACK
6
CONTINUOUS
10
139.684
20
-95.7383
11
139.738
21
-95.5693
0
LINE
8
BLACK
6
CONTINUOUS
10
139.738
20
-95.5693
11
139.827
21
-95.4154
0
LINE
8
BLACK
6
CONTINUOUS
10
139.827
20
-95.4154
11
139.946
21
-95.2833
0
LINE
8
BLACK
6
CONTINUOUS
10
139.946
20
-95.2833
11
140.09
21
-95.1789
0
LINE
8
BLACK
6
CONTINUOUS
10
140.09
20
-95.1789
11
140.252
21
-95.1066
0
LINE
8
BLACK
6
CONTINUOUS
10
140.252
20
-95.1066
11
140.426
21
-95.0697
0
LINE
8
BLACK
6
CONTINUOUS
10
140.426
20
-95.0697
11
140.604
21
-95.0697
0
LINE
8
BLACK
6
CONTINUOUS
10
140.604
20
-95.0697
11
140.778
21
-95.1066
0
LINE
8
BLACK
6
CONTINUOUS
10
146
20
-90.4
11
144.3
21
-90.4
0
LINE
8
BLACK
6
CONTINUOUS
10
144.3
20
-90.4
11
144.3
21
-89.4
0
LINE
8
BLACK
6
CONTINUOUS
10
144.3
20
-89.4
11
146
21
-89.4
0
LINE
8
BLACK
6
CONTINUOUS
10
146
20
-89.4
11
146
21
-90.4
0
LINE
8
BLACK
6
CONTINUOUS
10
139.7
20
-90.4
11
138
21
-90.4
0
LINE
8
BLACK
6
CONTINUOUS
10
138
20
-90.4
11
138
21
-89.4
0
LINE
8
BLACK
6
CONTINUOUS
10
138
20
-89.4
11
139.7
21
-89.4
0
LINE
8
BLACK
6
CONTINUOUS
10
139.7
20
-89.4
11
139.7
21
-90.4
0
LINE
8
BLACK
6
CONTINUOUS
10
146
20
-86.6
11
144.3
21
-86.6
0
LINE
8
BLACK
6
CONTINUOUS
10
144.3
20
-86.6
11
144.3
21
-85.6
0
LINE
8
BLACK
6
CONTINUOUS
10
144.3
20
-85.6
11
146
21
-85.6
0
LINE
8
BLACK
6
CONTINUOUS
10
146
20
-85.6
11
146
21
-86.6
0
LINE
8
BLACK
6
CONTINUOUS
10
139.7
20
-86.6
11
138
21
-86.6
0
LINE
8
BLACK
6
CONTINUOUS
10
138
20
-86.6
11
138
21
-85.6
0
LINE
8
BLACK
6
CONTINUOUS
10
138
20
-85.6
11
139.7
21
-85.6
0
LINE
8
BLACK
6
CONTINUOUS
10
139.7
20
-85.6
11
139.7
21
-86.6
0
LINE
8
BLACK
6
CONTINUOUS
10
138.044
20
-69.0442
11
137.549
21
-69.5392
0
LINE
8
BLACK
6
CONTINUOUS
10
137.549
20
-69.5392
11
136.471
21
-68.4615
0
LINE
8
BLACK
6
CONTINUOUS
10
136.471
20
-68.4615
11
136.966
21
-67.9666
0
LINE
8
BLACK
6
CONTINUOUS
10
136.966
20
-67.9666
11
138.044
21
-69.0442
0
LINE
8
BLACK
6
CONTINUOUS
10
138.822
20
-68.2664
11
138.327
21
-68.7614
0
LINE
8
BLACK
6
CONTINUOUS
10
138.327
20
-68.7614
11
137.249
21
-67.6837
0
LINE
8
BLACK
6
CONTINUOUS
10
137.249
20
-67.6837
11
137.744
21
-67.1887
0
LINE
8
BLACK
6
CONTINUOUS
10
137.744
20
-67.1887
11
138.822
21
-68.2664
0
LINE
8
BLACK
6
CONTINUOUS
10
139.599
20
-67.4886
11
139.105
21
-67.9835
0
LINE
8
BLACK
6
CONTINUOUS
10
139.105
20
-67.9835
11
138.027
21
-66.9059
0
LINE
8
BLACK
6
CONTINUOUS
10
138.027
20
-66.9059
11
138.522
21
-66.4109
0
LINE
8
BLACK
6
CONTINUOUS
10
138.522
20
-66.4109
11
139.599
21
-67.4886
0
LINE
8
BLACK
6
CONTINUOUS
10
140.377
20
-66.7107
11
139.882
21
-67.2057
0
LINE
8
BLACK
6
CONTINUOUS
10
139.882
20
-67.2057
11
138.805
21
-66.1281
0
LINE
8
BLACK
6
CONTINUOUS
10
138.805
20
-66.1281
11
139.3
21
-65.6331
0
LINE
8
BLACK
6
CONTINUOUS
10
139.3
20
-65.6331
11
140.377
21
-66.7107
0
LINE
8
BLACK
6
CONTINUOUS
10
141.155
20
-65.9329
11
140.66
21
-66.4279
0
LINE
8
BLACK
6
CONTINUOUS
10
140.66
20
-66.4279
11
139.583
21
-65.3503
0
LINE
8
BLACK
6
CONTINUOUS
10
139.583
20
-65.3503
11
140.077
21
-64.8553
0
LINE
8
BLACK
6
CONTINUOUS
10
140.077
20
-64.8553
11
141.155
21
-65.9329
0
LINE
8
BLACK
6
CONTINUOUS
10
141.933
20
-65.1551
11
141.438
21
-65.6501
0
LINE
8
BLACK
6
CONTINUOUS
10
141.438
20
-65.6501
11
140.36
21
-64.5725
0
LINE
8
BLACK
6
CONTINUOUS
10
140.36
20
-64.5725
11
140.855
21
-64.0775
0
LINE
8
BLACK
6
CONTINUOUS
10
140.855
20
-64.0775
11
141.933
21
-65.1551
0
LINE
8
BLACK
6
CONTINUOUS
10
142.711
20
-64.3773
11
142.216
21
-64.8723
0
LINE
8
BLACK
6
CONTINUOUS
10
142.216
20
-64.8723
11
141.138
21
-63.7946
0
LINE
8
BLACK
6
CONTINUOUS
10
141.138
20
-63.7946
11
141.633
21
-63.2997
0
LINE
8
BLACK
6
CONTINUOUS
10
141.633
20
-63.2997
11
142.711
21
-64.3773
0
LINE
8
BLACK
6
CONTINUOUS
10
143.489
20
-63.5995
11
142.994
21
-64.0945
0
LINE
8
BLACK
6
CONTINUOUS
10
142.994
20
-64.0945
11
141.916
21
-63.0168
0
LINE
8
BLACK
6
CONTINUOUS
10
141.916
20
-63.0168
11
142.411
21
-62.5218
0
LINE
8
BLACK
6
CONTINUOUS
10
142.411
20
-62.5218
11
143.489
21
-63.5995
0
LINE
8
BLACK
6
CONTINUOUS
10
132.033
20
-63.0338
11
131.538
21
-63.5288
0
LINE
8
BLACK
6
CONTINUOUS
10
131.538
20
-63.5288
11
130.461
21
-62.4511
0
LINE
8
BLACK
6
CONTINUOUS
10
130.461
20
-62.4511
11
130.956
21
-61.9562
0
LINE
8
BLACK
6
CONTINUOUS
10
130.956
20
-61.9562
11
132.033
21
-63.0338
0
LINE
8
BLACK
6
CONTINUOUS
10
144.266
20
-62.8217
11
143.771
21
-63.3166
0
LINE
8
BLACK
6
CONTINUOUS
10
143.771
20
-63.3166
11
142.694
21
-62.239
0
LINE
8
BLACK
6
CONTINUOUS
10
142.694
20
-62.239
11
143.189
21
-61.744
0
LINE
8
BLACK
6
CONTINUOUS
10
143.189
20
-61.744
11
144.266
21
-62.8217
0
LINE
8
BLACK
6
CONTINUOUS
10
132.811
20
-62.256
11
132.316
21
-62.7509
0
LINE
8
BLACK
6
CONTINUOUS
10
132.316
20
-62.7509
11
131.239
21
-61.6733
0
LINE
8
BLACK
6
CONTINUOUS
10
131.239
20
-61.6733
11
131.734
21
-61.1783
0
LINE
8
BLACK
6
CONTINUOUS
10
131.734
20
-61.1783
11
132.811
21
-62.256
0
LINE
8
BLACK
6
CONTINUOUS
10
133.589
20
-61.4782
11
133.094
21
-61.9731
0
LINE
8
BLACK
6
CONTINUOUS
10
133.094
20
-61.9731
11
132.016
21
-60.8955
0
LINE
8
BLACK
6
CONTINUOUS
10
132.016
20
-60.8955
11
132.511
21
-60.4005
0
LINE
8
BLACK
6
CONTINUOUS
10
132.511
20
-60.4005
11
133.589
21
-61.4782
0
LINE
8
BLACK
6
CONTINUOUS
10
134.367
20
-60.7003
11
133.872
21
-61.1953
0
LINE
8
BLACK
6
CONTINUOUS
10
133.872
20
-61.1953
11
132.794
21
-60.1177
0
LINE
8
BLACK
6
CONTINUOUS
10
132.794
20
-60.1177
11
133.289
21
-59.6227
0
LINE
8
BLACK
6
CONTINUOUS
10
133.289
20
-59.6227
11
134.367
21
-60.7003
0
LINE
8
BLACK
6
CONTINUOUS
10
135.145
20
-59.9225
11
134.65
21
-60.4175
0
LINE
8
BLACK
6
CONTINUOUS
10
134.65
20
-60.4175
11
133.572
21
-59.3399
0
LINE
8
BLACK
6
CONTINUOUS
10
133.572
20
-59.3399
11
134.067
21
-58.8449
0
LINE
8
BLACK
6
CONTINUOUS
10
134.067
20
-58.8449
11
135.145
21
-59.9225
0
LINE
8
BLACK
6
CONTINUOUS
10
135.923
20
-59.1447
11
135.428
21
-59.6397
0
LINE
8
BLACK
6
CONTINUOUS
10
135.428
20
-59.6397
11
134.35
21
-58.562
0
LINE
8
BLACK
6
CONTINUOUS
10
134.35
20
-58.562
11
134.845
21
-58.0671
0
LINE
8
BLACK
6
CONTINUOUS
10
134.845
20
-58.0671
11
135.923
21
-59.1447
0
LINE
8
BLACK
6
CONTINUOUS
10
136.7
20
-58.3669
11
136.205
21
-58.8619
0
LINE
8
BLACK
6
CONTINUOUS
10
136.205
20
-58.8619
11
135.128
21
-57.7842
0
LINE
8
BLACK
6
CONTINUOUS
10
135.128
20
-57.7842
11
135.623
21
-57.2893
0
LINE
8
BLACK
6
CONTINUOUS
10
135.623
20
-57.2893
11
136.7
21
-58.3669
0
LINE
8
BLACK
6
CONTINUOUS
10
137.478
20
-57.5891
11
136.983
21
-58.084
0
LINE
8
BLACK
6
CONTINUOUS
10
136.983
20
-58.084
11
135.906
21
-57.0064
0
LINE
8
BLACK
6
CONTINUOUS
10
135.906
20
-57.0064
11
136.401
21
-56.5114
0
LINE
8
BLACK
6
CONTINUOUS
10
136.401
20
-56.5114
11
137.478
21
-57.5891
0
LINE
8
BLACK
6
CONTINUOUS
10
138.256
20
-56.8112
11
137.761
21
-57.3062
0
LINE
8
BLACK
6
CONTINUOUS
10
137.761
20
-57.3062
11
136.683
21
-56.2286
0
LINE
8
BLACK
6
CONTINUOUS
10
136.683
20
-56.2286
11
137.178
21
-55.7336
0
LINE
8
BLACK
6
CONTINUOUS
10
137.178
20
-55.7336
11
138.256
21
-56.8112
0
LINE
8
BLACK
6
CONTINUOUS
10
143.1
20
-51.7
11
139.9
21
-51.7
0
LINE
8
BLACK
6
CONTINUOUS
10
139.9
20
-51.7
11
139.9
21
-49.7
0
LINE
8
BLACK
6
CONTINUOUS
10
139.9
20
-49.7
11
143.1
21
-49.7
0
LINE
8
BLACK
6
CONTINUOUS
10
143.1
20
-49.7
11
143.1
21
-51.7
0
LINE
8
BLACK
6
CONTINUOUS
10
134.201
20
-46.6204
11
134.388
21
-46.6781
0
LINE
8
BLACK
6
CONTINUOUS
10
134.388
20
-46.6781
11
134.559
21
-46.771
0
LINE
8
BLACK
6
CONTINUOUS
10
134.559
20
-46.771
11
134.71
21
-46.8954
0
LINE
8
BLACK
6
CONTINUOUS
10
134.71
20
-46.8954
11
134.833
21
-47.0466
0
LINE
8
BLACK
6
CONTINUOUS
10
134.833
20
-47.0466
11
134.925
21
-47.2189
0
LINE
8
BLACK
6
CONTINUOUS
10
134.925
20
-47.2189
11
134.981
21
-47.4058
0
LINE
8
BLACK
6
CONTINUOUS
10
134.981
20
-47.4058
11
135
21
-47.6
0
LINE
8
BLACK
6
CONTINUOUS
10
135
20
-47.6
11
135
21
-47.6279
0
LINE
8
BLACK
6
CONTINUOUS
10
135
20
-47.6279
11
134.975
21
-47.8215
0
LINE
8
BLACK
6
CONTINUOUS
10
134.975
20
-47.8215
11
134.914
21
-48.0067
0
LINE
8
BLACK
6
CONTINUOUS
10
134.914
20
-48.0067
11
134.817
21
-48.1764
0
LINE
8
BLACK
6
CONTINUOUS
10
134.817
20
-48.1764
11
134.69
21
-48.3242
0
LINE
8
BLACK
6
CONTINUOUS
10
134.69
20
-48.3242
11
134.536
21
-48.4443
0
LINE
8
BLACK
6
CONTINUOUS
10
134.536
20
-48.4443
11
134.362
21
-48.5323
0
LINE
8
BLACK
6
CONTINUOUS
10
134.362
20
-48.5323
11
134.174
21
-48.5848
0
LINE
8
BLACK
6
CONTINUOUS
10
134.174
20
-48.5848
11
133.979
21
-48.5998
0
LINE
8
BLACK
6
CONTINUOUS
10
133.979
20
-48.5998
11
133.785
21
-48.5767
0
LINE
8
BLACK
6
CONTINUOUS
10
133.785
20
-48.5767
11
133.6
21
-48.5164
0
LINE
8
BLACK
6
CONTINUOUS
10
133.6
20
-48.5164
11
133.429
21
-48.4211
0
LINE
8
BLACK
6
CONTINUOUS
10
133.429
20
-48.4211
11
133.281
21
-48.2947
0
LINE
8
BLACK
6
CONTINUOUS
10
133.281
20
-48.2947
11
133.159
21
-48.1417
0
LINE
8
BLACK
6
CONTINUOUS
10
133.159
20
-48.1417
11
133.07
21
-47.9681
0
LINE
8
BLACK
6
CONTINUOUS
10
133.07
20
-47.9681
11
133.016
21
-47.7805
0
LINE
8
BLACK
6
CONTINUOUS
10
133.016
20
-47.7805
11
133
21
-47.586
0
LINE
8
BLACK
6
CONTINUOUS
10
133
20
-47.586
11
133.022
21
-47.3921
0
LINE
8
BLACK
6
CONTINUOUS
10
133.022
20
-47.3921
11
133.081
21
-47.2061
0
LINE
8
BLACK
6
CONTINUOUS
10
133.081
20
-47.2061
11
133.175
21
-47.035
0
LINE
8
BLACK
6
CONTINUOUS
10
133.175
20
-47.035
11
133.3
21
-46.8855
0
LINE
8
BLACK
6
CONTINUOUS
10
133.3
20
-46.8855
11
133.452
21
-46.7632
0
LINE
8
BLACK
6
CONTINUOUS
10
133.452
20
-46.7632
11
133.625
21
-46.6728
0
LINE
8
BLACK
6
CONTINUOUS
10
133.625
20
-46.6728
11
133.813
21
-46.6177
0
LINE
8
BLACK
6
CONTINUOUS
10
133.813
20
-46.6177
11
134.007
21
-46.6
0
LINE
8
BLACK
6
CONTINUOUS
10
134.007
20
-46.6
11
134.201
21
-46.6204
0
LINE
8
BLACK
6
CONTINUOUS
10
148.701
20
-46.6204
11
148.888
21
-46.6781
0
LINE
8
BLACK
6
CONTINUOUS
10
148.888
20
-46.6781
11
149.059
21
-46.771
0
LINE
8
BLACK
6
CONTINUOUS
10
149.059
20
-46.771
11
149.21
21
-46.8954
0
LINE
8
BLACK
6
CONTINUOUS
10
149.21
20
-46.8954
11
149.333
21
-47.0466
0
LINE
8
BLACK
6
CONTINUOUS
10
149.333
20
-47.0466
11
149.425
21
-47.2189
0
LINE
8
BLACK
6
CONTINUOUS
10
149.425
20
-47.2189
11
149.481
21
-47.4058
0
LINE
8
BLACK
6
CONTINUOUS
10
149.481
20
-47.4058
11
149.5
21
-47.6
0
LINE
8
BLACK
6
CONTINUOUS
10
149.5
20
-47.6
11
149.5
21
-47.6279
0
LINE
8
BLACK
6
CONTINUOUS
10
149.5
20
-47.6279
11
149.475
21
-47.8215
0
LINE
8
BLACK
6
CONTINUOUS
10
149.475
20
-47.8215
11
149.414
21
-48.0067
0
LINE
8
BLACK
6
CONTINUOUS
10
149.414
20
-48.0067
11
149.317
21
-48.1764
0
LINE
8
BLACK
6
CONTINUOUS
10
149.317
20
-48.1764
11
149.19
21
-48.3242
0
LINE
8
BLACK
6
CONTINUOUS
10
149.19
20
-48.3242
11
149.036
21
-48.4443
0
LINE
8
BLACK
6
CONTINUOUS
10
149.036
20
-48.4443
11
148.862
21
-48.5323
0
LINE
8
BLACK
6
CONTINUOUS
10
148.862
20
-48.5323
11
148.674
21
-48.5848
0
LINE
8
BLACK
6
CONTINUOUS
10
148.674
20
-48.5848
11
148.479
21
-48.5998
0
LINE
8
BLACK
6
CONTINUOUS
10
148.479
20
-48.5998
11
148.285
21
-48.5767
0
LINE
8
BLACK
6
CONTINUOUS
10
148.285
20
-48.5767
11
148.1
21
-48.5164
0
LINE
8
BLACK
6
CONTINUOUS
10
148.1
20
-48.5164
11
147.929
21
-48.4211
0
LINE
8
BLACK
6
CONTINUOUS
10
147.929
20
-48.4211
11
147.781
21
-48.2947
0
LINE
8
BLACK
6
CONTINUOUS
10
147.781
20
-48.2947
11
147.659
21
-48.1417
0
LINE
8
BLACK
6
CONTINUOUS
10
147.659
20
-48.1417
11
147.57
21
-47.9681
0
LINE
8
BLACK
6
CONTINUOUS
10
147.57
20
-47.9681
11
147.516
21
-47.7805
0
LINE
8
BLACK
6
CONTINUOUS
10
147.516
20
-47.7805
11
147.5
21
-47.586
0
LINE
8
BLACK
6
CONTINUOUS
10
147.5
20
-47.586
11
147.522
21
-47.3921
0
LINE
8
BLACK
6
CONTINUOUS
10
147.522
20
-47.3921
11
147.581
21
-47.2061
0
LINE
8
BLACK
6
CONTINUOUS
10
147.581
20
-47.2061
11
147.675
21
-47.035
0
LINE
8
BLACK
6
CONTINUOUS
10
147.675
20
-47.035
11
147.8
21
-46.8855
0
LINE
8
BLACK
6
CONTINUOUS
10
147.8
20
-46.8855
11
147.952
21
-46.7632
0
LINE
8
BLACK
6
CONTINUOUS
10
147.952
20
-46.7632
11
148.125
21
-46.6728
0
LINE
8
BLACK
6
CONTINUOUS
10
148.125
20
-46.6728
11
148.313
21
-46.6177
0
LINE
8
BLACK
6
CONTINUOUS
10
148.313
20
-46.6177
11
148.507
21
-46.6
0
LINE
8
BLACK
6
CONTINUOUS
10
148.507
20
-46.6
11
148.701
21
-46.6204
0
LINE
8
BLACK
6
CONTINUOUS
10
134.201
20
-44.1204
11
134.388
21
-44.1781
0
LINE
8
BLACK
6
CONTINUOUS
10
134.388
20
-44.1781
11
134.559
21
-44.271
0
LINE
8
BLACK
6
CONTINUOUS
10
134.559
20
-44.271
11
134.71
21
-44.3954
0
LINE
8
BLACK
6
CONTINUOUS
10
134.71
20
-44.3954
11
134.833
21
-44.5466
0
LINE
8
BLACK
6
CONTINUOUS
10
134.833
20
-44.5466
11
134.925
21
-44.7189
0
LINE
8
BLACK
6
CONTINUOUS
10
134.925
20
-44.7189
11
134.981
21
-44.9058
0
LINE
8
BLACK
6
CONTINUOUS
10
134.981
20
-44.9058
11
135
21
-45.1
0
LINE
8
BLACK
6
CONTINUOUS
10
135
20
-45.1
11
135
21
-45.1279
0
LINE
8
BLACK
6
CONTINUOUS
10
135
20
-45.1279
11
134.975
21
-45.3215
0
LINE
8
BLACK
6
CONTINUOUS
10
134.975
20
-45.3215
11
134.914
21
-45.5067
0
LINE
8
BLACK
6
CONTINUOUS
10
134.914
20
-45.5067
11
134.817
21
-45.6764
0
LINE
8
BLACK
6
CONTINUOUS
10
134.817
20
-45.6764
11
134.69
21
-45.8242
0
LINE
8
BLACK
6
CONTINUOUS
10
134.69
20
-45.8242
11
134.536
21
-45.9443
0
LINE
8
BLACK
6
CONTINUOUS
10
134.536
20
-45.9443
11
134.362
21
-46.0323
0
LINE
8
BLACK
6
CONTINUOUS
10
134.362
20
-46.0323
11
134.174
21
-46.0848
0
LINE
8
BLACK
6
CONTINUOUS
10
134.174
20
-46.0848
11
133.979
21
-46.0998
0
LINE
8
BLACK
6
CONTINUOUS
10
133.979
20
-46.0998
11
133.785
21
-46.0767
0
LINE
8
BLACK
6
CONTINUOUS
10
133.785
20
-46.0767
11
133.6
21
-46.0164
0
LINE
8
BLACK
6
CONTINUOUS
10
133.6
20
-46.0164
11
133.429
21
-45.9211
0
LINE
8
BLACK
6
CONTINUOUS
10
133.429
20
-45.9211
11
133.281
21
-45.7947
0
LINE
8
BLACK
6
CONTINUOUS
10
133.281
20
-45.7947
11
133.159
21
-45.6417
0
LINE
8
BLACK
6
CONTINUOUS
10
133.159
20
-45.6417
11
133.07
21
-45.4681
0
LINE
8
BLACK
6
CONTINUOUS
10
133.07
20
-45.4681
11
133.016
21
-45.2805
0
LINE
8
BLACK
6
CONTINUOUS
10
133.016
20
-45.2805
11
133
21
-45.086
0
LINE
8
BLACK
6
CONTINUOUS
10
133
20
-45.086
11
133.022
21
-44.8921
0
LINE
8
BLACK
6
CONTINUOUS
10
133.022
20
-44.8921
11
133.081
21
-44.7061
0
LINE
8
BLACK
6
CONTINUOUS
10
133.081
20
-44.7061
11
133.175
21
-44.535
0
LINE
8
BLACK
6
CONTINUOUS
10
133.175
20
-44.535
11
133.3
21
-44.3855
0
LINE
8
BLACK
6
CONTINUOUS
10
133.3
20
-44.3855
11
133.452
21
-44.2632
0
LINE
8
BLACK
6
CONTINUOUS
10
133.452
20
-44.2632
11
133.625
21
-44.1728
0
LINE
8
BLACK
6
CONTINUOUS
10
133.625
20
-44.1728
11
133.813
21
-44.1177
0
LINE
8
BLACK
6
CONTINUOUS
10
133.813
20
-44.1177
11
134.007
21
-44.1
0
LINE
8
BLACK
6
CONTINUOUS
10
134.007
20
-44.1
11
134.201
21
-44.1204
0
LINE
8
BLACK
6
CONTINUOUS
10
135
20
-43.6
11
133
21
-43.6
0
LINE
8
BLACK
6
CONTINUOUS
10
133
20
-43.6
11
133
21
-41.6
0
LINE
8
BLACK
6
CONTINUOUS
10
133
20
-41.6
11
135
21
-41.6
0
LINE
8
BLACK
6
CONTINUOUS
10
135
20
-41.6
11
135
21
-43.6
0
LINE
8
BLACK
6
CONTINUOUS
10
148.701
20
-41.6204
11
148.888
21
-41.6781
0
LINE
8
BLACK
6
CONTINUOUS
10
148.888
20
-41.6781
11
149.059
21
-41.771
0
LINE
8
BLACK
6
CONTINUOUS
10
149.059
20
-41.771
11
149.21
21
-41.8954
0
LINE
8
BLACK
6
CONTINUOUS
10
149.21
20
-41.8954
11
149.333
21
-42.0466
0
LINE
8
BLACK
6
CONTINUOUS
10
149.333
20
-42.0466
11
149.425
21
-42.2189
0
LINE
8
BLACK
6
CONTINUOUS
10
149.425
20
-42.2189
11
149.481
21
-42.4058
0
LINE
8
BLACK
6
CONTINUOUS
10
149.481
20
-42.4058
11
149.5
21
-42.6
0
LINE
8
BLACK
6
CONTINUOUS
10
149.5
20
-42.6
11
149.5
21
-42.6279
0
LINE
8
BLACK
6
CONTINUOUS
10
149.5
20
-42.6279
11
149.475
21
-42.8215
0
LINE
8
BLACK
6
CONTINUOUS
10
149.475
20
-42.8215
11
149.414
21
-43.0067
0
LINE
8
BLACK
6
CONTINUOUS
10
149.414
20
-43.0067
11
149.317
21
-43.1764
0
LINE
8
BLACK
6
CONTINUOUS
10
149.317
20
-43.1764
11
149.19
21
-43.3242
0
LINE
8
BLACK
6
CONTINUOUS
10
149.19
20
-43.3242
11
149.036
21
-43.4443
0
LINE
8
BLACK
6
CONTINUOUS
10
149.036
20
-43.4443
11
148.862
21
-43.5323
0
LINE
8
BLACK
6
CONTINUOUS
10
148.862
20
-43.5323
11
148.674
21
-43.5848
0
LINE
8
BLACK
6
CONTINUOUS
10
148.674
20
-43.5848
11
148.479
21
-43.5998
0
LINE
8
BLACK
6
CONTINUOUS
10
148.479
20
-43.5998
11
148.285
21
-43.5767
0
LINE
8
BLACK
6
CONTINUOUS
10
148.285
20
-43.5767
11
148.1
21
-43.5164
0
LINE
8
BLACK
6
CONTINUOUS
10
148.1
20
-43.5164
11
147.929
21
-43.4211
0
LINE
8
BLACK
6
CONTINUOUS
10
147.929
20
-43.4211
11
147.781
21
-43.2947
0
LINE
8
BLACK
6
CONTINUOUS
10
147.781
20
-43.2947
11
147.659
21
-43.1417
0
LINE
8
BLACK
6
CONTINUOUS
10
147.659
20
-43.1417
11
147.57
21
-42.9681
0
LINE
8
BLACK
6
CONTINUOUS
10
147.57
20
-42.9681
11
147.516
21
-42.7805
0
LINE
8
BLACK
6
CONTINUOUS
10
147.516
20
-42.7805
11
147.5
21
-42.586
0
LINE
8
BLACK
6
CONTINUOUS
10
147.5
20
-42.586
11
147.522
21
-42.3921
0
LINE
8
BLACK
6
CONTINUOUS
10
147.522
20
-42.3921
11
147.581
21
-42.2061
0
LINE
8
BLACK
6
CONTINUOUS
10
147.581
20
-42.2061
11
147.675
21
-42.035
0
LINE
8
BLACK
6
CONTINUOUS
10
147.675
20
-42.035
11
147.8
21
-41.8855
0
LINE
8
BLACK
6
CONTINUOUS
10
147.8
20
-41.8855
11
147.952
21
-41.7632
0
LINE
8
BLACK
6
CONTINUOUS
10
147.952
20
-41.7632
11
148.125
21
-41.6728
0
LINE
8
BLACK
6
CONTINUOUS
10
148.125
20
-41.6728
11
148.313
21
-41.6177
0
LINE
8
BLACK
6
CONTINUOUS
10
148.313
20
-41.6177
11
148.507
21
-41.6
0
LINE
8
BLACK
6
CONTINUOUS
10
148.507
20
-41.6
11
148.701
21
-41.6204
0
LINE
8
BLACK
6
CONTINUOUS
10
143.1
20
-40.5
11
139.9
21
-40.5
0
LINE
8
BLACK
6
CONTINUOUS
10
139.9
20
-40.5
11
139.9
21
-38.5
0
LINE
8
BLACK
6
CONTINUOUS
10
139.9
20
-38.5
11
143.1
21
-38.5
0
LINE
8
BLACK
6
CONTINUOUS
10
143.1
20
-38.5
11
143.1
21
-40.5
0
LINE
8
BLACK
6
CONTINUOUS
10
34.0884
20
-21.9116
11
34.8234
21
-22.6466
0
LINE
8
BLACK
6
CONTINUOUS
10
34.8234
20
-22.6466
11
34.8764
21
-22.6196
0
LINE
8
BLACK
6
CONTINUOUS
10
34.8764
20
-22.6196
11
35
21
-22.6
0
LINE
8
BLACK
6
CONTINUOUS
10
35
20
-22.6
11
35.1236
21
-22.6196
0
LINE
8
BLACK
6
CONTINUOUS
10
35.1236
20
-22.6196
11
35.2351
21
-22.6764
0
LINE
8
BLACK
6
CONTINUOUS
10
35.2351
20
-22.6764
11
35.3236
21
-22.7649
0
LINE
8
BLACK
6
CONTINUOUS
10
35.3236
20
-22.7649
11
35.3804
21
-22.8764
0
LINE
8
BLACK
6
CONTINUOUS
10
35.3804
20
-22.8764
11
35.4
21
-23
0
LINE
8
BLACK
6
CONTINUOUS
10
35.4
20
-23
11
35.3804
21
-23.1236
0
LINE
8
BLACK
6
CONTINUOUS
10
35.3804
20
-23.1236
11
35.3236
21
-23.2351
0
LINE
8
BLACK
6
CONTINUOUS
10
35.3236
20
-23.2351
11
35.2351
21
-23.3236
0
LINE
8
BLACK
6
CONTINUOUS
10
35.2351
20
-23.3236
11
35.1236
21
-23.3804
0
LINE
8
BLACK
6
CONTINUOUS
10
35.1236
20
-23.3804
11
35
21
-23.4
0
LINE
8
BLACK
6
CONTINUOUS
10
35
20
-23.4
11
34.8764
21
-23.3804
0
LINE
8
BLACK
6
CONTINUOUS
10
34.8764
20
-23.3804
11
34.8234
21
-23.3534
0
LINE
8
BLACK
6
CONTINUOUS
10
34.8234
20
-23.3534
11
34.0884
21
-24.0884
0
LINE
8
BLACK
6
CONTINUOUS
10
34.0884
20
-24.0884
11
34.0596
21
-24.1099
0
LINE
8
BLACK
6
CONTINUOUS
10
34.0596
20
-24.1099
11
33.9908
21
-24.1247
0
LINE
8
BLACK
6
CONTINUOUS
10
33.9908
20
-24.1247
11
33.9249
21
-24.1
0
LINE
8
BLACK
6
CONTINUOUS
10
33.9249
20
-24.1
11
33.8828
21
-24.0436
0
LINE
8
BLACK
6
CONTINUOUS
10
33.8828
20
-24.0436
11
33.8779
21
-23.9734
0
LINE
8
BLACK
6
CONTINUOUS
10
33.8779
20
-23.9734
11
33.9116
21
-23.9116
0
LINE
8
BLACK
6
CONTINUOUS
10
33.9116
20
-23.9116
11
34.6466
21
-23.1766
0
LINE
8
BLACK
6
CONTINUOUS
10
34.6466
20
-23.1766
11
34.6196
21
-23.1236
0
LINE
8
BLACK
6
CONTINUOUS
10
34.6196
20
-23.1236
11
34.6
21
-23
0
LINE
8
BLACK
6
CONTINUOUS
10
34.6
20
-23
11
34.6196
21
-22.8764
0
LINE
8
BLACK
6
CONTINUOUS
10
34.6196
20
-22.8764
11
34.6466
21
-22.8234
0
LINE
8
BLACK
6
CONTINUOUS
10
34.6466
20
-22.8234
11
33.9116
21
-22.0884
0
LINE
8
BLACK
6
CONTINUOUS
10
33.9116
20
-22.0884
11
33.8901
21
-22.0596
0
LINE
8
BLACK
6
CONTINUOUS
10
33.8901
20
-22.0596
11
33.8753
21
-21.9908
0
LINE
8
BLACK
6
CONTINUOUS
10
33.8753
20
-21.9908
11
33.9
21
-21.9249
0
LINE
8
BLACK
6
CONTINUOUS
10
33.9
20
-21.9249
11
33.9564
21
-21.8828
0
LINE
8
BLACK
6
CONTINUOUS
10
33.9564
20
-21.8828
11
34.0266
21
-21.8779
0
LINE
8
BLACK
6
CONTINUOUS
10
34.0266
20
-21.8779
11
34.0884
21
-21.9116
0
LINE
8
BLACK
6
CONTINUOUS
10
33.4
20
-18.99
11
33.1
21
-18.99
0
LINE
8
BLACK
6
CONTINUOUS
10
33.1
20
-18.99
11
33.1
21
-17.85
0
LINE
8
BLACK
6
CONTINUOUS
10
33.1
20
-17.85
11
33.4
21
-17.85
0
LINE
8
BLACK
6
CONTINUOUS
10
33.4
20
-17.85
11
33.4
21
-18.99
0
LINE
8
BLACK
6
CONTINUOUS
10
33.9
20
-18.99
11
33.6
21
-18.99
0
LINE
8
BLACK
6
CONTINUOUS
10
33.6
20
-18.99
11
33.6
21
-17.85
0
LINE
8
BLACK
6
CONTINUOUS
10
33.6
20
-17.85
11
33.9
21
-17.85
0
LINE
8
BLACK
6
CONTINUOUS
10
33.9
20
-17.85
11
33.9
21
-18.99
0
LINE
8
BLACK
6
CONTINUOUS
10
32.9
20
-18.99
11
32.3
21
-18.99
0
LINE
8
BLACK
6
CONTINUOUS
10
32.3
20
-18.99
11
32.3
21
-17.85
0
LINE
8
BLACK
6
CONTINUOUS
10
32.3
20
-17.85
11
32.9
21
-17.85
0
LINE
8
BLACK
6
CONTINUOUS
10
32.9
20
-17.85
11
32.9
21
-18.99
0
LINE
8
BLACK
6
CONTINUOUS
10
36.9
20
-18.99
11
36.6
21
-18.99
0
LINE
8
BLACK
6
CONTINUOUS
10
36.6
20
-18.99
11
36.6
21
-17.85
0
LINE
8
BLACK
6
CONTINUOUS
10
36.6
20
-17.85
11
36.9
21
-17.85
0
LINE
8
BLACK
6
CONTINUOUS
10
36.9
20
-17.85
11
36.9
21
-18.99
0
LINE
8
BLACK
6
CONTINUOUS
10
37.7
20
-18.99
11
37.1
21
-18.99
0
LINE
8
BLACK
6
CONTINUOUS
10
37.1
20
-18.99
11
37.1
21
-17.85
0
LINE
8
BLACK
6
CONTINUOUS
10
37.1
20
-17.85
11
37.7
21
-17.85
0
LINE
8
BLACK
6
CONTINUOUS
10
37.7
20
-17.85
11
37.7
21
-18.99
0
LINE
8
BLACK
6
CONTINUOUS
10
36.4
20
-18.99
11
36.1
21
-18.99
0
LINE
8
BLACK
6
CONTINUOUS
10
36.1
20
-18.99
11
36.1
21
-17.85
0
LINE
8
BLACK
6
CONTINUOUS
10
36.1
20
-17.85
11
36.4
21
-17.85
0
LINE
8
BLACK
6
CONTINUOUS
10
36.4
20
-17.85
11
36.4
21
-18.99
0
LINE
8
BLACK
6
CONTINUOUS
10
35.9
20
-18.99
11
35.6
21
-18.99
0
LINE
8
BLACK
6
CONTINUOUS
10
35.6
20
-18.99
11
35.6
21
-17.85
0
LINE
8
BLACK
6
CONTINUOUS
10
35.6
20
-17.85
11
35.9
21
-17.85
0
LINE
8
BLACK
6
CONTINUOUS
10
35.9
20
-17.85
11
35.9
21
-18.99
0
LINE
8
BLACK
6
CONTINUOUS
10
38.5
20
-18.99
11
37.9
21
-18.99
0
LINE
8
BLACK
6
CONTINUOUS
10
37.9
20
-18.99
11
37.9
21
-17.85
0
LINE
8
BLACK
6
CONTINUOUS
10
37.9
20
-17.85
11
38.5
21
-17.85
0
LINE
8
BLACK
6
CONTINUOUS
10
38.5
20
-17.85
11
38.5
21
-18.99
0
LINE
8
BLACK
6
CONTINUOUS
10
34.4
20
-18.99
11
34.1
21
-18.99
0
LINE
8
BLACK
6
CONTINUOUS
10
34.1
20
-18.99
11
34.1
21
-17.85
0
LINE
8
BLACK
6
CONTINUOUS
10
34.1
20
-17.85
11
34.4
21
-17.85
0
LINE
8
BLACK
6
CONTINUOUS
10
34.4
20
-17.85
11
34.4
21
-18.99
0
LINE
8
BLACK
6
CONTINUOUS
10
35.4
20
-18.99
11
35.1
21
-18.99
0
LINE
8
BLACK
6
CONTINUOUS
10
35.1
20
-18.99
11
35.1
21
-17.85
0
LINE
8
BLACK
6
CONTINUOUS
10
35.1
20
-17.85
11
35.4
21
-17.85
0
LINE
8
BLACK
6
CONTINUOUS
10
35.4
20
-17.85
11
35.4
21
-18.99
0
LINE
8
BLACK
6
CONTINUOUS
10
32.1
20
-18.99
11
31.5
21
-18.99
0
LINE
8
BLACK
6
CONTINUOUS
10
31.5
20
-18.99
11
31.5
21
-17.85
0
LINE
8
BLACK
6
CONTINUOUS
10
31.5
20
-17.85
11
32.1
21
-17.85
0
LINE
8
BLACK
6
CONTINUOUS
10
32.1
20
-17.85
11
32.1
21
-18.99
0
LINE
8
BLACK
6
CONTINUOUS
10
34.9
20
-18.99
11
34.6
21
-18.99
0
LINE
8
BLACK
6
CONTINUOUS
10
34.6
20
-18.99
11
34.6
21
-17.85
0
LINE
8
BLACK
6
CONTINUOUS
10
34.6
20
-17.85
11
34.9
21
-17.85
0
LINE
8
BLACK
6
CONTINUOUS
10
34.9
20
-17.85
11
34.9
21
-18.99
0
LINE
8
BLACK
6
CONTINUOUS
10
30.8407
20
-16.8816
11
30.9564
21
-16.9488
0
LINE
8
BLACK
6
CONTINUOUS
10
30.9564
20
-16.9488
11
31.0472
21
-17.0471
0
LINE
8
BLACK
6
CONTINUOUS
10
31.0472
20
-17.0471
11
31.1051
21
-17.1677
0
LINE
8
BLACK
6
CONTINUOUS
10
31.1051
20
-17.1677
11
31.125
21
-17.3
0
LINE
8
BLACK
6
CONTINUOUS
10
31.125
20
-17.3
11
31.125
21
-18.4
0
LINE
8
BLACK
6
CONTINUOUS
10
31.125
20
-18.4
11
31.1195
21
-18.4704
0
LINE
8
BLACK
6
CONTINUOUS
10
31.1195
20
-18.4704
11
31.0791
21
-18.598
0
LINE
8
BLACK
6
CONTINUOUS
10
31.0791
20
-18.598
11
31.003
21
-18.708
0
LINE
8
BLACK
6
CONTINUOUS
10
31.003
20
-18.708
11
30.898
21
-18.7909
0
LINE
8
BLACK
6
CONTINUOUS
10
30.898
20
-18.7909
11
30.7732
21
-18.8392
0
LINE
8
BLACK
6
CONTINUOUS
10
30.7732
20
-18.8392
11
30.6397
21
-18.8486
0
LINE
8
BLACK
6
CONTINUOUS
10
30.6397
20
-18.8486
11
30.5093
21
-18.8184
0
LINE
8
BLACK
6
CONTINUOUS
10
30.5093
20
-18.8184
11
30.3936
21
-18.7512
0
LINE
8
BLACK
6
CONTINUOUS
10
30.3936
20
-18.7512
11
30.3028
21
-18.6529
0
LINE
8
BLACK
6
CONTINUOUS
10
30.3028
20
-18.6529
11
30.2449
21
-18.5323
0
LINE
8
BLACK
6
CONTINUOUS
10
30.2449
20
-18.5323
11
30.225
21
-18.4
0
LINE
8
BLACK
6
CONTINUOUS
10
30.225
20
-18.4
11
30.225
21
-17.3
0
LINE
8
BLACK
6
CONTINUOUS
10
30.225
20
-17.3
11
30.2305
21
-17.2296
0
LINE
8
BLACK
6
CONTINUOUS
10
30.2305
20
-17.2296
11
30.2709
21
-17.102
0
LINE
8
BLACK
6
CONTINUOUS
10
30.2709
20
-17.102
11
30.347
21
-16.992
0
LINE
8
BLACK
6
CONTINUOUS
10
30.347
20
-16.992
11
30.452
21
-16.9091
0
LINE
8
BLACK
6
CONTINUOUS
10
30.452
20
-16.9091
11
30.5768
21
-16.8608
0
LINE
8
BLACK
6
CONTINUOUS
10
30.5768
20
-16.8608
11
30.7103
21
-16.8514
0
LINE
8
BLACK
6
CONTINUOUS
10
30.7103
20
-16.8514
11
30.8407
21
-16.8816
0
LINE
8
BLACK
6
CONTINUOUS
10
39.4907
20
-16.8816
11
39.6064
21
-16.9488
0
LINE
8
BLACK
6
CONTINUOUS
10
39.6064
20
-16.9488
11
39.6972
21
-17.0471
0
LINE
8
BLACK
6
CONTINUOUS
10
39.6972
20
-17.0471
11
39.7551
21
-17.1677
0
LINE
8
BLACK
6
CONTINUOUS
10
39.7551
20
-17.1677
11
39.775
21
-17.3
0
LINE
8
BLACK
6
CONTINUOUS
10
39.775
20
-17.3
11
39.775
21
-18.4
0
LINE
8
BLACK
6
CONTINUOUS
10
39.775
20
-18.4
11
39.7695
21
-18.4704
0
LINE
8
BLACK
6
CONTINUOUS
10
39.7695
20
-18.4704
11
39.7291
21
-18.598
0
LINE
8
BLACK
6
CONTINUOUS
10
39.7291
20
-18.598
11
39.653
21
-18.708
0
LINE
8
BLACK
6
CONTINUOUS
10
39.653
20
-18.708
11
39.548
21
-18.7909
0
LINE
8
BLACK
6
CONTINUOUS
10
39.548
20
-18.7909
11
39.4232
21
-18.8392
0
LINE
8
BLACK
6
CONTINUOUS
10
39.4232
20
-18.8392
11
39.2897
21
-18.8486
0
LINE
8
BLACK
6
CONTINUOUS
10
39.2897
20
-18.8486
11
39.1593
21
-18.8184
0
LINE
8
BLACK
6
CONTINUOUS
10
39.1593
20
-18.8184
11
39.0436
21
-18.7512
0
LINE
8
BLACK
6
CONTINUOUS
10
39.0436
20
-18.7512
11
38.9528
21
-18.6529
0
LINE
8
BLACK
6
CONTINUOUS
10
38.9528
20
-18.6529
11
38.8949
21
-18.5323
0
LINE
8
BLACK
6
CONTINUOUS
10
38.8949
20
-18.5323
11
38.875
21
-18.4
0
LINE
8
BLACK
6
CONTINUOUS
10
38.875
20
-18.4
11
38.875
21
-17.3
0
LINE
8
BLACK
6
CONTINUOUS
10
38.875
20
-17.3
11
38.8805
21
-17.2296
0
LINE
8
BLACK
6
CONTINUOUS
10
38.8805
20
-17.2296
11
38.9209
21
-17.102
0
LINE
8
BLACK
6
CONTINUOUS
10
38.9209
20
-17.102
11
38.997
21
-16.992
0
LINE
8
BLACK
6
CONTINUOUS
10
38.997
20
-16.992
11
39.102
21
-16.9091
0
LINE
8
BLACK
6
CONTINUOUS
10
39.102
20
-16.9091
11
39.2268
21
-16.8608
0
LINE
8
BLACK
6
CONTINUOUS
10
39.2268
20
-16.8608
11
39.3603
21
-16.8514
0
LINE
8
BLACK
6
CONTINUOUS
10
39.3603
20
-16.8514
11
39.4907
21
-16.8816
0
LINE
8
BLACK
6
CONTINUOUS
10
30.8407
20
-12.8516
11
30.9564
21
-12.9188
0
LINE
8
BLACK
6
CONTINUOUS
10
30.9564
20
-12.9188
11
31.0472
21
-13.0171
0
LINE
8
BLACK
6
CONTINUOUS
10
31.0472
20
-13.0171
11
31.1051
21
-13.1377
0
LINE
8
BLACK
6
CONTINUOUS
10
31.1051
20
-13.1377
11
31.125
21
-13.27
0
LINE
8
BLACK
6
CONTINUOUS
10
31.125
20
-13.27
11
31.125
21
-14.07
0
LINE
8
BLACK
6
CONTINUOUS
10
31.125
20
-14.07
11
31.1195
21
-14.1404
0
LINE
8
BLACK
6
CONTINUOUS
10
31.1195
20
-14.1404
11
31.0791
21
-14.268
0
LINE
8
BLACK
6
CONTINUOUS
10
31.0791
20
-14.268
11
31.003
21
-14.378
0
LINE
8
BLACK
6
CONTINUOUS
10
31.003
20
-14.378
11
30.898
21
-14.4609
0
LINE
8
BLACK
6
CONTINUOUS
10
30.898
20
-14.4609
11
30.7732
21
-14.5092
0
LINE
8
BLACK
6
CONTINUOUS
10
30.7732
20
-14.5092
11
30.6397
21
-14.5186
0
LINE
8
BLACK
6
CONTINUOUS
10
30.6397
20
-14.5186
11
30.5093
21
-14.4884
0
LINE
8
BLACK
6
CONTINUOUS
10
30.5093
20
-14.4884
11
30.3936
21
-14.4212
0
LINE
8
BLACK
6
CONTINUOUS
10
30.3936
20
-14.4212
11
30.3028
21
-14.3229
0
LINE
8
BLACK
6
CONTINUOUS
10
30.3028
20
-14.3229
11
30.2449
21
-14.2023
0
LINE
8
BLACK
6
CONTINUOUS
10
30.2449
20
-14.2023
11
30.225
21
-14.07
0
LINE
8
BLACK
6
CONTINUOUS
10
30.225
20
-14.07
11
30.225
21
-13.27
0
LINE
8
BLACK
6
CONTINUOUS
10
30.225
20
-13.27
11
30.2305
21
-13.1996
0
LINE
8
BLACK
6
CONTINUOUS
10
30.2305
20
-13.1996
11
30.2709
21
-13.072
0
LINE
8
BLACK
6
CONTINUOUS
10
30.2709
20
-13.072
11
30.347
21
-12.962
0
LINE
8
BLACK
6
CONTINUOUS
10
30.347
20
-12.962
11
30.452
21
-12.8791
0
LINE
8
BLACK
6
CONTINUOUS
10
30.452
20
-12.8791
11
30.5768
21
-12.8308
0
LINE
8
BLACK
6
CONTINUOUS
10
30.5768
20
-12.8308
11
30.7103
21
-12.8214
0
LINE
8
BLACK
6
CONTINUOUS
10
30.7103
20
-12.8214
11
30.8407
21
-12.8516
0
LINE
8
BLACK
6
CONTINUOUS
10
39.4907
20
-12.8516
11
39.6064
21
-12.9188
0
LINE
8
BLACK
6
CONTINUOUS
10
39.6064
20
-12.9188
11
39.6972
21
-13.0171
0
LINE
8
BLACK
6
CONTINUOUS
10
39.6972
20
-13.0171
11
39.7551
21
-13.1377
0
LINE
8
BLACK
6
CONTINUOUS
10
39.7551
20
-13.1377
11
39.775
21
-13.27
0
LINE
8
BLACK
6
CONTINUOUS
10
39.775
20
-13.27
11
39.775
21
-14.07
0
LINE
8
BLACK
6
CONTINUOUS
10
39.775
20
-14.07
11
39.7695
21
-14.1404
0
LINE
8
BLACK
6
CONTINUOUS
10
39.7695
20
-14.1404
11
39.7291
21
-14.268
0
LINE
8
BLACK
6
CONTINUOUS
10
39.7291
20
-14.268
11
39.653
21
-14.378
0
LINE
8
BLACK
6
CONTINUOUS
10
39.653
20
-14.378
11
39.548
21
-14.4609
0
LINE
8
BLACK
6
CONTINUOUS
10
39.548
20
-14.4609
11
39.4232
21
-14.5092
0
LINE
8
BLACK
6
CONTINUOUS
10
39.4232
20
-14.5092
11
39.2897
21
-14.5186
0
LINE
8
BLACK
6
CONTINUOUS
10
39.2897
20
-14.5186
11
39.1593
21
-14.4884
0
LINE
8
BLACK
6
CONTINUOUS
10
39.1593
20
-14.4884
11
39.0436
21
-14.4212
0
LINE
8
BLACK
6
CONTINUOUS
10
39.0436
20
-14.4212
11
38.9528
21
-14.3229
0
LINE
8
BLACK
6
CONTINUOUS
10
38.9528
20
-14.3229
11
38.8949
21
-14.2023
0
LINE
8
BLACK
6
CONTINUOUS
10
38.8949
20
-14.2023
11
38.875
21
-14.07
0
LINE
8
BLACK
6
CONTINUOUS
10
38.875
20
-14.07
11
38.875
21
-13.27
0
LINE
8
BLACK
6
CONTINUOUS
10
38.875
20
-13.27
11
38.8805
21
-13.1996
0
LINE
8
BLACK
6
CONTINUOUS
10
38.8805
20
-13.1996
11
38.9209
21
-13.072
0
LINE
8
BLACK
6
CONTINUOUS
10
38.9209
20
-13.072
11
38.997
21
-12.962
0
LINE
8
BLACK
6
CONTINUOUS
10
38.997
20
-12.962
11
39.102
21
-12.8791
0
LINE
8
BLACK
6
CONTINUOUS
10
39.102
20
-12.8791
11
39.2268
21
-12.8308
0
LINE
8
BLACK
6
CONTINUOUS
10
39.2268
20
-12.8308
11
39.3603
21
-12.8214
0
LINE
8
BLACK
6
CONTINUOUS
10
39.3603
20
-12.8214
11
39.4907
21
-12.8516
0
CIRCLE
8
BLACK
10
84.655
20
-77.46
40
1.5
0
CIRCLE
8
BLACK
10
82.115
20
-82.54
40
1.9939
0
CIRCLE
8
BLACK
10
78.305
20
-80
40
1.5
0
CIRCLE
8
BLACK
10
87.195
20
-82.54
40
0.875
0
CIRCLE
8
BLACK
10
77.035
20
-82.54
40
0.875
0
CIRCLE
8
BLACK
10
30.195
20
-82.54
40
0.875
0
CIRCLE
8
BLACK
10
20.035
20
-82.54
40
0.875
0
CIRCLE
8
BLACK
10
21.305
20
-80
40
1.5
0
CIRCLE
8
BLACK
10
27.655
20
-77.46
40
1.5
0
CIRCLE
8
BLACK
10
25.115
20
-82.54
40
1.9939
0
CIRCLE
8
BLACK
10
82.115
20
-120.54
40
1.9939
0
CIRCLE
8
BLACK
10
84.655
20
-115.46
40
1.5
0
CIRCLE
8
BLACK
10
78.305
20
-118
40
1.5
0
CIRCLE
8
BLACK
10
77.035
20
-120.54
40
0.875
0
CIRCLE
8
BLACK
10
87.195
20
-120.54
40
0.875
0
CIRCLE
8
BLACK
10
87.195
20
-63.54
40
0.875
0
CIRCLE
8
BLACK
10
78.305
20
-61
40
1.5
0
CIRCLE
8
BLACK
10
82.115
20
-63.54
40
1.9939
0
CIRCLE
8
BLACK
10
77.035
20
-63.54
40
0.875
0
CIRCLE
8
BLACK
10
84.655
20
-58.46
40
1.5
0
CIRCLE
8
BLACK
10
25.115
20
-101.54
40
1.9939
0
CIRCLE
8
BLACK
10
30.195
20
-101.54
40
0.875
0
CIRCLE
8
BLACK
10
27.655
20
-96.46
40
1.5
0
CIRCLE
8
BLACK
10
21.305
20
-99
40
1.5
0
CIRCLE
8
BLACK
10
20.035
20
-101.54
40
0.875
0
CIRCLE
8
BLACK
10
125.195
20
-22.54
40
0.875
0
CIRCLE
8
BLACK
10
120.115
20
-22.54
40
1.9939
0
CIRCLE
8
BLACK
10
122.655
20
-17.46
40
1.5
0
CIRCLE
8
BLACK
10
116.305
20
-20
40
1.5
0
CIRCLE
8
BLACK
10
115.035
20
-22.54
40
0.875
0
CIRCLE
8
BLACK
10
49.08
20
-22.54
40
0.875
0
CIRCLE
8
BLACK
10
44
20
-22.54
40
1.9939
0
CIRCLE
8
BLACK
10
40.19
20
-20
40
1.5
0
CIRCLE
8
BLACK
10
38.92
20
-22.54
40
0.875
0
CIRCLE
8
BLACK
10
46.54
20
-17.46
40
1.5
0
CIRCLE
8
BLACK
10
20.035
20
-22.54
40
0.875
0
CIRCLE
8
BLACK
10
25.115
20
-22.54
40
1.9939
0
CIRCLE
8
BLACK
10
27.655
20
-17.46
40
1.5
0
CIRCLE
8
BLACK
10
30.195
20
-22.54
40
0.875
0
CIRCLE
8
BLACK
10
21.305
20
-20
40
1.5
0
CIRCLE
8
BLACK
10
46.655
20
-77.46
40
1.5
0
CIRCLE
8
BLACK
10
39.035
20
-82.54
40
0.875
0
CIRCLE
8
BLACK
10
44.115
20
-82.54
40
1.9939
0
CIRCLE
8
BLACK
10
40.305
20
-80
40
1.5
0
CIRCLE
8
BLACK
10
49.195
20
-82.54
40
0.875
0
CIRCLE
8
BLACK
10
122.655
20
-58.46
40
1.5
0
CIRCLE
8
BLACK
10
115.035
20
-63.54
40
0.875
0
CIRCLE
8
BLACK
10
125.195
20
-63.54
40
0.875
0
CIRCLE
8
BLACK
10
120.115
20
-63.54
40
1.9939
0
CIRCLE
8
BLACK
10
116.305
20
-61
40
1.5
0
CIRCLE
8
BLACK
10
37.89
20
-17.35
40
0.3
0
CIRCLE
8
BLACK
10
32.11
20
-17.35
40
0.3
0
LINE
8
BLACK
6
CONTINUOUS
10
39.0307
20
-13.2117
11
39.0714
21
-13.1097
0
LINE
8
BLACK
6
CONTINUOUS
10
39.0714
20
-13.1097
11
39.1461
21
-13.0292
0
LINE
8
BLACK
6
CONTINUOUS
10
39.1461
20
-13.0292
11
39.2448
21
-12.9809
0
LINE
8
BLACK
6
CONTINUOUS
10
39.2448
20
-12.9809
11
39.3543
21
-12.9714
0
LINE
8
BLACK
6
CONTINUOUS
10
39.3543
20
-12.9714
11
39.4598
21
-13.002
0
LINE
8
BLACK
6
CONTINUOUS
10
39.4598
20
-13.002
11
39.5472
21
-13.0685
0
LINE
8
BLACK
6
CONTINUOUS
10
39.5472
20
-13.0685
11
39.6049
21
-13.162
0
LINE
8
BLACK
6
CONTINUOUS
10
39.6049
20
-13.162
11
39.625
21
-13.27
0
LINE
8
BLACK
6
CONTINUOUS
10
39.625
20
-13.27
11
39.625
21
-14.07
0
LINE
8
BLACK
6
CONTINUOUS
10
39.625
20
-14.07
11
39.6193
21
-14.1283
0
LINE
8
BLACK
6
CONTINUOUS
10
39.6193
20
-14.1283
11
39.5786
21
-14.2303
0
LINE
8
BLACK
6
CONTINUOUS
10
39.5786
20
-14.2303
11
39.5039
21
-14.3108
0
LINE
8
BLACK
6
CONTINUOUS
10
39.5039
20
-14.3108
11
39.4052
21
-14.3591
0
LINE
8
BLACK
6
CONTINUOUS
10
39.4052
20
-14.3591
11
39.2957
21
-14.3686
0
LINE
8
BLACK
6
CONTINUOUS
10
39.2957
20
-14.3686
11
39.1902
21
-14.338
0
LINE
8
BLACK
6
CONTINUOUS
10
39.1902
20
-14.338
11
39.1028
21
-14.2715
0
LINE
8
BLACK
6
CONTINUOUS
10
39.1028
20
-14.2715
11
39.0451
21
-14.178
0
LINE
8
BLACK
6
CONTINUOUS
10
39.0451
20
-14.178
11
39.025
21
-14.07
0
LINE
8
BLACK
6
CONTINUOUS
10
39.025
20
-14.07
11
39.025
21
-13.27
0
LINE
8
BLACK
6
CONTINUOUS
10
39.025
20
-13.27
11
39.0307
21
-13.2117
0
LINE
8
BLACK
6
CONTINUOUS
10
39.0307
20
-17.2417
11
39.0714
21
-17.1397
0
LINE
8
BLACK
6
CONTINUOUS
10
39.0714
20
-17.1397
11
39.1461
21
-17.0592
0
LINE
8
BLACK
6
CONTINUOUS
10
39.1461
20
-17.0592
11
39.2448
21
-17.0109
0
LINE
8
BLACK
6
CONTINUOUS
10
39.2448
20
-17.0109
11
39.3543
21
-17.0014
0
LINE
8
BLACK
6
CONTINUOUS
10
39.3543
20
-17.0014
11
39.4598
21
-17.032
0
LINE
8
BLACK
6
CONTINUOUS
10
39.4598
20
-17.032
11
39.5472
21
-17.0985
0
LINE
8
BLACK
6
CONTINUOUS
10
39.5472
20
-17.0985
11
39.6049
21
-17.192
0
LINE
8
BLACK
6
CONTINUOUS
10
39.6049
20
-17.192
11
39.625
21
-17.3
0
LINE
8
BLACK
6
CONTINUOUS
10
39.625
20
-17.3
11
39.625
21
-18.4
0
LINE
8
BLACK
6
CONTINUOUS
10
39.625
20
-18.4
11
39.6193
21
-18.4583
0
LINE
8
BLACK
6
CONTINUOUS
10
39.6193
20
-18.4583
11
39.5786
21
-18.5603
0
LINE
8
BLACK
6
CONTINUOUS
10
39.5786
20
-18.5603
11
39.5039
21
-18.6408
0
LINE
8
BLACK
6
CONTINUOUS
10
39.5039
20
-18.6408
11
39.4052
21
-18.6891
0
LINE
8
BLACK
6
CONTINUOUS
10
39.4052
20
-18.6891
11
39.2957
21
-18.6986
0
LINE
8
BLACK
6
CONTINUOUS
10
39.2957
20
-18.6986
11
39.1902
21
-18.668
0
LINE
8
BLACK
6
CONTINUOUS
10
39.1902
20
-18.668
11
39.1028
21
-18.6015
0
LINE
8
BLACK
6
CONTINUOUS
10
39.1028
20
-18.6015
11
39.0451
21
-18.508
0
LINE
8
BLACK
6
CONTINUOUS
10
39.0451
20
-18.508
11
39.025
21
-18.4
0
LINE
8
BLACK
6
CONTINUOUS
10
39.025
20
-18.4
11
39.025
21
-17.3
0
LINE
8
BLACK
6
CONTINUOUS
10
39.025
20
-17.3
11
39.0307
21
-17.2417
0
LINE
8
BLACK
6
CONTINUOUS
10
30.3807
20
-13.2117
11
30.4214
21
-13.1097
0
LINE
8
BLACK
6
CONTINUOUS
10
30.4214
20
-13.1097
11
30.4961
21
-13.0292
0
LINE
8
BLACK
6
CONTINUOUS
10
30.4961
20
-13.0292
11
30.5948
21
-12.9809
0
LINE
8
BLACK
6
CONTINUOUS
10
30.5948
20
-12.9809
11
30.7043
21
-12.9714
0
LINE
8
BLACK
6
CONTINUOUS
10
30.7043
20
-12.9714
11
30.8098
21
-13.002
0
LINE
8
BLACK
6
CONTINUOUS
10
30.8098
20
-13.002
11
30.8972
21
-13.0685
0
LINE
8
BLACK
6
CONTINUOUS
10
30.8972
20
-13.0685
11
30.9549
21
-13.162
0
LINE
8
BLACK
6
CONTINUOUS
10
30.9549
20
-13.162
11
30.975
21
-13.27
0
LINE
8
BLACK
6
CONTINUOUS
10
30.975
20
-13.27
11
30.975
21
-14.07
0
LINE
8
BLACK
6
CONTINUOUS
10
30.975
20
-14.07
11
30.9693
21
-14.1283
0
LINE
8
BLACK
6
CONTINUOUS
10
30.9693
20
-14.1283
11
30.9286
21
-14.2303
0
LINE
8
BLACK
6
CONTINUOUS
10
30.9286
20
-14.2303
11
30.8539
21
-14.3108
0
LINE
8
BLACK
6
CONTINUOUS
10
30.8539
20
-14.3108
11
30.7552
21
-14.3591
0
LINE
8
BLACK
6
CONTINUOUS
10
30.7552
20
-14.3591
11
30.6457
21
-14.3686
0
LINE
8
BLACK
6
CONTINUOUS
10
30.6457
20
-14.3686
11
30.5402
21
-14.338
0
LINE
8
BLACK
6
CONTINUOUS
10
30.5402
20
-14.338
11
30.4528
21
-14.2715
0
LINE
8
BLACK
6
CONTINUOUS
10
30.4528
20
-14.2715
11
30.3951
21
-14.178
0
LINE
8
BLACK
6
CONTINUOUS
10
30.3951
20
-14.178
11
30.375
21
-14.07
0
LINE
8
BLACK
6
CONTINUOUS
10
30.375
20
-14.07
11
30.375
21
-13.27
0
LINE
8
BLACK
6
CONTINUOUS
10
30.375
20
-13.27
11
30.3807
21
-13.2117
0
LINE
8
BLACK
6
CONTINUOUS
10
30.3807
20
-17.2417
11
30.4214
21
-17.1397
0
LINE
8
BLACK
6
CONTINUOUS
10
30.4214
20
-17.1397
11
30.4961
21
-17.0592
0
LINE
8
BLACK
6
CONTINUOUS
10
30.4961
20
-17.0592
11
30.5948
21
-17.0109
0
LINE
8
BLACK
6
CONTINUOUS
10
30.5948
20
-17.0109
11
30.7043
21
-17.0014
0
LINE
8
BLACK
6
CONTINUOUS
10
30.7043
20
-17.0014
11
30.8098
21
-17.032
0
LINE
8
BLACK
6
CONTINUOUS
10
30.8098
20
-17.032
11
30.8972
21
-17.0985
0
LINE
8
BLACK
6
CONTINUOUS
10
30.8972
20
-17.0985
11
30.9549
21
-17.192
0
LINE
8
BLACK
6
CONTINUOUS
10
30.9549
20
-17.192
11
30.975
21
-17.3
0
LINE
8
BLACK
6
CONTINUOUS
10
30.975
20
-17.3
11
30.975
21
-18.4
0
LINE
8
BLACK
6
CONTINUOUS
10
30.975
20
-18.4
11
30.9693
21
-18.4583
0
LINE
8
BLACK
6
CONTINUOUS
10
30.9693
20
-18.4583
11
30.9286
21
-18.5603
0
LINE
8
BLACK
6
CONTINUOUS
10
30.9286
20
-18.5603
11
30.8539
21
-18.6408
0
LINE
8
BLACK
6
CONTINUOUS
10
30.8539
20
-18.6408
11
30.7552
21
-18.6891
0
LINE
8
BLACK
6
CONTINUOUS
10
30.7552
20
-18.6891
11
30.6457
21
-18.6986
0
LINE
8
BLACK
6
CONTINUOUS
10
30.6457
20
-18.6986
11
30.5402
21
-18.668
0
LINE
8
BLACK
6
CONTINUOUS
10
30.5402
20
-18.668
11
30.4528
21
-18.6015
0
LINE
8
BLACK
6
CONTINUOUS
10
30.4528
20
-18.6015
11
30.3951
21
-18.508
0
LINE
8
BLACK
6
CONTINUOUS
10
30.3951
20
-18.508
11
30.375
21
-18.4
0
LINE
8
BLACK
6
CONTINUOUS
10
30.375
20
-18.4
11
30.375
21
-17.3
0
LINE
8
BLACK
6
CONTINUOUS
10
30.375
20
-17.3
11
30.3807
21
-17.2417
0
CIRCLE
8
BLACK
10
136.535
20
-22.54
40
0.875
0
CIRCLE
8
BLACK
10
137.805
20
-20
40
1.5
0
CIRCLE
8
BLACK
10
144.155
20
-17.46
40
1.5
0
CIRCLE
8
BLACK
10
146.695
20
-22.54
40
0.875
0
CIRCLE
8
BLACK
10
141.615
20
-22.54
40
1.9939
0
CIRCLE
8
BLACK
10
63.115
20
-44.54
40
1.9939
0
CIRCLE
8
BLACK
10
68.195
20
-44.54
40
0.875
0
CIRCLE
8
BLACK
10
59.305
20
-42
40
1.5
0
CIRCLE
8
BLACK
10
58.035
20
-44.54
40
0.875
0
CIRCLE
8
BLACK
10
65.655
20
-39.46
40
1.5
0
CIRCLE
8
BLACK
10
68.195
20
-63.54
40
0.875
0
CIRCLE
8
BLACK
10
63.115
20
-63.54
40
1.9939
0
CIRCLE
8
BLACK
10
58.035
20
-63.54
40
0.875
0
CIRCLE
8
BLACK
10
59.305
20
-61
40
1.5
0
CIRCLE
8
BLACK
10
65.655
20
-58.46
40
1.5
0
CIRCLE
8
BLACK
10
49.195
20
-120.54
40
0.875
0
CIRCLE
8
BLACK
10
44.115
20
-120.54
40
1.9939
0
CIRCLE
8
BLACK
10
46.655
20
-115.46
40
1.5
0
CIRCLE
8
BLACK
10
39.035
20
-120.54
40
0.875
0
CIRCLE
8
BLACK
10
40.305
20
-118
40
1.5
0
CIRCLE
8
BLACK
10
63.115
20
-101.54
40
1.9939
0
CIRCLE
8
BLACK
10
68.195
20
-101.54
40
0.875
0
CIRCLE
8
BLACK
10
58.035
20
-101.54
40
0.875
0
CIRCLE
8
BLACK
10
65.655
20
-96.46
40
1.5
0
CIRCLE
8
BLACK
10
59.305
20
-99
40
1.5
0
CIRCLE
8
BLACK
10
30.195
20
-44.54
40
0.875
0
CIRCLE
8
BLACK
10
25.115
20
-44.54
40
1.9939
0
CIRCLE
8
BLACK
10
21.305
20
-42
40
1.5
0
CIRCLE
8
BLACK
10
27.655
20
-39.46
40
1.5
0
CIRCLE
8
BLACK
10
20.035
20
-44.54
40
0.875
0
CIRCLE
8
BLACK
10
134
20
-42.6
40
0.5
0
CIRCLE
8
BLACK
10
134
20
-47.6
40
0.5
0
CIRCLE
8
BLACK
10
134
20
-45.1
40
0.5
0
LINE
8
BLACK
6
CONTINUOUS
10
142.243
20
-38.7558
11
142.411
21
-38.797
0
LINE
8
BLACK
6
CONTINUOUS
10
142.411
20
-38.797
11
142.566
21
-38.876
0
LINE
8
BLACK
6
CONTINUOUS
10
142.566
20
-38.876
11
142.699
21
-38.9885
0
LINE
8
BLACK
6
CONTINUOUS
10
142.699
20
-38.9885
11
142.801
21
-39.1284
0
LINE
8
BLACK
6
CONTINUOUS
10
142.801
20
-39.1284
11
142.869
21
-39.2882
0
LINE
8
BLACK
6
CONTINUOUS
10
142.869
20
-39.2882
11
142.899
21
-39.4594
0
LINE
8
BLACK
6
CONTINUOUS
10
142.899
20
-39.4594
11
142.888
21
-39.6328
0
LINE
8
BLACK
6
CONTINUOUS
10
142.888
20
-39.6328
11
142.838
21
-39.7991
0
LINE
8
BLACK
6
CONTINUOUS
10
142.838
20
-39.7991
11
142.751
21
-39.9493
0
LINE
8
BLACK
6
CONTINUOUS
10
142.751
20
-39.9493
11
142.631
21
-40.0754
0
LINE
8
BLACK
6
CONTINUOUS
10
142.631
20
-40.0754
11
142.486
21
-40.1706
0
LINE
8
BLACK
6
CONTINUOUS
10
142.486
20
-40.1706
11
142.323
21
-40.2299
0
LINE
8
BLACK
6
CONTINUOUS
10
142.323
20
-40.2299
11
142.15
21
-40.25
0
LINE
8
BLACK
6
CONTINUOUS
10
142.15
20
-40.25
11
140.85
21
-40.25
0
LINE
8
BLACK
6
CONTINUOUS
10
140.85
20
-40.25
11
140.757
21
-40.2442
0
LINE
8
BLACK
6
CONTINUOUS
10
140.757
20
-40.2442
11
140.589
21
-40.203
0
LINE
8
BLACK
6
CONTINUOUS
10
140.589
20
-40.203
11
140.434
21
-40.124
0
LINE
8
BLACK
6
CONTINUOUS
10
140.434
20
-40.124
11
140.301
21
-40.0115
0
LINE
8
BLACK
6
CONTINUOUS
10
140.301
20
-40.0115
11
140.199
21
-39.8716
0
LINE
8
BLACK
6
CONTINUOUS
10
140.199
20
-39.8716
11
140.131
21
-39.7118
0
LINE
8
BLACK
6
CONTINUOUS
10
140.131
20
-39.7118
11
140.101
21
-39.5406
0
LINE
8
BLACK
6
CONTINUOUS
10
140.101
20
-39.5406
11
140.112
21
-39.3672
0
LINE
8
BLACK
6
CONTINUOUS
10
140.112
20
-39.3672
11
140.162
21
-39.2009
0
LINE
8
BLACK
6
CONTINUOUS
10
140.162
20
-39.2009
11
140.249
21
-39.0507
0
LINE
8
BLACK
6
CONTINUOUS
10
140.249
20
-39.0507
11
140.369
21
-38.9246
0
LINE
8
BLACK
6
CONTINUOUS
10
140.369
20
-38.9246
11
140.514
21
-38.8294
0
LINE
8
BLACK
6
CONTINUOUS
10
140.514
20
-38.8294
11
140.677
21
-38.7701
0
LINE
8
BLACK
6
CONTINUOUS
10
140.677
20
-38.7701
11
140.85
21
-38.75
0
LINE
8
BLACK
6
CONTINUOUS
10
140.85
20
-38.75
11
142.15
21
-38.75
0
LINE
8
BLACK
6
CONTINUOUS
10
142.15
20
-38.75
11
142.243
21
-38.7558
0
LINE
8
BLACK
6
CONTINUOUS
10
142.243
20
-49.9558
11
142.411
21
-49.997
0
LINE
8
BLACK
6
CONTINUOUS
10
142.411
20
-49.997
11
142.566
21
-50.076
0
LINE
8
BLACK
6
CONTINUOUS
10
142.566
20
-50.076
11
142.699
21
-50.1885
0
LINE
8
BLACK
6
CONTINUOUS
10
142.699
20
-50.1885
11
142.801
21
-50.3284
0
LINE
8
BLACK
6
CONTINUOUS
10
142.801
20
-50.3284
11
142.869
21
-50.4882
0
LINE
8
BLACK
6
CONTINUOUS
10
142.869
20
-50.4882
11
142.899
21
-50.6594
0
LINE
8
BLACK
6
CONTINUOUS
10
142.899
20
-50.6594
11
142.888
21
-50.8328
0
LINE
8
BLACK
6
CONTINUOUS
10
142.888
20
-50.8328
11
142.838
21
-50.9991
0
LINE
8
BLACK
6
CONTINUOUS
10
142.838
20
-50.9991
11
142.751
21
-51.1493
0
LINE
8
BLACK
6
CONTINUOUS
10
142.751
20
-51.1493
11
142.631
21
-51.2754
0
LINE
8
BLACK
6
CONTINUOUS
10
142.631
20
-51.2754
11
142.486
21
-51.3706
0
LINE
8
BLACK
6
CONTINUOUS
10
142.486
20
-51.3706
11
142.323
21
-51.4299
0
LINE
8
BLACK
6
CONTINUOUS
10
142.323
20
-51.4299
11
142.15
21
-51.45
0
LINE
8
BLACK
6
CONTINUOUS
10
142.15
20
-51.45
11
140.85
21
-51.45
0
LINE
8
BLACK
6
CONTINUOUS
10
140.85
20
-51.45
11
140.757
21
-51.4442
0
LINE
8
BLACK
6
CONTINUOUS
10
140.757
20
-51.4442
11
140.589
21
-51.403
0
LINE
8
BLACK
6
CONTINUOUS
10
140.589
20
-51.403
11
140.434
21
-51.324
0
LINE
8
BLACK
6
CONTINUOUS
10
140.434
20
-51.324
11
140.301
21
-51.2115
0
LINE
8
BLACK
6
CONTINUOUS
10
140.301
20
-51.2115
11
140.199
21
-51.0716
0
LINE
8
BLACK
6
CONTINUOUS
10
140.199
20
-51.0716
11
140.131
21
-50.9118
0
LINE
8
BLACK
6
CONTINUOUS
10
140.131
20
-50.9118
11
140.101
21
-50.7406
0
LINE
8
BLACK
6
CONTINUOUS
10
140.101
20
-50.7406
11
140.112
21
-50.5672
0
LINE
8
BLACK
6
CONTINUOUS
10
140.112
20
-50.5672
11
140.162
21
-50.4009
0
LINE
8
BLACK
6
CONTINUOUS
10
140.162
20
-50.4009
11
140.249
21
-50.2507
0
LINE
8
BLACK
6
CONTINUOUS
10
140.249
20
-50.2507
11
140.369
21
-50.1246
0
LINE
8
BLACK
6
CONTINUOUS
10
140.369
20
-50.1246
11
140.514
21
-50.0294
0
LINE
8
BLACK
6
CONTINUOUS
10
140.514
20
-50.0294
11
140.677
21
-49.9701
0
LINE
8
BLACK
6
CONTINUOUS
10
140.677
20
-49.9701
11
140.85
21
-49.95
0
LINE
8
BLACK
6
CONTINUOUS
10
140.85
20
-49.95
11
142.15
21
-49.95
0
LINE
8
BLACK
6
CONTINUOUS
10
142.15
20
-49.95
11
142.243
21
-49.9558
0
CIRCLE
8
BLACK
10
148.5
20
-47.6
40
0.5
0
CIRCLE
8
BLACK
10
148.5
20
-42.6
40
0.5
0
CIRCLE
8
BLACK
10
141.3
20
-119.9
40
0.5
0
CIRCLE
8
BLACK
10
143.8
20
-119.08
40
0.5
0
CIRCLE
8
BLACK
10
149.66
20
-115.85
40
0.5
0
CIRCLE
8
BLACK
10
150.6
20
-113.6
40
0.5
0
CIRCLE
8
BLACK
10
150.6
20
-110.6
40
0.5
0
CIRCLE
8
BLACK
10
144.3
20
-104.3
40
0.5
0
CIRCLE
8
BLACK
10
141.8
20
-106.32
40
0.5
0
CIRCLE
8
BLACK
10
141.3
20
-104.3
40
0.5
0
CIRCLE
8
BLACK
10
135
20
-110.6
40
0.5
0
CIRCLE
8
BLACK
10
135
20
-113.6
40
0.5
0
CIRCLE
8
BLACK
10
139
20
-113.6
40
0.5
0
CIRCLE
8
BLACK
10
106.195
20
-82.54
40
0.875
0
CIRCLE
8
BLACK
10
96.035
20
-82.54
40
0.875
0
CIRCLE
8
BLACK
10
103.655
20
-77.46
40
1.5
0
CIRCLE
8
BLACK
10
101.115
20
-82.54
40
1.9939
0
CIRCLE
8
BLACK
10
97.305
20
-80
40
1.5
0
CIRCLE
8
BLACK
10
107.648
20
-122.936
40
0.875
0
CIRCLE
8
BLACK
10
106.029
20
-117.492
40
1.5
0
CIRCLE
8
BLACK
10
99.334
20
-118.891
40
1.5
0
CIRCLE
8
BLACK
10
102.645
20
-122.054
40
1.9939
0
CIRCLE
8
BLACK
10
97.6423
20
-121.171
40
0.875
0
CIRCLE
8
BLACK
10
78.305
20
-99
40
1.5
0
CIRCLE
8
BLACK
10
77.035
20
-101.54
40
0.875
0
CIRCLE
8
BLACK
10
84.655
20
-96.46
40
1.5
0
CIRCLE
8
BLACK
10
87.195
20
-101.54
40
0.875
0
CIRCLE
8
BLACK
10
82.115
20
-101.54
40
1.9939
0
CIRCLE
8
BLACK
10
59.305
20
-80
40
1.5
0
CIRCLE
8
BLACK
10
65.655
20
-77.46
40
1.5
0
CIRCLE
8
BLACK
10
58.035
20
-82.54
40
0.875
0
CIRCLE
8
BLACK
10
68.195
20
-82.54
40
0.875
0
CIRCLE
8
BLACK
10
63.115
20
-82.54
40
1.9939
0
CIRCLE
8
BLACK
10
97.305
20
-42
40
1.5
0
CIRCLE
8
BLACK
10
106.195
20
-44.54
40
0.875
0
CIRCLE
8
BLACK
10
96.035
20
-44.54
40
0.875
0
CIRCLE
8
BLACK
10
101.115
20
-44.54
40
1.9939
0
CIRCLE
8
BLACK
10
103.655
20
-39.46
40
1.5
0
CIRCLE
8
BLACK
10
125.195
20
-82.54
40
0.875
0
CIRCLE
8
BLACK
10
120.115
20
-82.54
40
1.9939
0
CIRCLE
8
BLACK
10
122.655
20
-77.46
40
1.5
0
CIRCLE
8
BLACK
10
115.035
20
-82.54
40
0.875
0
CIRCLE
8
BLACK
10
116.305
20
-80
40
1.5
0
CIRCLE
8
BLACK
10
58.035
20
-22.54
40
0.875
0
CIRCLE
8
BLACK
10
65.655
20
-17.46
40
1.5
0
CIRCLE
8
BLACK
10
59.305
20
-20
40
1.5
0
CIRCLE
8
BLACK
10
63.115
20
-22.54
40
1.9939
0
CIRCLE
8
BLACK
10
68.195
20
-22.54
40
0.875
0
CIRCLE
8
BLACK
10
101.115
20
-101.54
40
1.9939
0
CIRCLE
8
BLACK
10
96.035
20
-101.54
40
0.875
0
CIRCLE
8
BLACK
10
103.655
20
-96.46
40
1.5
0
CIRCLE
8
BLACK
10
106.195
20
-101.54
40
0.875
0
CIRCLE
8
BLACK
10
97.305
20
-99
40
1.5
0
CIRCLE
8
BLACK
10
145.595
20
-95.915
40
0.5
0
CIRCLE
8
BLACK
10
143.055
20
-95.915
40
0.5
0
CIRCLE
8
BLACK
10
140.515
20
-95.915
40
0.5
0
CIRCLE
8
BLACK
10
137.975
20
-95.915
40
0.5
0
CIRCLE
8
BLACK
10
44.115
20
-101.54
40
1.9939
0
CIRCLE
8
BLACK
10
49.195
20
-101.54
40
0.875
0
CIRCLE
8
BLACK
10
46.655
20
-96.46
40
1.5
0
CIRCLE
8
BLACK
10
40.305
20
-99
40
1.5
0
CIRCLE
8
BLACK
10
39.035
20
-101.54
40
0.875
0
CIRCLE
8
BLACK
10
21.305
20
-118
40
1.5
0
CIRCLE
8
BLACK
10
27.655
20
-115.46
40
1.5
0
CIRCLE
8
BLACK
10
25.115
20
-120.54
40
1.9939
0
CIRCLE
8
BLACK
10
20.035
20
-120.54
40
0.875
0
CIRCLE
8
BLACK
10
30.195
20
-120.54
40
0.875
0
CIRCLE
8
BLACK
10
131.1
20
-130.5
40
1.9939
0
CIRCLE
8
BLACK
10
126.326
20
-128.763
40
0.875
0
CIRCLE
8
BLACK
10
117.059
20
-134.174
40
1.9939
0
CIRCLE
8
BLACK
10
135.874
20
-132.237
40
0.875
0
CIRCLE
8
BLACK
10
135.224
20
-126.595
40
1.5
0
CIRCLE
8
BLACK
10
139.495
20
-142.34
40
1.9939
0
CIRCLE
8
BLACK
10
128.389
20
-126.81
40
1.5
0
CIRCLE
8
BLACK
10
144.707
20
-128.019
40
1.524
0
CIRCLE
8
BLACK
10
122.271
20
-119.853
40
1.524
0
CIRCLE
8
BLACK
10
49.195
20
-44.54
40
0.875
0
CIRCLE
8
BLACK
10
39.035
20
-44.54
40
0.875
0
CIRCLE
8
BLACK
10
44.115
20
-44.54
40
1.9939
0
CIRCLE
8
BLACK
10
40.305
20
-42
40
1.5
0
CIRCLE
8
BLACK
10
46.655
20
-39.46
40
1.5
0
CIRCLE
8
BLACK
10
59.275
20
-118
40
1.5
0
CIRCLE
8
BLACK
10
63.085
20
-120.54
40
1.9939
0
CIRCLE
8
BLACK
10
68.165
20
-120.54
40
0.875
0
CIRCLE
8
BLACK
10
65.625
20
-115.46
40
1.5
0
CIRCLE
8
BLACK
10
58.005
20
-120.54
40
0.875
0
CIRCLE
8
BLACK
10
116.305
20
-99
40
1.5
0
CIRCLE
8
BLACK
10
125.195
20
-101.54
40
0.875
0
CIRCLE
8
BLACK
10
120.115
20
-101.54
40
1.9939
0
CIRCLE
8
BLACK
10
115.035
20
-101.54
40
0.875
0
CIRCLE
8
BLACK
10
122.655
20
-96.46
40
1.5
0
CIRCLE
8
BLACK
10
78.305
20
-20
40
1.5
0
CIRCLE
8
BLACK
10
77.035
20
-22.54
40
0.875
0
CIRCLE
8
BLACK
10
84.655
20
-17.46
40
1.5
0
CIRCLE
8
BLACK
10
82.115
20
-22.54
40
1.9939
0
CIRCLE
8
BLACK
10
87.195
20
-22.54
40
0.875
0
CIRCLE
8
BLACK
10
96.035
20
-22.54
40
0.875
0
CIRCLE
8
BLACK
10
103.655
20
-17.46
40
1.5
0
CIRCLE
8
BLACK
10
106.195
20
-22.54
40
0.875
0
CIRCLE
8
BLACK
10
97.305
20
-20
40
1.5
0
CIRCLE
8
BLACK
10
101.115
20
-22.54
40
1.9939
0
CIRCLE
8
BLACK
10
40.305
20
-61
40
1.5
0
CIRCLE
8
BLACK
10
44.115
20
-63.54
40
1.9939
0
CIRCLE
8
BLACK
10
46.655
20
-58.46
40
1.5
0
CIRCLE
8
BLACK
10
49.195
20
-63.54
40
0.875
0
CIRCLE
8
BLACK
10
39.035
20
-63.54
40
0.875
0
CIRCLE
8
BLACK
10
101.115
20
-63.54
40
1.9939
0
CIRCLE
8
BLACK
10
97.305
20
-61
40
1.5
0
CIRCLE
8
BLACK
10
96.035
20
-63.54
40
0.875
0
CIRCLE
8
BLACK
10
106.195
20
-63.54
40
0.875
0
CIRCLE
8
BLACK
10
103.655
20
-58.46
40
1.5
0
CIRCLE
8
BLACK
10
21.275
20
-61
40
1.5
0
CIRCLE
8
BLACK
10
25.085
20
-63.54
40
1.9939
0
CIRCLE
8
BLACK
10
27.625
20
-58.46
40
1.5
0
CIRCLE
8
BLACK
10
20.005
20
-63.54
40
0.875
0
CIRCLE
8
BLACK
10
30.165
20
-63.54
40
0.875
0
CIRCLE
8
BLACK
10
120.115
20
-44.54
40
1.9939
0
CIRCLE
8
BLACK
10
116.305
20
-42
40
1.5
0
CIRCLE
8
BLACK
10
125.195
20
-44.54
40
0.875
0
CIRCLE
8
BLACK
10
115.035
20
-44.54
40
0.875
0
CIRCLE
8
BLACK
10
122.655
20
-39.46
40
1.5
0
CIRCLE
8
BLACK
10
87.195
20
-44.54
40
0.875
0
CIRCLE
8
BLACK
10
84.655
20
-39.46
40
1.5
0
CIRCLE
8
BLACK
10
77.035
20
-44.54
40
0.875
0
CIRCLE
8
BLACK
10
78.305
20
-42
40
1.5
0
CIRCLE
8
BLACK
10
82.115
20
-44.54
40
1.9939
0
CIRCLE
8
BLACK
10
143.48
20
-62.5303
40
0.2
0
CIRCLE
8
BLACK
10
142.702
20
-63.3081
40
0.2
0
CIRCLE
8
BLACK
10
141.924
20
-64.086
40
0.2
0
CIRCLE
8
BLACK
10
141.147
20
-64.8638
40
0.2
0
CIRCLE
8
BLACK
10
140.369
20
-65.6416
40
0.2
0
CIRCLE
8
BLACK
10
139.591
20
-66.4194
40
0.2
0
CIRCLE
8
BLACK
10
138.813
20
-67.1972
40
0.2
0
CIRCLE
8
BLACK
10
138.035
20
-67.9751
40
0.2
0
CIRCLE
8
BLACK
10
137.258
20
-68.7529
40
0.2
0
CIRCLE
8
BLACK
10
137.47
20
-56.5199
40
0.2
0
CIRCLE
8
BLACK
10
136.692
20
-57.2977
40
0.2
0
CIRCLE
8
BLACK
10
135.914
20
-58.0756
40
0.2
0
CIRCLE
8
BLACK
10
135.136
20
-58.8534
40
0.2
0
CIRCLE
8
BLACK
10
134.358
20
-59.6312
40
0.2
0
CIRCLE
8
BLACK
10
133.581
20
-60.409
40
0.2
0
CIRCLE
8
BLACK
10
132.803
20
-61.1868
40
0.2
0
CIRCLE
8
BLACK
10
132.025
20
-61.9646
40
0.2
0
CIRCLE
8
BLACK
10
131.247
20
-62.7425
40
0.2
0
CIRCLE
8
BLACK
10
35
20
-80
40
0.2
0
CIRCLE
8
BLACK
10
35
20
-23
40
0.2
0
CIRCLE
8
BLACK
10
35
20
-61
40
0.2
0
CIRCLE
8
BLACK
10
35
20
-42
40
0.2
0
CIRCLE
8
BLACK
10
35
20
-118
40
0.2
0
CIRCLE
8
BLACK
10
35
20
-99
40
0.2
0
CIRCLE
8
BLACK
10
54
20
-61
40
0.2
0
CIRCLE
8
BLACK
10
54
20
-118
40
0.2
0
CIRCLE
8
BLACK
10
54
20
-42
40
0.2
0
CIRCLE
8
BLACK
10
54
20
-99
40
0.2
0
CIRCLE
8
BLACK
10
54
20
-80
40
0.2
0
CIRCLE
8
BLACK
10
54
20
-23
40
0.2
0
CIRCLE
8
BLACK
10
73
20
-80
40
0.2
0
CIRCLE
8
BLACK
10
73
20
-118
40
0.2
0
CIRCLE
8
BLACK
10
73
20
-42
40
0.2
0
CIRCLE
8
BLACK
10
73
20
-23
40
0.2
0
CIRCLE
8
BLACK
10
73
20
-61
40
0.2
0
CIRCLE
8
BLACK
10
73
20
-99
40
0.2
0
CIRCLE
8
BLACK
10
92
20
-80
40
0.2
0
CIRCLE
8
BLACK
10
92
20
-23
40
0.2
0
CIRCLE
8
BLACK
10
92
20
-99
40
0.2
0
CIRCLE
8
BLACK
10
93.5709
20
-117.874
40
0.2
0
CIRCLE
8
BLACK
10
92
20
-42
40
0.2
0
CIRCLE
8
BLACK
10
92
20
-61
40
0.2
0
CIRCLE
8
BLACK
10
111
20
-80
40
0.2
0
CIRCLE
8
BLACK
10
111
20
-42
40
0.2
0
CIRCLE
8
BLACK
10
111
20
-23
40
0.2
0
CIRCLE
8
BLACK
10
111
20
-99
40
0.2
0
CIRCLE
8
BLACK
10
122.844
20
-124.729
40
0.2
0
CIRCLE
8
BLACK
10
111
20
-61
40
0.2
  0
ENDSEC
  0
EOF
